<svg xmlns="http://www.w3.org/2000/svg" version="1.1" xmlns:xlink="http://www.w3.org/1999/xlink" xmlns:svgjs="http://svgjs.dev/svgjs" width="1000" height="1000" viewBox="0 0 1000 1000"><rect width="1000" height="1000" fill="#ffffff"></rect><g transform="matrix(0.7,0,0,0.7,149.98018180137512,436.01188747256583)"><svg viewBox="0 0 321 59" data-background-color="#fafafa" preserveAspectRatio="xMidYMid meet" height="183" width="1000" xmlns="http://www.w3.org/2000/svg" xmlns:xlink="http://www.w3.org/1999/xlink"><g id="tight-bounds" transform="matrix(1,0,0,1,0.009088059655113057,-0.028496011854883818)"><svg viewBox="0 0 320.9818238806898 59.056999999999995" height="59.056999999999995" width="320.9818238806898"><g><svg viewBox="0 0 320.9818238806898 59.056999999999995" height="59.056999999999995" width="320.9818238806898"><g><svg viewBox="0 0 320.9818238806898 59.056999999999995" height="59.056999999999995" width="320.9818238806898"><g id="textblocktransform"><svg viewBox="0 0 320.9818238806898 59.056999999999995" height="59.056999999999995" width="320.9818238806898" id="textblock"><g><svg viewBox="0 0 320.9818238806898 59.056999999999995" height="59.056999999999995" width="320.9818238806898"><g><svg><g></g><g></g></svg></g><g><svg><g><svg></svg></g><g></g></svg></g><g id="text-0"><svg viewBox="0 0 320.9818238806898 59.056999999999995" height="59.056999999999995" width="320.9818238806898"><g transform="matrix(1,0,0,1,0,11.028499999999994)"><svg width="59.499999999999986" viewBox="2 -35.70000076293945 59.5 36.400001525878906" height="36.4" data-palette-color="#130912"><path d="M34.6-1.5L34.6 0 23.2 0 23.2-1.5 24.1-1.5Q24.9-1.5 24.9-1.9L24.9-1.9Q24.9-2.1 24.1-3.3L24.1-3.3 13.9-19.1 10.4-15.6 10.4-3.7Q10.4-2.95 10.5-2.55 10.6-2.15 11.15-1.83 11.7-1.5 12.8-1.5L12.8-1.5 14.7-1.5 14.7 0 2 0 2-1.5 3.6-1.5Q4.7-1.5 5.25-1.83 5.8-2.15 5.9-2.55 6-2.95 6-3.7L6-3.7 6-31.3Q6-32.05 5.9-32.45 5.8-32.85 5.25-33.18 4.7-33.5 3.6-33.5L3.6-33.5 2-33.5 2-35 14.7-35 14.7-33.5 12.8-33.5Q11.7-33.5 11.15-33.18 10.6-32.85 10.5-32.45 10.4-32.05 10.4-31.3L10.4-31.3 10.4-18.3 23.3-30.9Q24.3-31.8 24.3-32.5L24.3-32.5Q24.3-33.5 22.8-33.5L22.8-33.5 21.9-33.5 21.9-35 31.8-35 31.8-33.5 31-33.5Q30.1-33.5 28.4-32.55 26.7-31.6 25.5-30.4L25.5-30.4 17-22 28.3-5Q28.9-4.2 29.4-3.4L29.4-3.4Q30.9-1.5 33.4-1.5L33.4-1.5 34.6-1.5ZM37-2.4L37-2.4 37.7-8.9 39.4-8.8Q39.4-6.05 42.67-4.38 45.95-2.7 50.12-2.7 54.3-2.7 56.4-3.98 58.5-5.25 58.5-7.2L58.5-7.2Q58.5-10.5 55-13.1L55-13.1Q53.55-14.15 51.95-14.95L51.95-14.95Q48.3-16.85 47.37-17.38 46.45-17.9 45.3-18.45 44.15-19 43.17-19.63 42.2-20.25 41.1-21.15L41.1-21.15Q38.6-23.15 38.6-25.63 38.6-28.1 39.47-29.95 40.35-31.8 41.67-32.85 43-33.9 44.8-34.6L44.8-34.6Q47.85-35.7 51.62-35.7 55.4-35.7 58.9-33.8L58.9-33.8 58.3-28 56.6-28Q56.6-32.7 48.7-32.7L48.7-32.7Q45.05-32.7 43.22-31.55 41.4-30.4 41.4-28.4L41.4-28.4Q41.4-25.2 51.8-20.7L51.8-20.7Q58.65-17.75 60.55-14.15L60.55-14.15Q61.5-12.35 61.5-10.2L61.5-10.2Q61.5-5 57.32-2.15 53.15 0.7 47.25 0.7 41.35 0.7 37-2.4Z" opacity="1" transform="matrix(1,0,0,1,0,0)" fill="#130912" class="undefined-p-0"></path></svg></g><g><svg xmlns="http://www.w3.org/2000/svg" xmlns:xlink="http://www.w3.org/1999/xlink" version="1.1" x="73.44299999999998" y="0" viewBox="2.927000045776367 18.074382781982422 63.36199951171875 37.95261764526367" enable-background="new 0 0 72 72" xml:space="preserve" height="59.056999999999995" width="98.59582388068972" class="icon-s-0" data-fill-palette-color="accent" id="s-0"><g fill="#e77917" data-fill-palette-color="accent"><path d="M53.823 31.094c-1.77 0-3.45 0.374-4.976 1.039L48.2 30.01l0.168-0.054c0.043-0.015 0.067-0.061 0.054-0.104l-0.042-0.129c-0.013-0.043-0.061-0.067-0.104-0.053l-0.162 0.052-0.658-2.146c-0.291-0.955-0.586-1.911-0.882-2.864l0.107-0.035c0.044-0.014 0.067-0.061 0.056-0.104l-0.042-0.129c-0.014-0.042-0.062-0.067-0.104-0.053l-0.105 0.033-0.047 0.015L45.965 23.1h3.5c0.083 0 0.184 0.003 0.296 0.012l0.038-0.499-0.036 0.499c0.731 0.053 3.117 0.392 3.117 2.523 0 2.158-2.255 2.54-2.351 2.555l0.151 0.988c1.106-0.167 3.199-1.124 3.199-3.543 0-2.378-2.089-3.378-4.043-3.52l0 0c-0.142-0.011-0.268-0.015-0.372-0.015h-3.83v0.065l-0.015-0.042-1.098 0.348 0.819 2.318-0.095 0.03c-0.043 0.014-0.067 0.062-0.054 0.104l0.041 0.128c0.015 0.044 0.062 0.068 0.104 0.055l0.104-0.034c0.046 0.14 0.091 0.276 0.137 0.415H25.409l-0.166-0.566-0.11-0.377-0.057 0.017-1.056-3.656c-0.029-0.112-0.097-0.339-0.646-0.594l0.12-0.006c0.211-0.011 0.498-0.13 0.654-0.271l0.752-0.678c0.224 0.004 0.39 0.016 0.432 0.04 0.146 0.083 1.037 0.104 1.368 0.104 0.333 0 0.851 0.021 0.934 0.021s0.331-0.207-0.062-0.456c-0.395-0.249-0.975-0.747-2.695-0.747s-4.851 0-5.101 0c-0.249 0-0.593-0.041-0.87-0.124-0.324-0.097-1.493-0.165-1.679-0.083-0.188 0.083-0.153 0.283 0.166 0.582 0.214 0.199 0.59 0.557 0.801 0.662 0.164 0.083 0.746 0.316 1.372 0.467l0.331 0.367c0.141 0.154 0.408 0.27 0.623 0.27 0.01 0 0.021 0 0.029-0.001l1.043-0.054c-0.008 0.049-0.012 0.099-0.012 0.151 0 0.44 0.228 0.811 0.839 0.825 0.206 0.004 0.514-0.059 0.736-0.158 0.003 0.001 0.006 0.003 0.01 0.004l1.036 3.591-0.103 0.03 0.11 0.378 0.366 1.243c-0.005 0.01-0.01 0.018-0.015 0.025l-0.297 0.539-0.595 1.075L22.48 30.26l-1.202 2.146c-0.024 0.043-0.049 0.087-0.073 0.13-1.736-0.917-3.712-1.442-5.812-1.442-6.885 0-12.466 5.582-12.466 12.467 0 6.886 5.581 12.466 12.466 12.466 5.063 0 9.413-3.023 11.364-7.358l2.779 0.34c0.424 0.168 0.883 0.268 1.367 0.268 2.052 0 3.716-1.664 3.716-3.717 0-0.819-0.273-1.569-0.722-2.183l12.966-14.028 0.234 0.698-0.164 0.052c-0.044 0.015-0.068 0.062-0.054 0.105l0.042 0.129c0.012 0.043 0.061 0.066 0.104 0.053l0.167-0.054 0.749 2.238c-3.919 2.101-6.585 6.234-6.585 10.991 0 6.886 5.581 12.466 12.467 12.466s12.466-5.58 12.466-12.466C66.289 36.676 60.709 31.094 53.823 31.094zM22.838 20.088c-0.126-0.209-0.332-0.348-0.567-0.348-0.256 0-0.479 0.165-0.598 0.409l-1.137 0.058c-0.145 0.008-0.357-0.08-0.455-0.188l-0.104-0.114c0.204 0.033 0.403 0.053 0.588 0.05 0.905-0.014 1.265-0.456 1.596-0.519 0.332-0.062 0.975-0.062 0.975-0.062 0.235 0 0.869-0.021 1.397-0.022l-0.551 0.495c-0.113 0.104-0.347 0.199-0.501 0.207L22.838 20.088zM21.842 32.718l1.183-2.156 1.195-2.149 0.597-1.074 0.01-0.016 4.373 14.845-1.41 0.082c-0.418-4-2.733-7.426-6.024-9.39C21.79 32.812 21.816 32.765 21.842 32.718zM28.501 47.565c0 0-0.397-0.412-0.602-1.035-0.049-0.152-0.08-0.3-0.102-0.438l1.654 0.262 0.274 0.043c-0.009 0.026-0.008 0.053-0.02 0.078l-0.458 0.967C29.093 47.774 28.755 47.829 28.501 47.565zM16.509 42.718l1.83-3.506 1.158-2.171 1.168-2.164c0.145-0.268 0.291-0.534 0.437-0.802 2.884 1.74 4.913 4.746 5.301 8.255l-9.771 0.568C16.6 42.829 16.562 42.763 16.509 42.718zM26.425 42.58c0.028 0.324 0.05 0.65 0.05 0.981 0 0.354-0.021 0.702-0.053 1.047l-9.703-1.461c0 0 0-0.001-0.001-0.002L26.425 42.58zM29.662 44.705l-1.062-0.138c-0.362-0.046-0.52-0.35-0.348-0.674 0 0 0.27-0.504 0.799-0.89 0.112-0.081 0.225-0.144 0.334-0.201l0.554 1.879C29.851 44.707 29.757 44.717 29.662 44.705zM30.636 43.232l-0.201-0.683c0.184 0.074 0.286 0.258 0.237 0.505L30.636 43.232zM30.902 45.053c0.329 0 0.597 0.268 0.597 0.597s-0.268 0.597-0.597 0.597c-0.33 0-0.598-0.268-0.598-0.597S30.572 45.053 30.902 45.053zM27.854 43.443c-0.003-0.317-0.021-0.632-0.048-0.943l1.097-0.064C28.49 42.701 28.133 43.042 27.854 43.443zM31.39 44.256c-0.021-0.046-0.047-0.09-0.057-0.142l-0.198-1.052c-0.067-0.359 0.173-0.603 0.534-0.539 0 0 0.469 0.094 0.952 0.4L31.39 44.256zM15.393 54.643c-6.119 0-11.081-4.961-11.081-11.082 0-6.12 4.962-11.082 11.081-11.082 1.854 0 3.597 0.461 5.132 1.265-0.151 0.268-0.301 0.537-0.453 0.804l-1.216 2.138-1.227 2.131c-0.65 1.117-1.299 2.232-1.96 3.343l-0.197-0.001c-0.022-0.002-0.045-0.003-0.068-0.003-0.756 0-1.368 0.612-1.368 1.368 0 0.674 0.488 1.232 1.13 1.347l0.524-0.009c0.345-0.072 0.641-0.275 0.836-0.555l9.711 1.538c-0.177 0.844-0.458 1.647-0.814 2.408l-10.131-1.24c0.075-0.107 0.13-0.232 0.13-0.374 0-0.365-0.296-0.662-0.662-0.662-0.365 0-0.662 0.297-0.662 0.662s0.297 0.662 0.662 0.662c0.102 0 0.194-0.027 0.28-0.067l10.269 1.257C23.492 52.134 19.74 54.643 15.393 54.643zM26.872 48.431c0.222-0.522 0.396-1.068 0.546-1.624 0.277 0.775 0.795 1.432 1.476 1.871L26.872 48.431zM32.068 48.463c0 0-0.515 0.251-1.171 0.251-0.655 0-1.17-0.251-1.17-0.251-0.329-0.16-0.378-0.494-0.109-0.742l0.812-0.747c0.021-0.02 0.05-0.028 0.073-0.044 0.123 0.038 0.252 0.063 0.388 0.063 0.143 0 0.273-0.04 0.402-0.081 0.037 0.023 0.078 0.039 0.11 0.069l0.778 0.734C32.449 47.966 32.397 48.303 32.068 48.463zM34.025 45.348c0 0 0.08 0.567-0.122 1.191-0.204 0.623-0.601 1.035-0.601 1.035-0.254 0.265-0.587 0.207-0.74-0.125l-0.459-1.004c-0.025-0.055-0.031-0.114-0.041-0.172 0.099-0.183 0.167-0.383 0.171-0.605 0.051-0.057 0.106-0.109 0.176-0.147l0.939-0.514C33.67 44.833 33.976 44.987 34.025 45.348zM33.562 43.901c0.174 0.322 0.016 0.621-0.348 0.664l-0.466 0.054 0.754-0.816C33.54 43.862 33.562 43.901 33.562 43.901zM33.011 42.503c-0.6-0.414-1.324-0.66-2.107-0.66-0.225 0-0.442 0.028-0.657 0.066l-4.47-15.179h20.215c0.132 0.396 0.264 0.791 0.396 1.187l0.028 0.084L33.011 42.503zM53.823 54.643c-6.121 0-11.083-4.961-11.083-11.082 0-4.145 2.279-7.752 5.649-9.653l0.681 2.029 0.45 1.336 0.112 0.334 0.032 0.095 0.029 0.082 0.066 0.172c0.092 0.227 0.186 0.449 0.286 0.668 0.407 0.877 0.884 1.709 1.426 2.5 0.27 0.395 0.555 0.781 0.863 1.15 0.155 0.185 0.315 0.365 0.488 0.54 0.168 0.175 0.35 0.344 0.554 0.498 0.107 0.099 0.274 0.091 0.373-0.017 0.098-0.107 0.09-0.275-0.018-0.373-0.01-0.009-0.023-0.005-0.034-0.012l0.003-0.003c-0.322-0.286-0.615-0.645-0.886-1.01-0.272-0.369-0.53-0.752-0.769-1.146-0.48-0.788-0.914-1.606-1.265-2.449-0.088-0.21-0.172-0.424-0.245-0.638l-0.055-0.158-0.028-0.083-0.021-0.073-0.103-0.338-0.41-1.348-0.665-2.192c1.394-0.632 2.938-0.993 4.567-0.993 6.122 0 11.082 4.962 11.082 11.082C64.905 49.682 59.945 54.643 53.823 54.643z" fill="#000000" data-fill-palette-color="accent"></path><circle cx="15.942" cy="45.565" r="0.66" fill="#000000" data-fill-palette-color="accent"></circle></g></svg></g><g transform="matrix(1,0,0,1,185.98182388068972,11.378499999999999)"><svg width="135" viewBox="2 -35.5 134.99000549316406 36.29999923706055" height="36.3" data-palette-color="#130912"><path d="M2-35L9.7-35 19.2-35.5Q23.6-35.5 26.4-33.65 29.2-31.8 29.2-28.6L29.2-28.6Q29.2-24.15 26.8-21.35 24.4-18.55 20.9-17.1L20.9-17.1 29-4.9Q29.5-4.1 30.93-2.75 32.35-1.4 33.5-1.4L33.5-1.4 34.4-1.4 34.4 0 27 0Q27.15 0 26.05-1.5 24.95-3 24.8-3.3L24.8-3.3 16.5-16.1Q16-16 14.5-16 13-16 12.1-16.1L12.1-16.1 11.7-18.1Q12.4-18 14.7-18 17-18 19.3-18.6 21.6-19.2 23.35-20.88 25.1-22.55 25.1-25.2L25.1-25.2Q25.1-32.6 15.6-32.6L15.6-32.6 10.4-32.4 10.4-3.7Q10.4-2.95 10.5-2.55 10.6-2.15 11.15-1.78 11.7-1.4 12.8-1.4L12.8-1.4 14.7-1.4 14.7 0 2 0 2-1.4 3.6-1.4Q4.7-1.4 5.25-1.78 5.8-2.15 5.9-2.55 6-2.95 6-3.7L6-3.7 6-31.3Q6-32.45 5.53-32.98 5.05-33.5 3.6-33.5L3.6-33.5 2-33.5 2-35ZM65.8-6.9L64.1 0 37.3 0 37.3-1.4 39-1.4Q40.45-1.4 40.92-1.95 41.4-2.5 41.4-3.7L41.4-3.7 41.4-31.3Q41.4-32.3 40.77-32.95 40.15-33.6 39-33.6L39-33.6 37.3-33.6 37.3-35 63.7-35 64.1-28.1 62.7-27.8Q62.7-29.6 61.25-31.25 59.8-32.9 57.2-32.9L57.2-32.9 48.1-32.9Q46.6-32.9 46.15-32.33 45.7-31.75 45.7-30.7L45.7-30.7 45.7-19.3 55.7-19.3Q56.45-19.3 56.85-19.38 57.25-19.45 57.57-19.9 57.9-20.35 57.9-21.2L57.9-21.2 57.9-23.5 59.4-23.5 59.4-13.1 57.9-13.1 57.9-15.2Q57.9-16.45 57.35-16.82 56.8-17.2 55.7-17.2L55.7-17.2 45.7-17.2 45.7-4.3Q45.7-3.25 46.15-2.68 46.6-2.1 48.1-2.1L48.1-2.1 57.6-2.1Q60.25-2.1 62.27-3.8 64.3-5.5 64.4-7.1L64.4-7.1 65.8-6.9ZM98.4 0.8L98.4 0.8 76.3-28.8 76.3-3.7Q76.3-1.5 79.4-1.5L79.4-1.5 81.3-1.5 81.3 0 69.3 0 69.3-1.5 70.9-1.5Q74-1.5 74-3.7L74-3.7 74-31.3Q74-33.5 70.9-33.5L70.9-33.5 69.3-33.5 69.3-35 77.2-35 97.8-7.3 97.8-31.3Q97.8-33.5 94.8-33.5L94.8-33.5 93.1-33.5 93.1-35 105.1-35 105.1-33.5 103.2-33.5Q100.1-33.5 100.1-31.3L100.1-31.3 100.1-0.2Q99.55-0.2 98.92 0.28 98.3 0.75 98.4 0.8ZM128.89-1.4L128.89 0 115.89 0 115.89-1.4 117.89-1.4Q119.39-1.4 119.79-1.98 120.19-2.55 120.19-3.6L120.19-3.6 120.19-30.6Q120.19-31.35 120.09-31.78 119.99-32.2 119.47-32.55 118.94-32.9 117.89-32.9L117.89-32.9 114.89-32.9Q112.24-32.9 110.82-31.28 109.39-29.65 109.29-27.8L109.29-27.8 107.89-28.1 108.39-35 136.49-35 136.99-28.1 135.59-27.8Q135.49-29.6 134.04-31.25 132.59-32.9 129.99-32.9L129.99-32.9 126.99-32.9Q125.89-32.9 125.34-32.52 124.79-32.15 124.69-31.75 124.59-31.35 124.59-30.6L124.59-30.6 124.59-3.6Q124.59-2.9 124.69-2.5 124.79-2.1 125.34-1.75 125.89-1.4 126.99-1.4L126.99-1.4 128.89-1.4Z" opacity="1" transform="matrix(1,0,0,1,0,0)" fill="#130912" class="undefined-p-1"></path></svg></g></svg></g></svg></g></svg></g></svg></g><g></g></svg></g><defs></defs></svg><rect width="320.9818238806898" height="59.056999999999995" fill="none" stroke="none" visibility="hidden"></rect></g></svg></g></svg>