<svg xmlns="http://www.w3.org/2000/svg" version="1.1" xmlns:xlink="http://www.w3.org/1999/xlink" xmlns:svgjs="http://svgjs.dev/svgjs" width="1000" height="1000" viewBox="0 0 1000 1000"><rect width="1000" height="1000" fill="#000000"></rect><g transform="matrix(0.7,0,0,0.7,150,150.0000498468089)"><svg viewBox="0 0 280 280" data-background-color="#fafafa" preserveAspectRatio="xMidYMid meet" height="1000" width="1000" xmlns="http://www.w3.org/2000/svg" xmlns:xlink="http://www.w3.org/1999/xlink"><g id="tight-bounds" transform="matrix(1,0,0,1,0,0.00001887728882365991)"><svg viewBox="0 0 280 280" height="280" width="280"><g><svg viewBox="0 0 280 280" height="280" width="280"><g><svg viewBox="0 0 280 280" height="280" width="280"><g id="textblocktransform"><svg viewBox="0 0 280 280" height="280" width="280" id="textblock"><g><svg viewBox="0 0 280 280" height="280" width="280"><g transform="matrix(1,0,0,1,87.70611168380066,74.00336708925556)"><svg viewBox="0 0 104.5877766323987 131.99326582148888" height="131.99326582148888" width="104.5877766323987"><g><svg xmlns="http://www.w3.org/2000/svg" xmlns:xlink="http://www.w3.org/1999/xlink" version="1.1" x="0" y="0" viewBox="-250.70001220703125 140.98709106445312 63.399993896484375 80.01290893554688" enable-background="new -269 131 100 100" xml:space="preserve" height="131.99326582148888" width="104.5877766323987" class="icon-o-0" data-fill-palette-color="accent" id="o-0"><path d="M-200.1 163.7l-1-0.8c-1.2-1-3.1-0.6-3.8 0.8-0.3 0.7-0.6 7.7-0.6 8.9 0 0.2 0 0.6 0 0.7 0 1-0.9 1.8-1.9 1.6-0.8-0.1-1.4-0.9-1.4-1.7-0.1-12-3.7-20.4-10.5-26.7-4.1-3.8-9-7.2-10.5-4.6-0.4 0.7 0.2 2.2 0.9 4.1 1.4 4.3-2.9 11.2-9 18.1-5.7 6.5-12.8 14.5-12.8 26.4 0 16 15.1 30.5 31.7 30.5 16.6 0 31.7-14.5 31.7-30.5C-187.3 180.4-192.1 170.4-200.1 163.7zM-219 215.2c-7.2 0-13.1-5.9-13.1-13.1 0-3.6 1.4-6.8 3.8-9.2l7.2-8.6c1.1-1.3 3.2-1.3 4.3 0l7.2 8.6c2.3 2.4 3.8 5.6 3.8 9.2C-205.9 209.3-211.8 215.2-219 215.2z" fill="#ffffff" data-fill-palette-color="accent"></path></svg></g></svg></g><path d="M36.403 183.006v0c-0.322-0.86-0.63-1.389-0.926-1.586-0.302-0.195-1.563 0.108-3.783 0.91v0l-3.975 1.486c-0.371 0.139-0.649 0.293-0.836 0.463-0.187 0.17-0.299 0.359-0.336 0.566-0.031 0.205-0.031 0.387 0 0.547 0.029 0.154 0.084 0.341 0.167 0.56v0l0.373 0.999c0.359 0.961 1.055 1.549 2.088 1.764 1.033 0.215 2.236 0.066 3.612-0.448v0c3.266-1.221 4.471-2.974 3.616-5.261zM38.636 182.805v0c0.312 0.835 0.534 1.744 0.665 2.726 0.127 0.99 0.141 2.023 0.042 3.098-0.102 1.069-0.466 2.057-1.093 2.964-0.627 0.907-1.506 1.572-2.637 1.995v0c-1.645 0.615-3.262 0.676-4.85 0.181-1.584-0.503-2.768-1.238-3.551-2.205v0c-0.142-0.169-0.291-0.156-0.447 0.039v0c-0.702 0.878-1.283 1.622-1.744 2.23-0.46 0.609-0.952 1.312-1.477 2.109-0.531 0.8-0.969 1.447-1.314 1.941v0c-0.683 0.95-1.236 2.073-1.661 3.369-0.427 1.29-0.465 2.404-0.115 3.34v0c-0.09 0.141-0.293 0.27-0.606 0.387v0c-0.27 0.101-0.536 0.147-0.798 0.137v0c-0.173-0.329-0.356-0.751-0.548-1.266v0c-0.451-1.206-0.746-2.348-0.884-3.427-0.141-1.085-0.175-1.982-0.103-2.689 0.07-0.713 0.287-1.482 0.652-2.305 0.359-0.821 0.681-1.453 0.966-1.896 0.285-0.443 0.716-1.052 1.293-1.826v0c0.298-0.391 0.682-0.895 1.151-1.515 0.468-0.626 0.837-1.122 1.108-1.488 0.265-0.364 0.545-0.755 0.84-1.173 0.288-0.416 0.498-0.755 0.628-1.018 0.127-0.255 0.192-0.455 0.195-0.599v0c-0.001-0.078-0.039-0.218-0.114-0.42v0c-0.082-0.22-0.321-0.256-0.717-0.107v0l-5.011 1.873c-1.25 0.467-2.222 0.931-2.916 1.391v0c-0.269 0.179-0.353 0.673-0.252 1.479 0.105 0.798 0.227 1.383 0.365 1.753v0c0.035 0.094-0.18 0.228-0.644 0.402v0c-0.295 0.11-0.528 0.169-0.697 0.175v0c-0.95-3.002-1.577-4.908-1.88-5.718v0l-2.237-5.294c0.065-0.132 0.258-0.258 0.578-0.378v0c0.49-0.183 0.752-0.228 0.788-0.133v0c0.11 0.295 0.368 0.725 0.772 1.29 0.411 0.562 0.726 0.842 0.946 0.838v0c0.622-0.061 1.73-0.389 3.326-0.986v0l13.923-5.205c1.35-0.505 2.28-0.938 2.789-1.301v0c0.175-0.144 0.263-0.589 0.263-1.333 0.001-0.745-0.049-1.252-0.15-1.522v0c-0.035-0.094 0.167-0.223 0.607-0.388v0c0.396-0.148 0.644-0.201 0.745-0.16v0c0.72 2.308 1.332 4.137 1.837 5.487v0c0.249 0.666 0.57 1.505 0.962 2.517 0.393 1.013 0.728 1.89 1.005 2.631zM46.364 199.887v0c0.614 0.976 1.724 2.678 3.33 5.105 1.606 2.427 2.807 4.274 3.603 5.54v0c-0.213 0.166-1.652 1.523-4.318 4.071v0c-0.185-0.042-0.402-0.262-0.652-0.659v0c-0.154-0.244-0.172-0.45-0.056-0.619v0c0.576-0.948 0.877-2.069 0.903-3.36 0.025-1.283-0.234-2.356-0.777-3.219v0l-0.798-1.268c-0.878-1.396-1.474-2.028-1.785-1.895v0c-0.605 0.222-1.506 0.71-2.704 1.464v0l-5.133 3.229c-0.131 0.082 0.104 0.6 0.704 1.553v0l1.114 1.771c0.864 1.373 1.381 2.101 1.552 2.184v0c0.159 0.051 0.537-0.065 1.136-0.347v0c0.363-0.165 0.725-0.302 1.085-0.409v0c0.173-0.077 0.358 0.04 0.555 0.352v0c0.236 0.375 0.332 0.654 0.29 0.839v0l-6.291 3.958c-0.148-0.034-0.34-0.238-0.575-0.612v0c-0.182-0.289-0.204-0.525-0.065-0.708v0c0.253-0.278 0.471-0.522 0.655-0.733 0.178-0.207 0.307-0.368 0.387-0.481 0.089-0.111 0.157-0.222 0.207-0.332 0.055-0.114 0.087-0.189 0.095-0.227 0.008-0.037 0.008-0.1-0.001-0.189-0.005-0.084-0.006-0.142-0.003-0.176v0c0-0.404-0.454-1.326-1.361-2.768v0c-1.007-1.6-1.609-2.338-1.808-2.213v0l-5.134 3.229c-1.061 0.668-1.79 1.253-2.186 1.756v0c-0.29 0.333 0.005 1.197 0.883 2.593v0l0.546 0.868c0.868 1.379 1.939 2.44 3.214 3.183v0c0.438 0.255 1.085 0.446 1.941 0.573 0.856 0.127 1.711 0.108 2.565-0.058v0c0.145-0.059 0.306 0.053 0.485 0.337v0c0.336 0.533 0.481 0.909 0.436 1.128v0c-3.75 0.838-6.037 1.441-6.859 1.807v0c-0.714-1.135-1.823-2.948-3.327-5.44-1.504-2.492-2.738-4.504-3.702-6.036v0l-3.262-4.732c0.037-0.142 0.201-0.304 0.49-0.486v0c0.443-0.278 0.691-0.375 0.745-0.29v0c0.168 0.267 0.507 0.636 1.017 1.106 0.516 0.468 0.881 0.677 1.096 0.629v0c0.596-0.185 1.615-0.731 3.057-1.638v0l12.582-7.915c1.22-0.768 2.043-1.38 2.468-1.837v0c0.142-0.177 0.139-0.63-0.011-1.359-0.15-0.729-0.302-1.216-0.455-1.461v0c-0.054-0.085 0.118-0.253 0.515-0.502v0c0.358-0.225 0.59-0.328 0.698-0.308v0c1.004 1.848 1.974 3.515 2.909 5.002zM49.44 216.882v0c1.465-1.309 3.298-1.777 5.5-1.406 2.196 0.376 3.994 1.346 5.391 2.911v0c0.366 0.41 0.716 0.862 1.049 1.356 0.338 0.489 0.613 0.913 0.826 1.271 0.208 0.354 0.491 0.856 0.848 1.508 0.352 0.656 0.637 1.166 0.854 1.53v0c-1.703 1.908-3.23 3.465-4.58 4.671v0c-0.266 0.094-0.496 0.034-0.688-0.182v0c-0.505-0.565-0.705-0.93-0.601-1.095v0c0.855-1.006 1.412-2.259 1.673-3.759 0.26-1.5-0.072-2.768-0.997-3.803v0c-0.594-0.665-1.302-1.045-2.122-1.138-0.821-0.094-1.681 0.261-2.582 1.065v0c-0.39 0.348-0.685 0.788-0.886 1.318-0.191 0.531-0.279 1.198-0.262 2.001 0.021 0.808 0.066 1.447 0.134 1.916 0.063 0.474 0.177 1.235 0.341 2.285v0c0.041 0.278 0.074 0.491 0.099 0.639v0c0.048 0.245 0.141 0.742 0.279 1.49 0.143 0.754 0.233 1.298 0.271 1.632 0.038 0.335 0.053 0.834 0.044 1.499-0.008 0.655-0.102 1.21-0.279 1.665-0.173 0.451-0.456 0.979-0.852 1.583-0.399 0.6-0.912 1.178-1.536 1.737v0c-1.565 1.398-3.437 1.91-5.614 1.535-2.177-0.375-4.017-1.402-5.518-3.082v0c-1.38-1.545-2.784-3.631-4.212-6.257v0c0.482-0.718 1.201-1.635 2.156-2.749 0.956-1.114 1.658-1.872 2.109-2.274v0c0.244-0.119 0.498-0.031 0.761 0.264v0c0.54 0.605 0.76 0.971 0.658 1.098v0c-0.757 0.964-1.222 2.26-1.395 3.889-0.178 1.633 0.178 2.947 1.067 3.942v0c1.733 1.94 3.665 1.959 5.795 0.057v0c0.335-0.299 0.582-0.682 0.741-1.148 0.169-0.465 0.252-1.011 0.249-1.639-0.002-0.636-0.026-1.177-0.072-1.621-0.051-0.449-0.144-1.062-0.281-1.839-0.127-0.776-0.203-1.279-0.228-1.509v0c-0.03-0.144-0.064-0.379-0.103-0.703v0c-0.146-1.029-0.239-1.823-0.279-2.381-0.049-0.558-0.043-1.256 0.019-2.093 0.057-0.842 0.271-1.599 0.641-2.272 0.37-0.663 0.897-1.3 1.582-1.912zM71.031 228.811c1.345 1.153 2.452 2.068 3.318 2.744 0.872 0.681 2.033 1.537 3.483 2.567 1.455 1.034 2.619 1.892 3.49 2.573v0c0.513 0.4 1.312 0.842 2.398 1.325v0l-3.38 5.553c-0.259 0.027-0.616-0.137-1.07-0.492v0c-0.185-0.144-0.249-0.275-0.192-0.392v0c1.083-2.455 0.78-4.342-0.911-5.663v0c-1.675-1.308-2.701-1.808-3.079-1.499v0c-0.614 0.448-1.414 1.304-2.4 2.567v0l-8.735 11.183c-0.809 1.036-1.381 1.937-1.717 2.705v0c-0.073 0.181 0.082 0.57 0.467 1.168 0.384 0.598 0.668 0.969 0.853 1.113v0c0.085 0.066-0.026 0.295-0.331 0.686v0c-0.194 0.248-0.362 0.419-0.503 0.513v0c-0.148-0.116-0.736-0.643-1.764-1.582-1.028-0.939-1.811-1.619-2.35-2.039v0c-0.555-0.433-1.4-1.034-2.536-1.802-1.13-0.764-1.849-1.249-2.156-1.455v0c-0.013-0.146 0.077-0.344 0.271-0.592v0c0.338-0.433 0.537-0.627 0.595-0.582v0c0.227 0.177 0.678 0.389 1.353 0.636 0.679 0.241 1.112 0.303 1.298 0.184v0c0.581-0.439 1.276-1.177 2.085-2.212v0l8.76-11.216c1.259-1.612 1.917-2.629 1.975-3.051v0c0.041-0.172 0.054-0.303 0.038-0.392-0.012-0.094-0.184-0.331-0.517-0.71-0.333-0.379-0.872-0.86-1.618-1.442v0c-0.851-0.664-1.725-0.973-2.621-0.924-0.902 0.044-1.928 0.502-3.077 1.374v0c-0.1 0.084-0.242 0.054-0.427-0.091v0c-0.454-0.355-0.697-0.659-0.728-0.913v0l4.536-4.599c0.731 0.937 1.356 1.608 1.874 2.012v0c0.867 0.677 1.973 1.592 3.318 2.745zM92.665 244.879v0c-1.248-0.607-2.505-0.659-3.771-0.156-1.269 0.509-2.381 1.347-3.337 2.515-0.962 1.165-1.855 2.595-2.678 4.289v0c-0.586 1.206-1.051 2.445-1.394 3.717-0.346 1.278-0.562 2.59-0.65 3.934-0.078 1.341 0.147 2.573 0.675 3.695 0.537 1.119 1.384 1.959 2.542 2.522v0c1.767 0.859 3.526 0.607 5.277-0.755 1.757-1.36 3.272-3.348 4.545-5.965v0c0.63-1.296 1.131-2.578 1.501-3.844 0.37-1.267 0.594-2.555 0.672-3.867 0.088-1.314-0.148-2.51-0.705-3.586-0.554-1.067-1.447-1.9-2.677-2.499zM76.208 259.701c-1.09-3.416-0.832-6.775 0.775-10.079 1.604-3.298 4.089-5.579 7.455-6.843 3.372-1.26 6.613-1.134 9.724 0.379 3.111 1.513 5.218 3.988 6.321 7.424 1.096 3.433 0.842 6.799-0.762 10.098-1.607 3.304-4.096 5.579-7.468 6.824-3.378 1.243-6.622 1.107-9.734-0.405-3.111-1.513-5.215-3.979-6.311-7.398zM113.939 252.791v0c-0.893-0.214-1.504-0.254-1.833-0.119-0.33 0.141-0.784 1.356-1.361 3.645v0l-0.99 4.127c-0.092 0.385-0.12 0.702-0.084 0.952 0.037 0.25 0.13 0.448 0.281 0.595 0.153 0.14 0.304 0.242 0.455 0.306 0.144 0.062 0.33 0.12 0.557 0.175v0l1.037 0.249c0.998 0.239 1.874-0.009 2.63-0.745 0.756-0.736 1.305-1.817 1.647-3.245v0c0.813-3.39 0.034-5.37-2.339-5.94zM115.02 250.827v0c0.867 0.208 1.744 0.532 2.632 0.973 0.892 0.449 1.756 1.014 2.592 1.697 0.829 0.682 1.445 1.536 1.846 2.564 0.402 1.027 0.462 2.128 0.181 3.301v0c-0.41 1.708-1.264 3.082-2.562 4.122-1.303 1.032-2.574 1.603-3.813 1.712v0c-0.219 0.023-0.292 0.154-0.219 0.393v0c0.335 1.073 0.627 1.971 0.875 2.692 0.248 0.721 0.555 1.523 0.923 2.403 0.366 0.888 0.658 1.613 0.874 2.175v0c0.406 1.097 1.027 2.184 1.866 3.261 0.831 1.075 1.733 1.729 2.704 1.963v0c0.067 0.154 0.061 0.394-0.018 0.719v0c-0.067 0.28-0.178 0.526-0.332 0.738v0c-0.37-0.04-0.822-0.125-1.356-0.253v0c-1.252-0.3-2.364-0.695-3.336-1.183-0.979-0.49-1.741-0.962-2.287-1.418-0.552-0.457-1.068-1.066-1.547-1.829-0.48-0.757-0.825-1.377-1.032-1.862-0.208-0.484-0.471-1.182-0.791-2.092v0c-0.157-0.465-0.361-1.066-0.612-1.802-0.257-0.738-0.462-1.321-0.614-1.751-0.154-0.423-0.321-0.873-0.504-1.351-0.183-0.471-0.348-0.835-0.493-1.091-0.141-0.247-0.27-0.413-0.388-0.496v0c-0.065-0.043-0.203-0.09-0.411-0.14v0c-0.228-0.055-0.392 0.123-0.49 0.534v0l-1.248 5.203c-0.311 1.297-0.47 2.362-0.477 3.195v0c-0.002 0.324 0.36 0.669 1.085 1.036 0.721 0.359 1.273 0.585 1.658 0.677v0c0.098 0.023 0.089 0.276-0.027 0.759v0c-0.074 0.306-0.155 0.532-0.245 0.676v0c-3.02-0.89-4.951-1.436-5.791-1.638v0l-5.641-1.106c-0.073-0.128-0.069-0.358 0.011-0.69v0c0.122-0.509 0.232-0.751 0.329-0.728v0c0.306 0.074 0.807 0.1 1.501 0.081 0.696-0.026 1.104-0.132 1.224-0.316v0c0.297-0.549 0.645-1.652 1.042-3.308v0l3.468-14.454c0.336-1.402 0.497-2.415 0.481-3.04v0c-0.022-0.226-0.341-0.547-0.958-0.964-0.617-0.417-1.066-0.659-1.346-0.726v0c-0.098-0.023-0.092-0.263 0.018-0.72v0c0.099-0.411 0.193-0.647 0.283-0.708v0c2.316 0.694 4.175 1.209 5.577 1.545v0c0.691 0.166 1.566 0.369 2.625 0.61 1.059 0.24 1.974 0.453 2.743 0.637zM142.63 278.468v0c0.577 0.004 1.167-0.117 1.773-0.361 0.605-0.244 0.909-0.578 0.911-1v0c0-0.054-0.323-0.934-0.969-2.641v0l-1.158-2.874c-0.107-0.108-0.197-0.162-0.27-0.163v0c-0.503-0.03-1.763-0.051-3.782-0.064v0c-1.73-0.011-3.054-0.006-3.972 0.015v0c-0.101-0.001-0.192 0.066-0.273 0.199v0c0 0-0.439 0.993-1.317 2.979v0c-0.53 1.177-0.797 1.973-0.799 2.388-0.003 0.422 0.23 0.752 0.697 0.99 0.468 0.238 0.879 0.378 1.235 0.421 0.355 0.042 0.663 0.065 0.925 0.066v0c0.08 0.027 0.119 0.239 0.116 0.634-0.002 0.389-0.031 0.664-0.085 0.824v0c-0.342-0.029-1.029-0.094-2.061-0.194-1.039-0.1-1.886-0.153-2.544-0.157-0.65-0.004-1.435 0.038-2.354 0.126-0.919 0.088-1.627 0.144-2.123 0.168v0c-0.107-0.108-0.159-0.306-0.157-0.595v0c0.004-0.55 0.032-0.825 0.086-0.824v0c0.315 0.002 0.839-0.132 1.571-0.402 0.739-0.27 1.2-0.549 1.383-0.836v0c0.21-0.314 0.43-0.701 0.661-1.163 0.224-0.455 0.401-0.826 0.531-1.113v0l0.204-0.471 8.816-19.918c0.293-0.682 0.781-1.021 1.465-1.017v0c0.396 0.003 0.71 0.175 0.942 0.519v0l7.929 19.985c0.495 1.21 0.921 2.289 1.277 3.236v0c0.158 0.417 0.589 0.741 1.291 0.974 0.709 0.226 1.248 0.34 1.617 0.342v0c0.101 0.001 0.149 0.222 0.146 0.665-0.003 0.449-0.028 0.714-0.075 0.794v0c-0.107-0.001-0.915-0.059-2.423-0.176-1.508-0.117-2.6-0.177-3.277-0.182v0c-0.188-0.001-2.17 0.093-5.946 0.284v0c-0.107-0.108-0.159-0.38-0.156-0.816 0.003-0.429 0.058-0.643 0.165-0.642zM136.245 268.872v0c0.784 0.079 1.753 0.122 2.905 0.129v0c1.053 0.007 1.985-0.011 2.797-0.052v0l0.122-0.201-2.792-7.058-3.112 7.021c-0.001 0.107 0.026 0.161 0.08 0.161zM176.201 263.489l-2.009-9.022c-0.325-1.459-0.698-2.345-1.118-2.657v0c-0.292-0.23-0.83-0.378-1.613-0.444-0.777-0.067-1.32-0.067-1.628 0.002v0c-0.105 0.023-0.218-0.175-0.338-0.594-0.119-0.413-0.152-0.681-0.097-0.803v0c2.403-0.315 4.114-0.587 5.136-0.814v0c0.641-0.143 1.508-0.384 2.6-0.724 1.092-0.339 1.789-0.557 2.091-0.651v0c0.151 0.186 0.255 0.407 0.312 0.662v0c0.108 0.484 0.096 0.741-0.034 0.77v0c-1.407 0.313-2.373 0.972-2.899 1.975v0c-0.262 0.519-0.234 1.491 0.083 2.918v0l3.25 14.587c0.206 0.923 0.657 2.704 1.355 5.345v0c-0.081 0.128-0.39 0.252-0.927 0.371v0c-0.308 0.069-0.769-0.138-1.384-0.619v0l-19.956-15.945 3.276 14.705c0.313 1.407 0.617 2.291 0.91 2.651v0c0.327 0.387 0.942 0.607 1.847 0.66 0.898 0.054 1.537 0.039 1.917-0.045v0c0.079-0.017 0.173 0.192 0.284 0.627 0.109 0.429 0.149 0.702 0.12 0.818v0c-0.229 0.051-0.997 0.167-2.303 0.348-1.299 0.18-2.283 0.344-2.95 0.492-0.668 0.149-1.502 0.383-2.502 0.702-1.001 0.319-1.73 0.543-2.189 0.673v0c-0.096-0.061-0.187-0.285-0.273-0.671v0c-0.108-0.484-0.123-0.735-0.044-0.752v0c0.255-0.057 0.544-0.149 0.866-0.276 0.322-0.127 0.711-0.368 1.168-0.723 0.457-0.356 0.76-0.753 0.909-1.192v0c0.165-0.463 0.085-1.424-0.241-2.883v0l-3.361-15.088c-0.296-1.329-0.692-2.195-1.187-2.6v0c-0.164-0.149-0.646-0.2-1.445-0.152-0.795 0.04-1.372 0.1-1.732 0.179v0c-0.105 0.023-0.214-0.176-0.329-0.596-0.119-0.413-0.142-0.683-0.067-0.809v0c0.418-0.066 1.246-0.188 2.484-0.368 1.231-0.178 2.18-0.341 2.848-0.49v0c0.87-0.194 2.1-0.578 3.689-1.152v0c0.632 0.773 1.764 1.843 3.395 3.211 1.638 1.373 3.726 3.051 6.263 5.034 2.538 1.99 4.57 3.632 6.095 4.928v0c0.013-0.188-0.077-0.718-0.272-1.588zM184.497 244.888c1.633-0.687 2.946-1.267 3.94-1.739 0.999-0.475 2.284-1.13 3.854-1.965 1.576-0.838 2.864-1.495 3.863-1.97v0c0.587-0.279 1.34-0.796 2.258-1.552v0l3.453 5.508c-0.092 0.244-0.398 0.49-0.919 0.738v0c-0.212 0.101-0.357 0.099-0.437-0.004v0c-1.71-2.068-3.534-2.641-5.472-1.72v0c-1.92 0.912-2.826 1.606-2.718 2.082v0c0.126 0.749 0.533 1.848 1.221 3.295v0l6.091 12.817c0.564 1.187 1.114 2.102 1.65 2.746v0c0.129 0.147 0.547 0.182 1.253 0.106 0.706-0.076 1.165-0.164 1.377-0.265v0c0.097-0.046 0.252 0.155 0.465 0.603v0c0.135 0.285 0.213 0.511 0.234 0.679v0c-0.17 0.081-0.904 0.37-2.204 0.869-1.3 0.499-2.258 0.895-2.876 1.189v0c-0.636 0.302-1.551 0.789-2.746 1.461-1.189 0.669-1.944 1.095-2.266 1.277v0c-0.137-0.054-0.273-0.223-0.408-0.507v0c-0.236-0.497-0.321-0.761-0.254-0.792v0c0.26-0.124 0.652-0.432 1.175-0.926 0.52-0.499 0.768-0.859 0.745-1.078v0c-0.133-0.716-0.481-1.668-1.045-2.855v0l-6.108-12.854c-0.878-1.847-1.493-2.891-1.845-3.132v0c-0.136-0.114-0.247-0.183-0.333-0.209-0.089-0.032-0.378 0.016-0.867 0.145-0.488 0.128-1.16 0.395-2.013 0.801v0c-0.975 0.463-1.642 1.107-2 1.93-0.364 0.826-0.414 1.949-0.148 3.367v0c0.03 0.127-0.06 0.24-0.273 0.341v0c-0.521 0.248-0.902 0.328-1.143 0.242v0l-2.082-6.114c1.165-0.235 2.045-0.493 2.638-0.775v0c0.993-0.472 2.306-1.052 3.94-1.739zM229.738 230.906l-6.175-6.877c-0.999-1.113-1.758-1.702-2.276-1.768v0c-0.367-0.058-0.909 0.077-1.624 0.404-0.711 0.323-1.183 0.589-1.418 0.8v0c-0.08 0.072-0.275-0.046-0.586-0.352-0.307-0.301-0.466-0.519-0.478-0.652v0c1.939-1.453 3.298-2.529 4.077-3.228v0c0.489-0.439 1.126-1.074 1.911-1.905 0.785-0.831 1.286-1.362 1.503-1.593v0c0.223 0.088 0.422 0.229 0.597 0.424v0c0.331 0.369 0.447 0.599 0.347 0.688v0c-1.073 0.963-1.592 2.011-1.557 3.142v0c0.026 0.581 0.527 1.415 1.503 2.503v0l9.984 11.12c0.632 0.703 1.899 2.035 3.802 3.993v0c-0.008 0.151-0.217 0.411-0.626 0.779v0c-0.234 0.211-0.738 0.257-1.51 0.139v0l-25.211-4.113 10.066 11.21c0.963 1.073 1.661 1.694 2.093 1.865v0c0.475 0.177 1.119 0.067 1.933-0.33 0.809-0.393 1.359-0.72 1.648-0.98v0c0.06-0.054 0.245 0.082 0.555 0.407 0.306 0.32 0.474 0.538 0.506 0.654v0c-0.175 0.157-0.787 0.634-1.836 1.433-1.045 0.794-1.821 1.419-2.33 1.875-0.509 0.457-1.121 1.07-1.837 1.839-0.716 0.769-1.242 1.322-1.577 1.66v0c-0.114-0.006-0.303-0.156-0.567-0.451v0c-0.331-0.369-0.467-0.581-0.408-0.634v0c0.195-0.175 0.401-0.396 0.62-0.665 0.219-0.268 0.44-0.67 0.663-1.204 0.223-0.534 0.293-1.029 0.208-1.484v0c-0.083-0.484-0.624-1.282-1.623-2.395v0l-10.327-11.502c-0.909-1.013-1.679-1.574-2.31-1.684v0c-0.216-0.05-0.661 0.142-1.334 0.576-0.673 0.424-1.147 0.76-1.421 1.006v0c-0.08 0.072-0.273-0.048-0.579-0.358-0.307-0.301-0.458-0.526-0.456-0.673v0c0.332-0.262 0.994-0.775 1.985-1.538 0.986-0.759 1.733-1.367 2.242-1.824v0c0.664-0.596 1.547-1.533 2.651-2.813v0c0.93 0.363 2.441 0.741 4.532 1.134 2.101 0.393 4.743 0.832 7.927 1.317 3.188 0.49 5.764 0.925 7.728 1.307v0c-0.081-0.171-0.419-0.588-1.015-1.252zM226.632 212.476v0c0.296-0.431 1.267-1.989 2.912-4.673v0c0.239 0.066 0.458 0.168 0.658 0.304v0c0.409 0.281 0.583 0.465 0.522 0.554v0c-0.133 0.194-0.309 0.646-0.528 1.357-0.216 0.706-0.261 1.134-0.137 1.284v0c0.478 0.547 1.345 1.252 2.6 2.113v0l7.688 5.273c1.991 1.365 3.898 2.015 5.724 1.951 1.825-0.065 3.265-0.866 4.319-2.404v0c1.096-1.598 1.471-3.271 1.127-5.02-0.345-1.749-1.748-3.467-4.209-5.155v0l-7.721-5.296c-1.233-0.846-2.109-1.239-2.629-1.182v0c-0.37 0.03-0.865 0.289-1.483 0.776-0.614 0.481-1.011 0.851-1.19 1.111v0c-0.061 0.088-0.278 0.021-0.652-0.204-0.369-0.221-0.575-0.394-0.618-0.521v0c1.542-1.869 2.609-3.235 3.2-4.098v0c0.372-0.542 0.841-1.309 1.409-2.302 0.567-0.993 0.929-1.627 1.085-1.902v0c0.238 0.033 0.464 0.123 0.68 0.271v0c0.409 0.281 0.576 0.476 0.5 0.587v0c-0.815 1.189-1.073 2.329-0.773 3.421v0c0.162 0.558 0.845 1.251 2.05 2.077v0l7.398 5.075c3.157 2.166 5.015 4.578 5.573 7.237 0.567 2.658 0.005 5.219-1.686 7.685v0c-1.809 2.637-4.085 4.19-6.829 4.658-2.742 0.477-5.885-0.5-9.429-2.931v0l-6.842-4.693c-1.388-0.952-2.29-1.445-2.706-1.478v0c-0.253-0.011-0.641 0.17-1.165 0.543-0.52 0.367-0.863 0.672-1.03 0.915v0c-0.057 0.083-0.268-0.001-0.633-0.251v0c-0.393-0.269-0.596-0.441-0.61-0.516v0c2.177-2.889 3.318-4.411 3.425-4.566zM243.761 186.631v0c-0.337 0.854-0.462 1.454-0.374 1.799 0.094 0.347 1.233 0.966 3.419 1.857v0l3.948 1.557c0.368 0.145 0.678 0.217 0.931 0.216 0.253-0.001 0.462-0.066 0.628-0.195 0.16-0.131 0.282-0.267 0.366-0.407 0.082-0.134 0.165-0.31 0.252-0.528v0l0.391-0.991c0.377-0.954 0.253-1.857-0.37-2.708-0.623-0.851-1.617-1.546-2.983-2.086v0c-3.243-1.28-5.313-0.784-6.208 1.486zM241.967 185.286v0c0.327-0.83 0.771-1.653 1.332-2.47 0.569-0.821 1.25-1.597 2.043-2.329 0.791-0.726 1.723-1.216 2.797-1.47 1.073-0.254 2.171-0.16 3.293 0.283v0c1.634 0.645 2.875 1.682 3.724 3.113 0.84 1.434 1.227 2.773 1.162 4.016v0c-0.008 0.22 0.112 0.311 0.358 0.27v0c1.11-0.182 2.039-0.345 2.788-0.489 0.749-0.144 1.585-0.337 2.509-0.577 0.93-0.238 1.689-0.426 2.276-0.562v0c1.143-0.248 2.306-0.712 3.489-1.391 1.181-0.673 1.955-1.474 2.322-2.403v0c0.162-0.044 0.398-0.005 0.71 0.118v0c0.268 0.106 0.496 0.25 0.684 0.432v0c-0.092 0.36-0.238 0.796-0.44 1.307v0c-0.472 1.197-1.019 2.243-1.639 3.138-0.622 0.901-1.197 1.589-1.723 2.066-0.529 0.483-1.205 0.908-2.028 1.276-0.816 0.37-1.479 0.624-1.987 0.762-0.509 0.138-1.236 0.301-2.183 0.49v0c-0.483 0.091-1.106 0.209-1.87 0.354-0.766 0.152-1.373 0.273-1.819 0.364-0.44 0.093-0.91 0.196-1.408 0.309-0.492 0.116-0.875 0.228-1.149 0.336-0.265 0.105-0.447 0.209-0.546 0.314v0c-0.052 0.059-0.117 0.188-0.196 0.388v0c-0.086 0.218 0.067 0.405 0.46 0.56v0l4.977 1.964c1.241 0.49 2.273 0.796 3.097 0.919v0c0.32 0.047 0.713-0.263 1.178-0.93 0.456-0.663 0.757-1.179 0.902-1.547v0c0.037-0.094 0.286-0.049 0.748 0.133v0c0.293 0.116 0.505 0.228 0.634 0.337v0c-1.304 2.866-2.115 4.701-2.431 5.506v0l-1.884 5.43c-0.137 0.054-0.364 0.019-0.682-0.107v0c-0.486-0.192-0.711-0.335-0.674-0.428v0c0.116-0.293 0.212-0.785 0.29-1.475 0.071-0.693 0.024-1.111-0.142-1.256v0c-0.502-0.371-1.545-0.869-3.13-1.494v0l-13.827-5.456c-1.341-0.529-2.322-0.83-2.942-0.902v0c-0.227-0.01-0.59 0.261-1.089 0.814-0.499 0.553-0.802 0.963-0.907 1.231v0c-0.037 0.094-0.274 0.054-0.711-0.118v0c-0.393-0.155-0.613-0.282-0.661-0.379v0c1.011-2.196 1.781-3.965 2.31-5.306v0c0.261-0.661 0.584-1.499 0.971-2.515 0.386-1.015 0.724-1.891 1.014-2.626z" fill="#ffffff" data-fill-palette-color="primary"></path><path d="M9.728 94.928V94.928C9.406 95.789 9.292 96.39 9.386 96.733 9.486 97.078 10.636 97.677 12.838 98.528V98.528L16.813 100.014C17.183 100.153 17.495 100.219 17.748 100.214 18 100.208 18.209 100.139 18.373 100.007 18.53 99.873 18.65 99.735 18.731 99.593 18.81 99.458 18.891 99.281 18.973 99.061V99.061L19.346 98.063C19.706 97.102 19.566 96.201 18.928 95.362 18.29 94.522 17.283 93.845 15.908 93.331V93.331C12.642 92.11 10.582 92.642 9.728 94.928ZM7.91 93.615V93.615C8.222 92.78 8.651 91.949 9.196 91.122 9.75 90.291 10.417 89.503 11.197 88.756 11.975 88.016 12.898 87.51 13.967 87.236 15.035 86.963 16.135 87.037 17.265 87.46V87.46C18.911 88.075 20.171 89.09 21.045 90.505 21.91 91.924 22.321 93.255 22.279 94.499V94.499C22.275 94.719 22.396 94.808 22.641 94.763V94.763C23.748 94.561 24.674 94.382 25.42 94.224 26.166 94.066 26.999 93.859 27.918 93.601 28.844 93.346 29.599 93.145 30.184 92.998V92.998C31.322 92.73 32.477 92.245 33.648 91.545 34.816 90.851 35.576 90.036 35.925 89.1V89.1C36.086 89.053 36.324 89.088 36.638 89.205V89.205C36.908 89.306 37.138 89.446 37.329 89.625V89.625C37.244 89.987 37.105 90.425 36.912 90.94V90.94C36.462 92.146 35.935 93.201 35.331 94.107 34.726 95.019 34.164 95.717 33.645 96.204 33.125 96.696 32.457 97.134 31.641 97.516 30.831 97.9 30.174 98.166 29.668 98.314 29.162 98.461 28.437 98.637 27.494 98.843V98.843C27.013 98.942 26.392 99.072 25.631 99.231 24.868 99.397 24.264 99.529 23.819 99.627 23.38 99.728 22.913 99.84 22.416 99.962 21.926 100.086 21.545 100.205 21.273 100.318 21.011 100.428 20.831 100.536 20.733 100.643V100.643C20.682 100.702 20.619 100.833 20.544 101.034V101.034C20.462 101.253 20.619 101.437 21.014 101.585V101.585L26.026 103.459C27.276 103.926 28.314 104.214 29.139 104.322V104.322C29.46 104.363 29.847 104.046 30.3 103.371 30.744 102.7 31.036 102.179 31.174 101.808V101.808C31.21 101.714 31.46 101.754 31.924 101.927V101.927C32.219 102.038 32.433 102.146 32.565 102.253V102.253C31.313 105.142 30.536 106.992 30.233 107.802V107.802L28.448 113.265C28.312 113.322 28.084 113.29 27.764 113.171V113.171C27.274 112.987 27.047 112.849 27.082 112.755V112.755C27.192 112.459 27.28 111.966 27.345 111.275 27.404 110.581 27.349 110.163 27.18 110.021V110.021C26.672 109.659 25.619 109.18 24.024 108.584V108.584L10.101 103.378C8.751 102.873 7.765 102.591 7.143 102.53V102.53C6.916 102.524 6.558 102.802 6.069 103.363 5.58 103.925 5.285 104.341 5.184 104.611V104.611C5.149 104.705 4.912 104.67 4.472 104.506V104.506C4.076 104.358 3.854 104.235 3.804 104.138V104.138C4.775 101.924 5.513 100.142 6.018 98.792V98.792C6.267 98.126 6.575 97.282 6.943 96.26 7.31 95.238 7.633 94.356 7.91 93.615ZM18.803 70.317V70.317C19.417 69.341 20.471 67.604 21.963 65.105 23.456 62.606 24.601 60.724 25.397 59.458V59.458C25.638 59.578 27.484 60.289 30.936 61.589V61.589C30.978 61.773 30.874 62.065 30.624 62.462V62.462C30.471 62.706 30.293 62.812 30.092 62.78V62.78C28.987 62.672 27.847 62.885 26.671 63.42 25.504 63.954 24.649 64.651 24.106 65.514V65.514L23.308 66.783C22.43 68.179 22.118 68.989 22.374 69.213V69.213C22.836 69.662 23.666 70.263 24.863 71.016V71.016L29.996 74.245C30.127 74.327 30.492 73.892 31.092 72.938V72.938L32.206 71.168C33.07 69.794 33.502 69.013 33.502 68.823V68.823C33.479 68.658 33.211 68.366 32.698 67.949V67.949C32.392 67.692 32.112 67.425 31.859 67.148V67.148C31.715 67.025 31.74 66.808 31.937 66.495V66.495C32.172 66.121 32.383 65.912 32.568 65.87V65.87L38.859 69.828C38.892 69.976 38.791 70.237 38.556 70.612V70.612C38.374 70.901 38.17 71.023 37.946 70.977V70.977C37.586 70.869 37.271 70.778 37.001 70.703 36.737 70.632 36.537 70.585 36.4 70.563 36.262 70.531 36.132 70.517 36.011 70.52 35.885 70.52 35.803 70.524 35.766 70.532 35.729 70.54 35.672 70.568 35.595 70.615 35.522 70.656 35.47 70.682 35.438 70.694V70.694C35.075 70.869 34.439 71.678 33.533 73.119V73.119C32.526 74.72 32.122 75.582 32.32 75.707V75.707L37.454 78.936C38.515 79.604 39.358 80.008 39.983 80.147V80.147C40.408 80.265 41.06 79.625 41.939 78.229V78.229L42.485 77.361C43.352 75.981 43.845 74.557 43.962 73.086V73.086C44.003 72.581 43.895 71.915 43.638 71.088 43.382 70.261 42.995 69.499 42.476 68.8V68.8C42.359 68.695 42.39 68.501 42.569 68.217V68.217C42.905 67.684 43.18 67.39 43.397 67.336V67.336C45.776 70.353 47.309 72.153 47.996 72.736V72.736C47.282 73.871 46.127 75.656 44.533 78.09 42.938 80.525 41.658 82.508 40.694 84.041V84.041L37.841 89.03C37.697 89.058 37.48 88.981 37.19 88.799V88.799C36.748 88.521 36.553 88.339 36.607 88.254V88.254C36.774 87.987 36.96 87.522 37.164 86.858 37.362 86.19 37.393 85.77 37.256 85.597V85.597C36.831 85.139 35.898 84.457 34.456 83.55V83.55L21.874 75.635C20.654 74.868 19.746 74.391 19.149 74.206V74.206C18.928 74.154 18.522 74.354 17.929 74.805 17.336 75.256 16.963 75.604 16.81 75.848V75.848C16.756 75.933 16.531 75.85 16.133 75.6V75.6C15.776 75.375 15.583 75.21 15.554 75.105V75.105C16.785 73.4 17.868 71.804 18.803 70.317ZM35.303 57.653V57.653C33.838 56.345 33.166 54.576 33.287 52.347 33.413 50.122 34.175 48.227 35.573 46.662V46.662C35.939 46.252 36.349 45.854 36.802 45.467 37.25 45.076 37.64 44.755 37.973 44.504 38.301 44.257 38.768 43.92 39.376 43.491 39.988 43.067 40.463 42.727 40.8 42.471V42.471C42.887 43.948 44.606 45.29 45.956 46.496V46.496C46.079 46.75 46.045 46.985 45.853 47.2V47.2C45.349 47.765 45.008 48.005 44.833 47.92V47.92C43.737 47.184 42.429 46.771 40.909 46.681 39.389 46.591 38.167 47.064 37.243 48.099V48.099C36.649 48.764 36.351 49.51 36.35 50.336 36.349 51.162 36.799 51.978 37.699 52.781V52.781C38.089 53.13 38.559 53.374 39.108 53.514 39.657 53.644 40.329 53.656 41.126 53.55 41.927 53.438 42.557 53.322 43.015 53.201 43.479 53.085 44.222 52.886 45.246 52.605V52.605C45.518 52.533 45.726 52.476 45.871 52.434V52.434C46.109 52.359 46.592 52.211 47.32 51.989 48.053 51.763 48.583 51.612 48.911 51.536 49.24 51.461 49.734 51.39 50.395 51.324 51.047 51.259 51.609 51.289 52.081 51.414 52.549 51.535 53.105 51.758 53.75 52.082 54.391 52.412 55.024 52.856 55.649 53.414V53.414C57.214 54.812 57.933 56.614 57.806 58.82 57.679 61.025 56.865 62.968 55.364 64.649V64.649C53.984 66.194 52.069 67.824 49.621 69.538V69.538C48.853 69.14 47.862 68.529 46.647 67.705 45.432 66.88 44.6 66.267 44.15 65.865V65.865C44.004 65.636 44.063 65.374 44.326 65.079V65.079C44.867 64.474 45.206 64.215 45.344 64.302V64.302C46.387 64.946 47.727 65.262 49.365 65.251 51.007 65.243 52.273 64.742 53.162 63.747V63.747C54.895 61.807 54.696 59.885 52.566 57.983V57.983C52.231 57.683 51.823 57.481 51.342 57.375 50.861 57.26 50.309 57.239 49.686 57.312 49.054 57.386 48.52 57.47 48.084 57.566 47.643 57.667 47.044 57.829 46.288 58.052 45.53 58.266 45.039 58.398 44.814 58.449V58.449C44.674 58.495 44.445 58.555 44.126 58.63V58.63C43.12 58.891 42.342 59.073 41.792 59.175 41.243 59.287 40.549 59.359 39.71 59.392 38.867 59.43 38.091 59.303 37.381 59.011 36.681 58.718 35.988 58.265 35.303 57.653ZM51.331 32.573C52.776 31.547 53.931 30.695 54.798 30.019 55.67 29.338 56.781 28.419 58.132 27.261 59.488 26.1 60.602 25.179 61.474 24.498V24.498C61.986 24.098 62.608 23.429 63.34 22.492V22.492L67.909 27.116C67.872 27.375 67.627 27.681 67.172 28.036V28.036C66.987 28.181 66.845 28.211 66.745 28.127V28.127C64.626 26.481 62.721 26.319 61.03 27.639V27.639C59.355 28.948 58.622 29.822 58.83 30.264V30.264C59.116 30.967 59.753 31.951 60.739 33.214V33.214L69.474 44.398C70.283 45.433 71.019 46.207 71.682 46.718V46.718C71.84 46.833 72.255 46.777 72.928 46.549 73.601 46.321 74.03 46.135 74.215 45.991V45.991C74.299 45.925 74.494 46.087 74.8 46.478V46.478C74.994 46.727 75.119 46.931 75.176 47.091V47.091C75.028 47.206 74.374 47.649 73.214 48.419 72.054 49.188 71.205 49.784 70.666 50.205V50.205C70.111 50.638 69.324 51.313 68.303 52.228 67.288 53.14 66.644 53.72 66.37 53.968V53.968C66.225 53.946 66.055 53.81 65.861 53.562V53.562C65.522 53.129 65.382 52.889 65.44 52.844V52.844C65.668 52.666 65.983 52.28 66.385 51.685 66.784 51.084 66.949 50.679 66.879 50.47V50.47C66.593 49.799 66.046 48.946 65.237 47.911V47.911L56.478 36.695C55.219 35.083 54.392 34.198 53.995 34.04V34.04C53.838 33.958 53.715 33.914 53.625 33.908 53.531 33.897 53.259 34.007 52.81 34.238 52.362 34.469 51.765 34.876 51.02 35.458V35.458C50.169 36.122 49.658 36.896 49.488 37.777 49.312 38.663 49.508 39.769 50.076 41.095V41.095C50.133 41.212 50.069 41.343 49.884 41.488V41.488C49.43 41.842 49.075 42.004 48.821 41.973V41.973L45.458 36.458C46.545 35.975 47.347 35.532 47.865 35.127V35.127C48.731 34.451 49.887 33.599 51.331 32.573ZM80.772 16.16V16.16C79.524 16.767 78.707 17.724 78.321 19.03 77.938 20.342 77.91 21.735 78.239 23.208 78.562 24.683 79.135 26.269 79.959 27.963V27.963C80.546 29.169 81.233 30.299 82.022 31.355 82.814 32.416 83.712 33.396 84.716 34.294 85.723 35.184 86.83 35.767 88.039 36.045 89.25 36.313 90.435 36.165 91.592 35.602V35.602C93.359 34.743 94.247 33.204 94.257 30.985 94.272 28.763 93.643 26.344 92.371 23.727V23.727C91.74 22.431 91.041 21.246 90.273 20.173 89.505 19.1 88.63 18.128 87.647 17.257 86.667 16.376 85.582 15.823 84.391 15.597 83.209 15.374 82.003 15.562 80.772 16.16ZM82.27 38.257C78.911 37.006 76.427 34.728 74.82 31.424 73.216 28.126 72.956 24.763 74.041 21.335 75.131 17.905 77.232 15.433 80.343 13.92 83.454 12.407 86.702 12.277 90.085 13.532 93.463 14.79 95.954 17.067 97.558 20.366 99.165 23.67 99.417 27.033 98.315 30.454 97.207 33.878 95.097 36.347 91.986 37.86 88.875 39.373 85.636 39.506 82.27 38.257ZM108.372 6.47V6.47C107.479 6.684 106.916 6.926 106.684 7.196 106.454 7.471 106.601 8.76 107.126 11.061V11.061L108.116 15.188C108.208 15.573 108.327 15.868 108.473 16.075 108.619 16.281 108.793 16.415 108.994 16.477 109.193 16.533 109.375 16.555 109.537 16.543 109.694 16.533 109.886 16.501 110.114 16.446V16.446L111.151 16.198C112.148 15.958 112.817 15.339 113.156 14.341 113.496 13.342 113.494 12.129 113.152 10.701V10.701C112.338 7.311 110.745 5.901 108.372 6.47ZM108.444 4.229V4.229C109.311 4.021 110.24 3.912 111.231 3.902 112.229 3.896 113.256 4.009 114.311 4.238 115.359 4.469 116.295 4.951 117.119 5.685 117.943 6.418 118.496 7.371 118.778 8.545V8.545C119.188 10.253 119.05 11.865 118.366 13.38 117.674 14.891 116.8 15.976 115.745 16.636V16.636C115.56 16.757 115.554 16.906 115.728 17.085V17.085C116.514 17.889 117.181 18.557 117.729 19.087 118.277 19.618 118.915 20.192 119.642 20.811 120.371 21.435 120.96 21.949 121.408 22.352V22.352C122.267 23.146 123.315 23.832 124.55 24.411 125.779 24.992 126.879 25.166 127.85 24.933V24.933C127.979 25.04 128.083 25.256 128.161 25.582V25.582C128.229 25.863 128.242 26.132 128.2 26.39V26.39C127.852 26.522 127.411 26.652 126.877 26.78V26.78C125.625 27.08 124.455 27.233 123.367 27.239 122.272 27.247 121.379 27.172 120.686 27.014 119.986 26.858 119.25 26.548 118.477 26.086 117.706 25.629 117.118 25.233 116.713 24.895 116.308 24.558 115.756 24.056 115.058 23.389V23.389C114.707 23.046 114.253 22.604 113.695 22.062 113.131 21.521 112.684 21.094 112.354 20.78 112.025 20.473 111.671 20.148 111.292 19.804 110.915 19.467 110.603 19.218 110.357 19.056 110.12 18.9 109.93 18.811 109.787 18.79V18.79C109.709 18.781 109.565 18.802 109.357 18.852V18.852C109.129 18.906 109.064 19.139 109.162 19.55V19.55L110.411 24.753C110.722 26.05 111.064 27.071 111.435 27.817V27.817C111.581 28.106 112.06 28.249 112.873 28.247 113.678 28.24 114.273 28.191 114.658 28.098V28.098C114.755 28.075 114.862 28.304 114.978 28.787V28.787C115.052 29.093 115.081 29.331 115.066 29.5V29.5C111.971 30.077 110.003 30.467 109.162 30.669V30.669L103.634 32.243C103.511 32.162 103.41 31.956 103.33 31.623V31.623C103.208 31.115 103.196 30.849 103.294 30.825V30.825C103.6 30.752 104.058 30.549 104.668 30.216 105.276 29.877 105.592 29.598 105.615 29.379V29.379C105.631 28.754 105.44 27.614 105.043 25.958V25.958L101.574 11.504C101.238 10.102 100.921 9.126 100.624 8.577V8.577C100.502 8.386 100.072 8.244 99.333 8.153 98.594 8.061 98.084 8.049 97.804 8.116V8.116C97.706 8.14 97.602 7.923 97.493 7.467V7.467C97.394 7.056 97.371 6.803 97.424 6.708V6.708C99.803 6.275 101.693 5.89 103.094 5.554V5.554C103.785 5.388 104.658 5.172 105.711 4.905 106.764 4.639 107.675 4.413 108.444 4.229ZM144.161 24.961V24.961C144.738 24.957 145.327 24.83 145.929 24.578 146.53 24.326 146.83 23.989 146.827 23.566V23.566C146.827 23.513 146.493 22.636 145.825 20.938V20.938L144.63 18.079C144.522 17.972 144.431 17.919 144.357 17.92V17.92C143.854 17.896 142.594 17.891 140.576 17.904V17.904C138.846 17.915 137.522 17.936 136.604 17.969V17.969C136.503 17.97 136.413 18.037 136.333 18.172V18.172C136.333 18.172 135.907 19.17 135.055 21.167V21.167C134.539 22.35 134.283 23.15 134.286 23.566 134.288 23.988 134.525 24.315 134.996 24.547 135.467 24.778 135.88 24.913 136.236 24.951 136.591 24.989 136.9 25.007 137.161 25.006V25.006C137.242 25.032 137.283 25.243 137.286 25.639 137.288 26.027 137.263 26.302 137.211 26.464V26.464C136.869 26.439 136.181 26.383 135.148 26.296 134.108 26.209 133.26 26.167 132.603 26.171 131.952 26.175 131.168 26.227 130.25 26.327 129.332 26.427 128.625 26.492 128.129 26.522V26.522C128.021 26.415 127.966 26.218 127.965 25.929V25.929C127.961 25.379 127.986 25.104 128.04 25.104V25.104C128.355 25.102 128.877 24.961 129.606 24.682 130.342 24.402 130.799 24.118 130.978 23.828V23.828C131.184 23.512 131.4 23.121 131.625 22.657 131.843 22.2 132.015 21.827 132.141 21.538V21.538L132.339 21.064 140.901 1.035C141.185 0.349 141.669 0.004 142.353 0V0C142.748-0.003 143.064 0.166 143.301 0.507V0.507L151.484 20.389C151.994 21.592 152.434 22.666 152.802 23.609V23.609C152.965 24.023 153.4 24.342 154.105 24.566 154.817 24.783 155.358 24.89 155.727 24.887V24.887C155.827 24.887 155.879 25.108 155.882 25.55 155.884 25.999 155.863 26.264 155.816 26.345V26.345C155.709 26.346 154.901 26.297 153.392 26.2 151.882 26.102 150.789 26.055 150.112 26.06V26.06C149.924 26.061 147.944 26.181 144.17 26.419V26.419C144.062 26.313 144.007 26.042 144.004 25.606 144.001 25.177 144.054 24.962 144.161 24.961ZM137.654 15.448V15.448C138.438 15.517 139.408 15.547 140.561 15.54V15.54C141.613 15.533 142.545 15.504 143.356 15.452V15.452L143.476 15.25 140.595 8.228 137.572 15.288C137.573 15.395 137.6 15.448 137.654 15.448ZM178.756 19.929L180.766 10.908C181.091 9.448 181.13 8.488 180.882 8.028V8.028C180.716 7.695 180.291 7.333 179.61 6.941 178.934 6.55 178.443 6.32 178.135 6.252V6.252C178.03 6.228 178.012 6.001 178.081 5.57 178.148 5.145 178.232 4.889 178.334 4.802V4.802C180.644 5.536 182.309 6.017 183.33 6.244V6.244C183.971 6.387 184.858 6.537 185.991 6.693 187.124 6.849 187.847 6.948 188.161 6.991V6.991C188.219 7.224 188.219 7.468 188.163 7.723V7.723C188.055 8.207 187.935 8.435 187.804 8.405V8.405C186.397 8.092 185.243 8.278 184.342 8.963V8.963C183.884 9.322 183.496 10.214 183.179 11.641V11.641L179.929 26.228C179.723 27.151 179.376 28.956 178.888 31.643V31.643C178.76 31.724 178.427 31.705 177.891 31.586V31.586C177.583 31.517 177.253 31.134 176.9 30.437V30.437L165.599 7.529 162.324 22.234C162.01 23.641 161.91 24.57 162.022 25.021V25.021C162.153 25.511 162.618 25.971 163.414 26.403 164.205 26.833 164.79 27.091 165.169 27.175V27.175C165.248 27.193 165.245 27.422 165.16 27.864 165.077 28.298 164.998 28.562 164.922 28.655V28.655C164.693 28.604 163.949 28.384 162.689 27.993 161.436 27.604 160.476 27.335 159.809 27.187 159.141 27.038 158.287 26.896 157.245 26.76 156.204 26.624 155.448 26.518 154.978 26.44V26.44C154.917 26.344 154.929 26.103 155.015 25.717V25.717C155.123 25.233 155.216 24.999 155.295 25.017V25.017C155.55 25.074 155.85 25.113 156.196 25.135 156.541 25.157 156.996 25.104 157.56 24.975 158.125 24.847 158.568 24.616 158.89 24.282V24.282C159.235 23.933 159.57 23.029 159.896 21.57V21.57L163.257 6.482C163.553 5.153 163.562 4.2 163.285 3.624V3.624C163.2 3.419 162.786 3.169 162.041 2.873 161.305 2.571 160.756 2.38 160.396 2.3V2.3C160.292 2.277 160.277 2.05 160.352 1.62 160.419 1.196 160.513 0.942 160.635 0.859V0.859C161.041 0.977 161.843 1.218 163.04 1.58 164.23 1.942 165.159 2.197 165.827 2.345V2.345C166.697 2.539 167.974 2.714 169.656 2.869V2.869C169.901 3.837 170.471 5.286 171.367 7.217 172.268 9.155 173.446 11.561 174.901 14.433 176.355 17.313 177.497 19.662 178.328 21.482V21.482C178.42 21.317 178.562 20.799 178.756 19.929ZM200.671 12.544C202.235 13.377 203.513 14.029 204.507 14.501 205.506 14.976 206.825 15.558 208.464 16.248 210.11 16.941 211.432 17.525 212.431 18V18C213.018 18.279 213.895 18.536 215.06 18.771V18.771L212.97 24.926C212.723 25.009 212.339 24.927 211.818 24.679V24.679C211.606 24.579 211.515 24.465 211.546 24.338V24.338C212.069 21.707 211.362 19.93 209.424 19.009V19.009C207.504 18.097 206.394 17.833 206.092 18.217V18.217C205.591 18.788 204.996 19.797 204.308 21.244V21.244L198.217 34.061C197.653 35.248 197.291 36.252 197.13 37.074V37.074C197.098 37.267 197.335 37.613 197.839 38.113 198.344 38.613 198.703 38.913 198.915 39.014V39.014C199.011 39.06 198.953 39.307 198.74 39.755V39.755C198.605 40.039 198.479 40.243 198.361 40.365V40.365C198.192 40.285 197.503 39.898 196.296 39.205 195.088 38.513 194.176 38.02 193.558 37.726V37.726C192.922 37.424 191.966 37.022 190.691 36.519 189.421 36.02 188.614 35.703 188.269 35.569V35.569C188.225 35.429 188.27 35.217 188.405 34.932V34.932C188.641 34.435 188.792 34.203 188.859 34.235V34.235C189.119 34.358 189.606 34.467 190.319 34.561 191.034 34.649 191.47 34.614 191.626 34.458V34.458C192.097 33.903 192.615 33.032 193.179 31.845V31.845L199.288 18.992C200.166 17.145 200.587 16.009 200.551 15.583V15.583C200.554 15.406 200.538 15.276 200.503 15.193 200.471 15.104 200.251 14.91 199.844 14.612 199.436 14.315 198.805 13.963 197.951 13.557V13.557C196.976 13.094 196.056 12.983 195.191 13.225 194.32 13.465 193.419 14.135 192.487 15.236V15.236C192.408 15.34 192.263 15.341 192.051 15.241V15.241C191.53 14.993 191.227 14.749 191.141 14.507V14.507L194.568 9.032C195.485 9.787 196.241 10.306 196.835 10.588V10.588C197.828 11.06 199.106 11.712 200.671 12.544ZM234.614 53.706L240.789 46.829C241.788 45.716 242.292 44.898 242.302 44.376V44.376C242.32 44.004 242.128 43.48 241.726 42.804 241.329 42.132 241.013 41.691 240.779 41.481V41.481C240.699 41.409 240.794 41.202 241.066 40.86 241.332 40.523 241.531 40.341 241.663 40.315V40.315C243.316 42.087 244.531 43.323 245.309 44.021V44.021C245.798 44.46 246.498 45.026 247.409 45.717 248.32 46.409 248.902 46.85 249.154 47.041V47.041C249.09 47.272 248.971 47.485 248.797 47.679V47.679C248.465 48.049 248.25 48.188 248.15 48.099V48.099C247.077 47.136 245.98 46.732 244.858 46.887V46.887C244.284 46.975 243.508 47.563 242.532 48.651V48.651L232.547 59.771C231.916 60.474 230.728 61.877 228.985 63.979V63.979C228.834 63.988 228.553 63.808 228.144 63.441V63.441C227.91 63.23 227.809 62.735 227.843 61.954V61.954L229.227 36.448 219.162 47.658C218.198 48.731 217.655 49.491 217.532 49.939V49.939C217.407 50.43 217.585 51.059 218.068 51.826 218.546 52.588 218.93 53.1 219.219 53.359V53.359C219.279 53.413 219.164 53.612 218.874 53.955 218.588 54.293 218.389 54.484 218.278 54.528V54.528C218.103 54.371 217.563 53.814 216.657 52.856 215.755 51.903 215.05 51.198 214.542 50.741 214.033 50.284 213.358 49.741 212.517 49.112 211.676 48.483 211.069 48.02 210.697 47.722V47.722C210.691 47.608 210.82 47.404 211.084 47.11V47.11C211.416 46.741 211.611 46.583 211.671 46.637V46.637C211.866 46.811 212.108 46.993 212.399 47.182 212.689 47.37 213.111 47.547 213.666 47.712 214.221 47.876 214.721 47.892 215.164 47.759V47.759C215.637 47.624 216.372 47.001 217.371 45.888V45.888L227.698 34.386C228.608 33.373 229.083 32.548 229.125 31.909V31.909C229.151 31.69 228.912 31.268 228.409 30.645 227.915 30.021 227.53 29.586 227.256 29.339V29.339C227.176 29.268 227.274 29.063 227.55 28.725 227.817 28.388 228.024 28.213 228.17 28.2V28.2C228.467 28.503 229.047 29.105 229.913 30.008 230.773 30.907 231.458 31.584 231.966 32.041V32.041C232.63 32.637 233.657 33.415 235.048 34.375V34.375C234.786 35.339 234.572 36.882 234.406 39.003 234.241 41.135 234.088 43.809 233.948 47.026 233.803 50.248 233.647 52.856 233.479 54.85V54.85C233.64 54.751 234.018 54.369 234.614 53.706ZM256.117 56.728V56.728C256.413 57.16 257.516 58.626 259.428 61.129V61.129C259.28 61.328 259.106 61.495 258.907 61.632V61.632C258.498 61.913 258.263 62.009 258.202 61.92V61.92C258.069 61.727 257.711 61.4 257.126 60.939 256.546 60.483 256.163 60.286 255.978 60.348V60.348C255.295 60.597 254.326 61.152 253.071 62.013V62.013L245.382 67.287C243.392 68.652 242.098 70.198 241.502 71.924 240.905 73.65 241.134 75.282 242.188 76.819V76.819C243.284 78.417 244.71 79.37 246.466 79.678 248.222 79.986 250.331 79.296 252.791 77.608V77.608L260.513 72.312C261.746 71.466 262.428 70.79 262.561 70.285V70.285C262.666 69.928 262.603 69.374 262.372 68.622 262.144 67.875 261.942 67.372 261.763 67.112V67.112C261.703 67.024 261.844 66.845 262.189 66.577 262.527 66.312 262.764 66.182 262.898 66.188V66.188C264.086 68.3 264.976 69.787 265.568 70.649V70.649C265.939 71.191 266.486 71.906 267.208 72.792 267.93 73.679 268.392 74.245 268.592 74.49V74.49C268.476 74.7 268.31 74.879 268.094 75.026V75.026C267.685 75.307 267.443 75.392 267.367 75.282V75.282C266.551 74.093 265.58 73.442 264.454 73.328V73.328C263.875 73.278 262.982 73.667 261.777 74.493V74.493L254.379 79.568C251.222 81.733 248.302 82.597 245.62 82.16 242.937 81.733 240.749 80.286 239.058 77.82V77.82C237.249 75.183 236.62 72.5 237.172 69.772 237.714 67.042 239.757 64.461 243.302 62.03V62.03L250.144 57.337C251.532 56.385 252.316 55.721 252.497 55.345V55.345C252.598 55.113 252.569 54.686 252.41 54.063 252.255 53.446 252.094 53.016 251.928 52.772V52.772C251.871 52.689 252.025 52.523 252.39 52.272V52.272C252.782 52.003 253.016 51.875 253.09 51.889V51.889C255.002 54.961 256.011 56.574 256.117 56.728ZM273.113 90.798V90.798C272.776 89.943 272.458 89.42 272.158 89.228 271.853 89.039 270.598 89.365 268.392 90.206V90.206L264.445 91.764C264.077 91.909 263.801 92.068 263.617 92.242 263.433 92.415 263.324 92.606 263.291 92.814 263.264 93.019 263.267 93.201 263.302 93.361 263.333 93.514 263.392 93.7 263.478 93.918V93.918L263.87 94.91C264.246 95.864 264.952 96.44 265.989 96.636 267.025 96.833 268.226 96.662 269.592 96.123V96.123C272.835 94.843 274.009 93.068 273.113 90.798ZM275.342 90.556V90.556C275.669 91.386 275.907 92.29 276.056 93.269 276.201 94.257 276.233 95.29 276.153 96.366 276.071 97.437 275.725 98.431 275.114 99.35 274.503 100.268 273.637 100.949 272.514 101.392V101.392C270.88 102.036 269.265 102.126 267.668 101.66 266.076 101.186 264.879 100.473 264.078 99.52V99.52C263.933 99.354 263.784 99.369 263.631 99.567V99.567C262.945 100.457 262.377 101.211 261.928 101.828 261.48 102.444 261 103.156 260.49 103.963 259.973 104.772 259.547 105.427 259.211 105.927V105.927C258.545 106.889 258.012 108.022 257.611 109.326 257.208 110.624 257.189 111.738 257.556 112.667V112.667C257.468 112.81 257.268 112.943 256.957 113.066V113.066C256.688 113.172 256.424 113.222 256.162 113.217V113.217C255.983 112.892 255.793 112.473 255.591 111.961V111.961C255.118 110.764 254.803 109.627 254.645 108.551 254.485 107.468 254.434 106.572 254.493 105.864 254.55 105.15 254.754 104.378 255.104 103.548 255.447 102.72 255.758 102.082 256.035 101.634 256.312 101.186 256.732 100.569 257.295 99.785V99.785C257.586 99.389 257.961 98.878 258.419 98.25 258.875 97.616 259.236 97.113 259.5 96.742 259.758 96.373 260.031 95.978 260.318 95.554 260.599 95.134 260.802 94.79 260.928 94.524 261.05 94.267 261.111 94.066 261.112 93.922V93.922C261.11 93.844 261.069 93.705 260.991 93.505V93.505C260.905 93.287 260.665 93.255 260.272 93.41V93.41L255.295 95.374C254.054 95.864 253.09 96.345 252.405 96.817V96.817C252.139 97.001 252.064 97.496 252.179 98.301 252.299 99.097 252.431 99.679 252.576 100.047V100.047C252.613 100.141 252.401 100.278 251.939 100.46V100.46C251.646 100.576 251.415 100.639 251.246 100.648V100.648C250.241 97.664 249.58 95.769 249.263 94.965V94.965L246.93 89.711C246.993 89.578 247.184 89.449 247.502 89.324V89.324C247.988 89.132 248.25 89.083 248.287 89.176V89.176C248.403 89.469 248.668 89.894 249.082 90.452 249.503 91.006 249.824 91.28 250.044 91.272V91.272C250.664 91.201 251.767 90.852 253.351 90.227V90.227L267.178 84.771C268.519 84.242 269.44 83.792 269.943 83.421V83.421C270.115 83.273 270.195 82.827 270.182 82.083 270.17 81.338 270.11 80.832 270.005 80.564V80.564C269.968 80.47 270.168 80.337 270.604 80.165V80.165C270.997 80.01 271.244 79.952 271.346 79.991V79.991C272.108 82.285 272.753 84.103 273.282 85.444V85.444C273.543 86.105 273.879 86.938 274.29 87.944 274.701 88.949 275.052 89.82 275.342 90.556Z" fill="#ffffff" data-fill-palette-color="primary"></path><path d="M3.93 144.222c0-5.593 4.534-10.127 10.127-10.127 5.593 0 10.127 4.534 10.127 10.127 0 5.593-4.534 10.127-10.127 10.127-5.593 0-10.127-4.534-10.127-10.127zM257.377 144.222c0-5.593 4.534-10.127 10.127-10.127 5.593 0 10.127 4.534 10.127 10.127 0 5.593-4.534 10.127-10.127 10.127-5.593 0-10.127-4.534-10.127-10.127z" fill="#ffffff" data-fill-palette-color="primary"></path></svg></g></svg></g></svg></g></svg></g><defs></defs></svg><rect width="280" height="280" fill="none" stroke="none" visibility="hidden"></rect></g></svg></g></svg>