<svg xmlns="http://www.w3.org/2000/svg" version="1.1" xmlns:xlink="http://www.w3.org/1999/xlink" xmlns:svgjs="http://svgjs.dev/svgjs" width="1000" height="1000" viewBox="0 0 1000 1000"><rect width="1000" height="1000" fill="#ffffff"></rect><g transform="matrix(0.7,0,0,0.7,149.57575757575756,466.62183606681725)"><svg viewBox="0 0 396 38" data-background-color="#ffffff" preserveAspectRatio="xMidYMid meet" height="95" width="1000" xmlns="http://www.w3.org/2000/svg" xmlns:xlink="http://www.w3.org/1999/xlink"><g id="tight-bounds" transform="matrix(1,0,0,1,0.2400000000000091,0.0732365332472682)"><svg viewBox="0 0 395.52 37.85352693350547" height="37.85352693350547" width="395.52"><g><svg viewBox="0 0 555.39137989704 53.15413267993875" height="37.85352693350547" width="395.52"><g><rect width="3.4685199277437055" height="38.654054517611016" x="147.32296487049078" y="7.250039081163866" fill="#6b7280" opacity="1" stroke-width="0" stroke="transparent" fill-opacity="1" class="rect-a$-0" data-fill-palette-color="primary" rx="1%" id="a$-0" data-palette-color="#6b7280"></rect></g><g transform="matrix(1,0,0,1,159.87137989704,7.346193445635532)"><svg viewBox="0 0 395.5199999999999 38.461745788667685" height="38.461745788667685" width="395.5199999999999"><g id="textblocktransform"><svg viewBox="0 0 395.5199999999999 38.461745788667685" height="38.461745788667685" width="395.5199999999999" id="textblock"><g><svg viewBox="0 0 395.5199999999999 38.461745788667685" height="38.461745788667685" width="395.5199999999999"><g transform="matrix(1,0,0,1,0,0)"><svg width="395.5199999999999" viewBox="3.25 -37.55 389.63 38.099999999999994" height="38.461745788667685" data-palette-color="#6b7280"><g class="undefined-text-0" data-fill-palette-color="primary" id="text-0"><path d="M14.3 0.55Q11.75 0.55 9.8 0.1 7.85-0.35 5.3-1.15L5.3-1.15Q3.6-1.7 3.25-1.75L3.25-1.75 3.65-10.65 6.25-10.65 7-4.1Q7.95-3.2 10.03-2.55 12.1-1.9 14.55-1.9L14.55-1.9Q18.6-1.9 20.75-3.75 22.9-5.6 22.9-8.85L22.9-8.85Q22.9-10.95 21.78-12.4 20.65-13.85 18.88-14.85 17.1-15.85 13.95-17.2L13.95-17.2Q11-18.45 8.93-19.7 6.85-20.95 5.3-23.08 3.75-25.2 3.75-28.15L3.75-28.15Q3.75-30.9 5.25-33.05 6.75-35.2 9.43-36.38 12.1-37.55 15.55-37.55L15.55-37.55Q17.65-37.55 19.28-37.23 20.9-36.9 23.4-36.2L23.4-36.2Q24.75-35.8 25-35.75L25-35.75 24.7-27.55 22.2-27.55 21.3-33.75Q20.7-34.25 18.98-34.73 17.25-35.2 15.3-35.2L15.3-35.2Q11.6-35.2 9.65-33.68 7.7-32.15 7.7-29.15L7.7-29.15Q7.7-27.1 8.75-25.73 9.8-24.35 11.45-23.4 13.1-22.45 16.55-20.85L16.55-20.85Q20.15-19.15 22.18-17.93 24.2-16.7 25.73-14.73 27.25-12.75 27.25-9.95L27.25-9.95Q27.25-7.3 25.7-4.88 24.15-2.45 21.2-0.95 18.25 0.55 14.3 0.55L14.3 0.55ZM36.2-2.6L36.2-34.45 32-35 32-37.15 56.75-37.15 57.45-29.8 55.05-29.8 53.7-34.6 40.3-34.85 40.3-20.3 49.5-20.45 50.15-24.6 52.65-24.6 52.65-13.55 50.15-13.55 49.5-17.8 40.3-17.95 40.3-2.55 55.6-2.95 58.15-9.2 60.55-8.45 59 0 31.9 0 31.9-2.15 36.2-2.6ZM64.34 0L64.34-2.15 68.65-2.6 68.65-34.5 64.65-35.1 64.65-37.15 70.75-37.15Q72.09-37.15 74.59-37.35L74.59-37.35Q77-37.55 78.15-37.55L78.15-37.55Q85.3-37.55 88.34-35.15 91.4-32.75 91.4-27.75L91.4-27.75Q91.4-24.1 89.37-21.15 87.34-18.2 83.9-17.2L83.9-17.2Q85.2-16.35 86.52-14.38 87.84-12.4 89.8-8.9L89.8-8.9Q91.5-5.85 92.52-4.33 93.55-2.8 94.34-2.65L94.34-2.65 96.45-2.1 96.45 0 90.59 0Q89.8 0 88.75-1.7 87.7-3.4 85.8-7.2L85.8-7.2Q83.75-11.35 82.42-13.55 81.09-15.75 79.8-16.5L79.8-16.5Q73.7-16.5 72.75-16.55L72.75-16.55 72.75-2.6 77.9-2.15 77.9 0 64.34 0ZM79.5-18.95Q82.95-18.95 84.95-21.1 86.95-23.25 86.95-27.4L86.95-27.4Q86.95-31.05 84.9-33.08 82.84-35.1 77.75-35.1L77.75-35.1Q76-35.1 74.3-34.9L74.3-34.9Q73.09-34.8 72.75-34.8L72.75-34.8 72.75-19Q73.65-18.95 76.34-18.95L76.34-18.95 79.5-18.95ZM95.74-35L95.74-37.15 107.89-37.15 107.89-35 103.29-34.45 111.99-10.35 114.09-3.55 115.99-10.45 123.79-34.45 119.79-35 119.79-37.15 130.34-37.15 130.34-35 127.14-34.45 115.09 0.4 111.79 0.4 98.84-34.45 95.74-35ZM137.34-2.6L137.34-34.45 132.49-35 132.49-37.15 146.34-37.15 146.34-35 141.49-34.45 141.49-2.6 146.34-2.1 146.34 0 132.49 0 132.49-2.15 137.34-2.6ZM163.64 0.55Q161.09 0.55 159.14 0.1 157.19-0.35 154.64-1.15L154.64-1.15Q152.94-1.7 152.59-1.75L152.59-1.75 152.99-10.65 155.59-10.65 156.34-4.1Q157.29-3.2 159.36-2.55 161.44-1.9 163.89-1.9L163.89-1.9Q167.94-1.9 170.09-3.75 172.24-5.6 172.24-8.85L172.24-8.85Q172.24-10.95 171.11-12.4 169.99-13.85 168.21-14.85 166.44-15.85 163.29-17.2L163.29-17.2Q160.34-18.45 158.26-19.7 156.19-20.95 154.64-23.08 153.09-25.2 153.09-28.15L153.09-28.15Q153.09-30.9 154.59-33.05 156.09-35.2 158.76-36.38 161.44-37.55 164.89-37.55L164.89-37.55Q166.99-37.55 168.61-37.23 170.24-36.9 172.74-36.2L172.74-36.2Q174.09-35.8 174.34-35.75L174.34-35.75 174.04-27.55 171.54-27.55 170.64-33.75Q170.04-34.25 168.31-34.73 166.59-35.2 164.64-35.2L164.64-35.2Q160.94-35.2 158.99-33.68 157.04-32.15 157.04-29.15L157.04-29.15Q157.04-27.1 158.09-25.73 159.14-24.35 160.79-23.4 162.44-22.45 165.89-20.85L165.89-20.85Q169.49-19.15 171.51-17.93 173.54-16.7 175.06-14.73 176.59-12.75 176.59-9.95L176.59-9.95Q176.59-7.3 175.04-4.88 173.49-2.45 170.54-0.95 167.59 0.55 163.64 0.55L163.64 0.55Z" fill="#6b7280" data-fill-palette-color="primary"></path><path d="M206.24 0Q205.29 0 203.87-2.08 202.44-4.15 199.89-8.6L199.89-8.6Q197.44-12.8 195.97-15.1 194.49-17.4 193.09-18.85L193.09-18.85 187.64-12.7 187.64-2.6 192.34-2.1 192.34 0 179.24 0 179.24-2.15 183.54-2.6 183.54-34.45 179.34-35 179.34-37.15 191.94-37.15 191.94-35 187.64-34.45 187.64-16.25 203.29-34.45 199.04-35 199.04-37.15 210.64-37.15 210.64-35 206.99-34.45 195.49-21.6Q197.24-20.15 199.09-17.55 200.94-14.95 204.14-10.1L204.14-10.1Q206.59-6.3 207.92-4.5 209.24-2.7 209.89-2.65L209.89-2.65 212.24-2.1 212.24 0 206.24 0ZM226.59 0.55Q224.04 0.55 222.09 0.1 220.14-0.35 217.59-1.15L217.59-1.15Q215.89-1.7 215.54-1.75L215.54-1.75 215.94-10.65 218.54-10.65 219.29-4.1Q220.24-3.2 222.31-2.55 224.39-1.9 226.84-1.9L226.84-1.9Q230.89-1.9 233.04-3.75 235.19-5.6 235.19-8.85L235.19-8.85Q235.19-10.95 234.06-12.4 232.94-13.85 231.16-14.85 229.39-15.85 226.24-17.2L226.24-17.2Q223.29-18.45 221.21-19.7 219.14-20.95 217.59-23.08 216.04-25.2 216.04-28.15L216.04-28.15Q216.04-30.9 217.54-33.05 219.04-35.2 221.71-36.38 224.39-37.55 227.84-37.55L227.84-37.55Q229.94-37.55 231.56-37.23 233.19-36.9 235.69-36.2L235.69-36.2Q237.04-35.8 237.29-35.75L237.29-35.75 236.99-27.55 234.49-27.55 233.59-33.75Q232.99-34.25 231.26-34.73 229.54-35.2 227.59-35.2L227.59-35.2Q223.89-35.2 221.94-33.68 219.99-32.15 219.99-29.15L219.99-29.15Q219.99-27.1 221.04-25.73 222.09-24.35 223.74-23.4 225.39-22.45 228.84-20.85L228.84-20.85Q232.44-19.15 234.46-17.93 236.49-16.7 238.01-14.73 239.54-12.75 239.54-9.95L239.54-9.95Q239.54-7.3 237.99-4.88 236.44-2.45 233.49-0.95 230.54 0.55 226.59 0.55L226.59 0.55ZM244.34-2.6L256.74-37.5 260.84-37.5 273.39-2.6 276.64-2.15 276.64 0 264.44 0 264.44-2.15 268.84-2.6 266.19-10.55 250.59-10.55 247.94-2.65 252.39-2.15 252.39 0 241.14 0 241.14-2.15 244.34-2.6ZM265.29-13.15L259.64-29.8 258.24-34.55 256.89-29.65 251.44-13.15 265.29-13.15ZM280.63-2.6L284.33-34.45 278.78-35 278.78-37.15 290.58-37.15 298.33-14.05 300.18-7.35 301.83-14.05 309.53-37.15 321.23-37.15 321.23-35 315.73-34.45 319.68-2.65 324.23-2.15 324.23 0 310.78 0 310.78-2.15 315.43-2.6 313.13-25.4 312.03-35.4 309.83-28.5 300.78-1.8 298.78-1.8 290.28-25.7 287.03-35.4 286.03-25.4 283.98-2.6 288.88-2.15 288.88 0 276.38 0 276.38-2.15 280.63-2.6ZM332.48-2.6L332.48-34.45 327.63-35 327.63-37.15 341.48-37.15 341.48-35 336.63-34.45 336.63-2.6 341.48-2.1 341.48 0 327.63 0 327.63-2.15 332.48-2.6ZM351.43-2.6L351.43-34.45 347.23-35 347.23-37.15 360.53-37.15 360.53-35 355.53-34.45 355.53-2.6 369.78-3 372.58-10.8 374.98-10.4 373.13 0 347.13 0 347.13-2.15 351.43-2.6ZM383.88-2.6L383.88-34.45 379.03-35 379.03-37.15 392.88-37.15 392.88-35 388.03-34.45 388.03-2.6 392.88-2.1 392.88 0 379.03 0 379.03-2.15 383.88-2.6Z" fill="#000000" data-fill-palette-color="secondary"></path></g></svg></g></svg></g></svg></g></svg></g><g><svg viewBox="0 0 138.24306977168527 53.15413267993875" height="53.15413267993875" width="138.24306977168527"><g><svg version="1.0" xmlns="http://www.w3.org/2000/svg" xmlns:xlink="http://www.w3.org/1999/xlink" x="0" y="0" viewBox="0 0.00023700810086448463 99.99999999999999 38.449762991899135" enable-background="new 0 0 100 38.449" xml:space="preserve" width="138.24306977168527" height="53.15413267993875" class="icon-icon-0" data-fill-palette-color="accent" id="icon-0"><path d="M99.929 15.958c-0.053-0.283-0.157-0.619-0.364-1.056L80.803 0.005h-37.75c-0.874-0.054-1.348 0.359-1.763 0.841L28.672 13.487 1.078 18.071C0.694 18.406 0.309 18.735 0 19.599l0.059 9.493c0.598 1.521 1.006 1.324 1.459 1.536h5.312c0-12.905 19.225-12.856 19.225 0h49.021c0-12.933 19.08-12.906 19.08 0h4.354c0.731-0.067 1.142-0.713 1.49-1.47L99.929 15.958zM59.408 15.346H33.254c-0.995-0.393-1.13-0.988-0.716-1.713l9.403-9.278c0.212-0.18 0.379-0.428 0.747-0.374h16.72V15.346zM86.488 15.348H62.516V3.983h14.066c0.368-0.055 0.535 0.193 0.747 0.374l8.058 8.115C86.13 13.591 87.623 15.122 86.488 15.348z" fill="#000000" data-fill-palette-color="accent"></path><path d="M16.396 22.843c-4.31 0-7.804 3.493-7.804 7.803s3.494 7.804 7.804 7.804 7.804-3.494 7.804-7.804S20.705 22.843 16.396 22.843zM16.396 33.921c-1.819 0-3.294-1.475-3.294-3.293 0-1.819 1.475-3.294 3.294-3.294 1.818 0 3.293 1.475 3.293 3.294C19.688 32.446 18.214 33.921 16.396 33.921z" fill="#000000" data-fill-palette-color="accent"></path><path d="M84.615 22.839c-4.31 0-7.804 3.494-7.804 7.804s3.494 7.804 7.804 7.804 7.803-3.494 7.803-7.804S88.925 22.839 84.615 22.839zM84.615 33.921c-1.819 0-3.294-1.475-3.294-3.293 0-1.819 1.475-3.294 3.294-3.294 1.818 0 3.293 1.475 3.293 3.294C87.908 32.446 86.434 33.921 84.615 33.921z" fill="#000000" data-fill-palette-color="accent"></path></svg></g></svg></g></svg></g><defs></defs></svg><rect width="395.52" height="37.85352693350547" fill="none" stroke="none" visibility="hidden"></rect></g></svg></g></svg>