<svg xmlns="http://www.w3.org/2000/svg" version="1.1" xmlns:xlink="http://www.w3.org/1999/xlink" xmlns:svgjs="http://svgjs.dev/svgjs" width="1000" height="502" viewBox="0 0 1000 502"><g transform="matrix(1,0,0,1,-0.6060606060606801,0.5961625476004997)"><svg viewBox="0 0 396 199" data-background-color="#ffffff" preserveAspectRatio="xMidYMid meet" height="502" width="1000" xmlns="http://www.w3.org/2000/svg" xmlns:xlink="http://www.w3.org/1999/xlink"><g id="tight-bounds" transform="matrix(1,0,0,1,0.24000000000003752,-0.23632738440737455)"><svg viewBox="0 0 395.5199999999999 199.47265476881475" height="199.47265476881475" width="395.5199999999999"><g><svg viewBox="0 0 397.4975999999999 200.4700180426588" height="199.47265476881475" width="395.5199999999999"><g><rect width="397.4975999999999" height="5.7345898640630955" x="0" y="102.89305880735272" fill="#000000" opacity="1" stroke-width="0" stroke="transparent" fill-opacity="1" class="rect-a$-0" data-fill-palette-color="primary" rx="1%" id="a$-0" data-palette-color="#000000"></rect></g><g><rect width="397.4975999999999" height="5.7345898640630955" x="0" y="116.13365634689106" fill="#000000" opacity="1" stroke-width="0" stroke="transparent" fill-opacity="1" class="rect-a$-1" data-fill-palette-color="primary" rx="1%" id="a$-1" data-palette-color="#000000"></rect></g><g transform="matrix(1,0,0,1,0.9887999999999693,136.88026156190466)"><svg viewBox="0 0 395.52 63.589756480754126" height="63.589756480754126" width="395.52"><g id="textblocktransform"><svg viewBox="0 0 395.52 63.589756480754126" height="63.589756480754126" width="395.52" id="textblock"><g><svg viewBox="0 0 395.52 63.589756480754126" height="63.589756480754126" width="395.52"><g transform="matrix(1,0,0,1,0,0)"><svg width="395.52" viewBox="2.64 -29.54 186.45000000000002 29.98" height="63.589756480754126" data-palette-color="#000000"><path d="M12.84 0L2.88 0 2.78-1.56 5.57-2.2Q5.62-2.39 5.64-2.91 5.66-3.42 5.69-4.81 5.71-6.2 5.71-8.98L5.71-8.98 5.76-19.87Q5.76-22.56 5.71-23.9 5.66-25.24 5.64-25.73 5.62-26.22 5.57-26.32L5.57-26.32 2.64-27.1 2.73-28.66 12.16-28.66Q16.46-28.66 19.02-26.54 21.58-24.41 21.58-20.46L21.58-20.46Q21.58-17.72 20.19-15.8 18.8-13.87 16.6-12.84 14.4-11.82 11.96-11.82L11.96-11.82Q10.74-11.82 9.74-11.94 8.74-12.06 7.91-12.21L7.91-12.21 7.91-14.45Q9.23-14.11 10.11-13.99 10.99-13.87 11.77-13.87L11.77-13.87Q14.89-13.87 16.67-15.28 18.46-16.7 18.46-19.87L18.46-19.87Q18.46-23.44 16.55-25.12 14.65-26.81 11.91-26.81L11.91-26.81 8.74-26.81Q8.74-26.51 8.72-25.42 8.69-24.32 8.67-22.83 8.64-21.34 8.64-19.87L8.64-19.87 8.69-8.98Q8.69-6.2 8.72-4.86 8.74-3.52 8.79-3.03 8.84-2.54 8.84-2.29L8.84-2.29 12.94-1.66 12.84 0ZM40.72 0.44L40.72 0.44Q36.57 0.44 33.4-1.42 30.22-3.27 28.42-6.62 26.61-9.96 26.61-14.31L26.61-14.31Q26.61-18.55 28.46-21.9 30.32-25.24 33.57-27.17 36.81-29.1 40.92-29.1L40.92-29.1Q44.87-29.1 47.9-27.25 50.93-25.39 52.63-22.09 54.34-18.8 54.34-14.45L54.34-14.45Q54.34-11.43 53.34-8.74 52.34-6.05 50.53-3.98 48.73-1.9 46.24-0.73 43.75 0.44 40.72 0.44ZM41.26-1.71L41.26-1.71Q44.09-1.71 46.21-3.15 48.34-4.59 49.53-7.23 50.73-9.86 50.73-13.33L50.73-13.33Q50.73-17.38 49.41-20.46 48.09-23.54 45.75-25.29 43.41-27.05 40.33-27.05L40.33-27.05Q35.74-27.05 33.08-23.8 30.42-20.56 30.42-14.99L30.42-14.99Q30.42-11.13 31.81-8.13 33.2-5.13 35.67-3.42 38.13-1.71 41.26-1.71ZM67.87 0.44L67.87 0.44Q65.72 0.44 63.54-0.07 61.37-0.59 60.1-1.32L60.1-1.32 59.81-7.18 61.42-7.37 62.64-3.37Q63.91-2.59 65.38-2.12 66.84-1.66 68.65-1.66L68.65-1.66Q71.14-1.66 72.75-2.93 74.36-4.2 74.36-6.45L74.36-6.45Q74.36-8.2 73.31-9.38 72.26-10.55 70.62-11.45 68.99-12.35 67.16-13.21 65.33-14.06 63.69-15.14 62.06-16.21 61.01-17.72 59.96-19.24 59.96-21.48L59.96-21.48Q59.96-23.73 61.2-25.46 62.45-27.2 64.62-28.17 66.79-29.15 69.58-29.15L69.58-29.15Q70.94-29.15 72.07-29.03 73.19-28.91 74.14-28.66 75.09-28.42 75.87-28.08L75.87-28.08 76.17-22.51 74.56-22.31 73.29-26.07Q71.77-27.15 69.04-27.15L69.04-27.15Q66.35-27.15 64.74-25.83 63.13-24.51 63.13-22.46L63.13-22.46Q63.13-20.65 64.18-19.38 65.23-18.12 66.87-17.19 68.5-16.26 70.36-15.41 72.21-14.55 73.85-13.5 75.48-12.45 76.53-10.99 77.58-9.52 77.58-7.37L77.58-7.37Q77.58-5.13 76.31-3.37 75.04-1.61 72.85-0.59 70.65 0.44 67.87 0.44ZM103.65-28.86L103.65-28.86 104.73-21.29 102.97-21.04 100.87-26.51Q100.58-26.61 100.09-26.64 99.6-26.66 99.26-26.66L99.26-26.66 97.45-26.66Q96.97-26.66 95.99-26.66 95.01-26.66 94.18-26.61L94.18-26.61Q94.18-26.22 94.16-24.8 94.13-23.39 94.13-21.58 94.13-19.78 94.13-18.16L94.13-18.16 94.13-10.6Q94.13-7.32 94.18-5.03 94.23-2.73 94.23-2.2L94.23-2.2 98.28-1.66 98.19 0 87.05 0 86.96-1.66 91.01-2.2Q91.01-2.73 91.06-5.03 91.11-7.32 91.11-10.6L91.11-10.6 91.11-18.16Q91.11-19.78 91.11-21.58 91.11-23.39 91.11-24.8 91.11-26.22 91.06-26.61L91.06-26.61Q90.28-26.66 89.3-26.66 88.32-26.66 87.79-26.66L87.79-26.66 85.83-26.66Q85.49-26.66 85.08-26.64 84.66-26.61 84.37-26.51L84.37-26.51 82.22-21 80.46-21.29 81.54-28.86Q82.12-28.81 82.59-28.76 83.05-28.71 83.46-28.69 83.88-28.66 84.29-28.66 84.71-28.66 85.25-28.66L85.25-28.66 99.94-28.66Q100.48-28.66 100.9-28.66 101.31-28.66 101.7-28.69 102.09-28.71 102.56-28.76 103.02-28.81 103.65-28.86ZM112.15 0L104.53 0 104.43-1.56 106.83-2.2 116.88-28.13 119.13-29.54 129.48-2.2 131.87-1.56 131.78 0 123.43 0 123.33-1.56 126.26-2.2 123.28-9.91 122.74-11.33 117.18-25.44 118.2-26.56 112.59-11.28 112.05-9.81 109.32-2.2 112.25-1.56 112.15 0ZM110.93-9.38L110.93-9.38 110.93-11.62Q111.86-11.57 113.66-11.52 115.47-11.47 118.01-11.47L118.01-11.47Q120.5-11.47 122.3-11.52 124.11-11.57 124.99-11.62L124.99-11.62 124.99-9.38Q122.94-9.42 121.13-9.45 119.33-9.47 118.01-9.47L118.01-9.47Q116.74-9.47 114.98-9.45 113.22-9.42 110.93-9.38ZM168.88 0L159.02 0 158.92-1.56 162.09-2.05Q161.7-2.59 161.17-3.25 160.63-3.91 160.04-4.54L160.04-4.54 151.84-13.62 149.74-13.62 149.74-15.19 152.57-15.97 162.63-26.42 159.7-27.1 159.75-28.66 168.44-28.66 168.49-27 165.9-26.51 153.65-14.65 153.89-15.77 163.17-5.81Q163.85-5.13 164.44-4.47 165.02-3.81 165.54-3.25 166.05-2.69 166.49-2.29L166.49-2.29 168.88-1.61 168.88 0ZM153.35 0L144.13 0 144.03-1.56 146.96-2.2Q147.06-2.59 147.1-4.27 147.15-5.96 147.15-9.23L147.15-9.23 147.15-19.38Q147.15-21.68 147.13-23.17 147.1-24.66 147.08-25.46 147.06-26.27 146.96-26.46L146.96-26.46 144.03-27.1 144.13-28.66 153.21-28.66 153.31-27.1 150.38-26.46Q150.33-26.32 150.25-25.61 150.18-24.9 150.16-23.41 150.13-21.92 150.13-19.38L150.13-19.38 150.13-9.23Q150.13-5.96 150.18-4.27 150.23-2.59 150.28-2.2L150.28-2.2 153.45-1.56 153.35 0ZM179.38 0.44L179.38 0.44Q177.23 0.44 175.06-0.07 172.88-0.59 171.61-1.32L171.61-1.32 171.32-7.18 172.93-7.37 174.15-3.37Q175.42-2.59 176.89-2.12 178.35-1.66 180.16-1.66L180.16-1.66Q182.65-1.66 184.26-2.93 185.87-4.2 185.87-6.45L185.87-6.45Q185.87-8.2 184.82-9.38 183.77-10.55 182.14-11.45 180.5-12.35 178.67-13.21 176.84-14.06 175.2-15.14 173.57-16.21 172.52-17.72 171.47-19.24 171.47-21.48L171.47-21.48Q171.47-23.73 172.71-25.46 173.96-27.2 176.13-28.17 178.3-29.15 181.09-29.15L181.09-29.15Q182.45-29.15 183.58-29.03 184.7-28.91 185.65-28.66 186.6-28.42 187.38-28.08L187.38-28.08 187.68-22.51 186.07-22.31 184.8-26.07Q183.28-27.15 180.55-27.15L180.55-27.15Q177.86-27.15 176.25-25.83 174.64-24.51 174.64-22.46L174.64-22.46Q174.64-20.65 175.69-19.38 176.74-18.12 178.38-17.19 180.01-16.26 181.87-15.41 183.72-14.55 185.36-13.5 186.99-12.45 188.04-10.99 189.09-9.52 189.09-7.37L189.09-7.37Q189.09-5.13 187.82-3.37 186.55-1.61 184.36-0.59 182.16 0.44 179.38 0.44Z" opacity="1" transform="matrix(1,0,0,1,0,0)" fill="#000000" class="undefined-text-0" data-fill-palette-color="primary" id="text-0"></path></svg></g></svg></g></svg></g></svg></g><g transform="matrix(1,0,0,1,139.8817104323502,0)"><svg viewBox="0 0 117.73417913529951 87.88104345640221" height="87.88104345640221" width="117.73417913529951"><g><svg xmlns="http://www.w3.org/2000/svg" xmlns:xlink="http://www.w3.org/1999/xlink" version="1.1" x="0" y="0" viewBox="96.386 43.865 1009.643 753.6339999999999" enable-background="new 0 0 1187.72 841.89" xml:space="preserve" height="87.88104345640221" width="117.73417913529951" class="icon-icon-0" data-fill-palette-color="accent" id="icon-0"><path d="M1106.029 183.51V43.865H869.565v28.961V183.51v90.295H96.386v10.639c0 132.463 36.127 254.372 101.728 343.27 38.932 52.758 88.006 93.921 145.857 122.347 64.065 31.478 139.299 47.438 223.612 47.438 84.313 0 159.547-15.961 223.611-47.438 57.851-28.426 106.924-69.589 145.855-122.347 65.598-88.896 101.725-210.805 101.725-343.27v-10.639H922.707V183.51H1106.029zM215.234 615.079c-59.947-81.237-94.212-191.667-97.318-312.576l292.789 159.699L245.551 651.41C234.829 640.036 224.713 627.924 215.234 615.079zM781.812 730.963c-61.12 30.031-133.196 45.258-214.229 45.258s-153.109-15.227-214.229-45.258c-34.269-16.838-65.29-38.408-92.749-64.443l169.233-193.881 137.744 75.131 137.74-75.13L874.56 666.519C847.102 692.555 816.08 714.125 781.812 730.963zM919.929 615.079c-9.478 12.845-19.593 24.957-30.314 36.33L724.456 462.203l292.788-159.7C1014.138 423.413 979.874 533.844 919.929 615.079zM567.583 523.533L148.747 295.082h837.667L567.583 523.533z" fill="#61777f" data-fill-palette-color="accent"></path></svg></g></svg></g><g></g></svg></g><defs></defs></svg><rect width="395.5199999999999" height="199.47265476881475" fill="none" stroke="none" visibility="hidden"></rect></g></svg></g></svg>