<svg xmlns="http://www.w3.org/2000/svg" version="1.1" xmlns:xlink="http://www.w3.org/1999/xlink" xmlns:svgjs="http://svgjs.dev/svgjs" width="1000" height="174" viewBox="0 0 1000 174"><g transform="matrix(1,0,0,1,-0.6060604832102285,0.45881243735739474)"><svg viewBox="0 0 396 69" data-background-color="#ffffff" preserveAspectRatio="xMidYMid meet" height="174" width="1000" xmlns="http://www.w3.org/2000/svg" xmlns:xlink="http://www.w3.org/1999/xlink"><g id="tight-bounds" transform="matrix(1,0,0,1,0.240000048648767,-0.18194286309000063)"><svg viewBox="0 0 395.52 69.36388572618" height="69.36388572618" width="395.52"><g><svg viewBox="0 0 487.8240025006652 85.5515988166057" height="69.36388572618" width="395.52"><g transform="matrix(1,0,0,1,0,11.823701428344208)"><svg viewBox="0 0 395.52 61.90419595991729" height="61.90419595991729" width="395.52"><g id="textblocktransform"><svg viewBox="0 0 395.52 61.90419595991729" height="61.90419595991729" width="395.52" id="textblock"><g><svg viewBox="0 0 395.52 61.90419595991729" height="61.90419595991729" width="395.52"><g transform="matrix(1,0,0,1,0,0)"><svg width="395.52" viewBox="1.9000000953674316 -37.099998474121094 314.32000732421875 49.19999694824219" height="61.90419595991729" data-palette-color="#4a596d"><path d="M19.25 0.9Q15.9-9.2 10.5-24.45L10.5-24.45 10.15-24.45Q10.15-23.9 9.5-16.1L9.5-16.1Q8.65-4.85 8.65-4.2L8.65-4.2Q8.65-2.65 10.25-2.65L10.25-2.65 12.15-2.7 12.3-2.45 11.8 0.2 10.5 0.15Q6.9 0 6.5 0L6.5 0Q5.35 0 3.85 0.18 2.35 0.35 1.9 0.4L1.9 0.4 2.2-2.35Q3.7-2.5 4.38-3.3 5.05-4.1 5.3-6.1L5.3-6.1Q5.8-10.4 6.6-18.25 7.4-26.1 7.4-27L7.4-27Q7.4-28.35 6.5-28.93 5.6-29.5 3.35-29.65L3.35-29.65 3.15-29.95 3.55-32.2Q7.3-31.95 9.35-31.95L9.35-31.95Q9.7-31.95 12.55-32.1L12.55-32.1 13.65-32.15Q16.4-22.95 20.5-10.95L20.5-10.95 21.15-9.1 21.45-9.1Q22.05-10.85 22.4-11.85L22.4-11.85Q26.2-22.65 29.25-32.05L29.25-32.05Q29.85-32.05 30.3-32L30.3-32Q32.55-31.9 33.7-31.95L33.7-31.95Q34.8-31.95 36.75-32.1 38.7-32.25 39-32.25L39-32.25 39.15-32.05 38.85-29.7Q36.7-29.45 35.85-28.85 35-28.25 35-27L35-27Q35-25.65 35.45-18.93 35.9-12.2 36.3-7.3L36.3-7.3Q36.5-5.35 36.75-4.38 37-3.4 37.45-3.03 37.9-2.65 38.7-2.65L38.7-2.65Q39.15-2.65 39.6-2.7 40.05-2.75 40.1-2.75L40.1-2.75 40.25-2.5 39.8 0.15Q39.55 0.15 37.88 0.08 36.2 0 34.95 0L34.95 0Q33.15 0 31.05 0.2 28.95 0.4 28.85 0.4L28.85 0.4 29.15-2.35Q30.65-2.55 31.33-3.13 32-3.7 32-4.85L32-4.85Q32-5.45 31.7-9.65 31.4-13.85 31.2-16.5L31.2-16.5Q30.6-24.1 30.6-24.45L30.6-24.45 30.25-24.45Q24.75-9.2 21.45 0.5L21.45 0.5 19.25 0.9ZM53.75 0.6Q48.75 0.6 45.8-2.48 42.85-5.55 42.85-10.65L42.85-10.65Q42.85-14.1 44.37-17.03 45.9-19.95 48.52-21.68 51.15-23.4 54.25-23.4L54.25-23.4Q58.15-23.4 60.15-21.43 62.15-19.45 62.15-15.6L62.15-15.6Q62.15-14.05 61.85-12.95L61.85-12.95 61.2-12.4 47.8-12.4Q47.8-8.1 49.62-5.8 51.45-3.5 54.8-3.5L54.8-3.5Q57.6-3.5 60.8-5L60.8-5 61.1-4.85 61.8-2.95Q60-1.6 57.7-0.5 55.4 0.6 53.75 0.6L53.75 0.6ZM47.9-14.65L55.95-15.05Q56.6-15.1 56.82-15.35 57.05-15.6 57.05-16.3L57.05-16.3Q57.05-18.2 56.1-19.23 55.15-20.25 53.35-20.25L53.35-20.25Q51.2-20.25 49.72-18.78 48.25-17.3 47.9-14.65L47.9-14.65ZM86.25 0.6Q82.1 0.6 81.55-2.95L81.55-2.95 81.2-3.1Q76.1 0.45 75.15 0.45L75.15 0.45Q70.8 0.45 68.17-2.5 65.55-5.45 65.55-10.3L65.55-10.3Q65.55-13.9 67.22-16.9 68.9-19.9 71.77-21.63 74.65-23.35 78.1-23.35L78.1-23.35Q79.35-23.35 81.15-23.2L81.15-23.2 81.15-30.65Q81.15-32.1 80.7-32.75 80.25-33.4 79.2-33.4L79.2-33.4Q78.85-33.4 78.45-33.33 78.05-33.25 77.95-33.2L77.95-33.2 78.2-35.55Q80.7-35.85 83.35-36.38 86-36.9 86.75-37.1L86.75-37.1 87.1-36.35Q86.5-35.45 86.05-26.2 85.6-16.95 85.6-5.85L85.6-5.85Q85.6-4.85 86.1-4.25 86.6-3.65 87.45-3.65L87.45-3.65Q88.1-3.65 88.7-3.9 89.3-4.15 89.67-4.4 90.05-4.65 90.15-4.75L90.15-4.75 90.9-3.8Q90.75-3.5 90.1-2.6 89.45-1.7 88.42-0.73 87.4 0.25 86.25 0.6L86.25 0.6ZM76.45-3.45Q77.4-3.45 78.45-3.95 79.5-4.45 80.22-4.98 80.95-5.5 81.15-5.65L81.15-5.65 81.15-18.85Q81-18.95 80.45-19.2 79.9-19.45 78.95-19.68 78-19.9 76.8-19.9L76.8-19.9Q73.9-19.9 72.22-17.8 70.55-15.7 70.55-12.05L70.55-12.05Q70.55-9.6 71.32-7.63 72.1-5.65 73.42-4.55 74.75-3.45 76.45-3.45L76.45-3.45ZM92.64 0.6L92.94-1.95Q94.44-2.35 95.09-3.08 95.74-3.8 95.74-5.15L95.74-5.15 95.74-17Q95.74-18.45 95.29-19.1 94.84-19.75 93.79-19.75L93.79-19.75Q93.49-19.75 93.09-19.68 92.69-19.6 92.59-19.55L92.59-19.55 92.79-21.85Q95.24-22.2 97.77-22.73 100.29-23.25 101.04-23.4L101.04-23.4 101.39-22.7Q100.89-21.65 100.57-16.48 100.24-11.3 100.24-5.05L100.24-5.05Q100.24-3.7 100.62-3.13 100.99-2.55 101.89-2.55L101.89-2.55Q102.39-2.55 102.87-2.6 103.34-2.65 103.49-2.65L103.49-2.65 103.59-2.4 103.19 0.15Q102.69 0.1 101.27 0.05 99.84 0 98.24 0L98.24 0Q96.84 0 95.02 0.25 93.19 0.5 92.64 0.6L92.64 0.6ZM97.64-28.55Q96.24-28.55 95.49-29.4 94.74-30.25 94.74-31.55L94.74-31.55Q94.74-33.05 95.69-34.02 96.64-35 98.14-35L98.14-35Q99.49-35 100.27-34.15 101.04-33.3 101.04-32L101.04-32Q101.04-30.5 100.09-29.53 99.14-28.55 97.64-28.55L97.64-28.55ZM121.39-2Q122.74-2.4 123.34-3.1 123.94-3.8 123.94-5.05L123.94-5.05 124.14-14.4Q124.14-16.75 123.19-17.98 122.24-19.2 120.39-19.2L120.39-19.2Q118.09-19.2 115.04-16.95L115.04-16.95Q114.89-13.8 114.84-12.85L114.84-12.85Q114.54-6.45 114.54-5.1L114.54-5.1Q114.54-3.7 114.92-3.13 115.29-2.55 116.24-2.55L116.24-2.55Q116.69-2.55 117.17-2.6 117.64-2.65 117.79-2.65L117.79-2.65 117.89-2.45 117.44 0.15Q116.94 0.1 115.52 0.05 114.09 0 112.54 0L112.54 0Q111.09 0 109.37 0.13 107.64 0.25 107.14 0.3L107.14 0.3 107.49-2.25Q108.94-2.45 109.52-3.08 110.09-3.7 110.09-5.1L110.09-5.1 110.09-16.6Q110.09-18.3 109.57-18.95 109.04-19.6 107.69-19.6L107.69-19.6 107.09-19.6 106.89-19.85 107.09-21.9Q109.54-22.25 111.97-22.78 114.39-23.3 115.09-23.45L115.09-23.45 115.44-23Q115.34-22.7 115.14-21.7 114.94-20.7 114.89-19.65L114.89-19.65 115.04-19.45Q116.44-20.6 118.74-22 121.04-23.4 121.99-23.4L121.99-23.4Q125.34-23.4 127.24-21.68 129.14-19.95 129.14-16.95L129.14-16.95Q129.14-15.75 128.79-12.05L128.79-12.05Q128.34-6.2 128.34-5.15L128.34-5.15Q128.34-3.75 128.74-3.13 129.14-2.5 130.04-2.5L130.04-2.5Q130.54-2.5 131.02-2.55 131.49-2.6 131.69-2.6L131.69-2.6 131.79-2.4 131.34 0.15Q130.84 0.1 129.44 0.05 128.04 0 126.49 0L126.49 0Q125.19 0 123.44 0.2 121.69 0.4 121.14 0.5L121.14 0.5 121.39-2ZM151.74 0.6Q147.44 0.6 147.04-3.35L147.04-3.35 146.74-3.45Q144.99-1.7 143.51-0.65 142.04 0.4 141.24 0.4L141.24 0.4Q138.39 0.4 136.51-1.5 134.64-3.4 134.64-6.25L134.64-6.25Q134.64-7.8 135.39-8.9 136.14-10 137.39-10.35L137.39-10.35 146.94-12.8 146.99-14.55Q146.99-16.9 145.84-18.2 144.69-19.5 142.64-19.5L142.64-19.5Q141.29-19.5 139.74-18.85 138.19-18.2 136.69-17.05L136.69-17.05 136.39-17.25 135.64-19.75Q137.99-21.15 140.56-22.28 143.14-23.4 144.29-23.4L144.29-23.4Q147.94-23.4 149.89-21.63 151.84-19.85 151.84-16.8L151.84-16.8Q151.84-16.2 151.44-12.3L151.44-12.3Q150.89-7 150.89-5.85L150.89-5.85Q150.89-4.85 151.39-4.25 151.89-3.65 152.84-3.65L152.84-3.65Q153.54-3.65 154.31-4 155.09-4.35 155.54-4.75L155.54-4.75 156.29-3.8Q155.49-2.4 154.24-1.1 152.99 0.2 151.74 0.6L151.74 0.6ZM142.54-3.6Q143.39-3.6 144.54-4.17 145.69-4.75 146.64-5.6L146.64-5.6 146.84-10.5 140.74-8.75Q139.39-8.3 139.39-6.85L139.39-6.85Q139.39-5.45 140.26-4.53 141.14-3.6 142.54-3.6L142.54-3.6ZM182.63 0.45L182.43 0.1 182.63-2.35Q185.18-2.55 186.01-2.9 186.83-3.25 186.83-4.2L186.83-4.2Q186.83-5.1 186.48-6.3L186.48-6.3 185.08-11Q183.83-11.05 180.18-11.05L180.18-11.05Q177.73-11.05 175.03-10.7L175.03-10.7 173.43-6.1Q173.03-4.8 173.03-4.35L173.03-4.35Q173.03-3.35 173.66-2.93 174.28-2.5 175.73-2.5L175.73-2.5 178.28-2.5 178.43-2.25 178.13 0.3Q177.48 0.25 175.28 0.13 173.08 0 171.03 0L171.03 0Q169.08 0 167.46 0.05 165.83 0.1 165.28 0.15L165.28 0.15 165.68-2.6Q166.98-2.8 167.78-3.58 168.58-4.35 169.28-6.25L169.28-6.25 178.68-31.7 183.88-32.55 184.38-32.4Q184.73-31.15 185.93-26.7 187.13-22.25 188.83-16.38 190.53-10.5 191.98-6.05L191.98-6.05Q192.53-4.2 193.46-3.48 194.38-2.75 196.38-2.55L196.38-2.55 196.53-2.3 196.18 0.15Q195.58 0.1 193.91 0.05 192.23 0 190.53 0L190.53 0Q187.98 0 185.63 0.18 183.28 0.35 182.63 0.45L182.63 0.45ZM176.08-13.95L180.08-13.95Q182.08-13.95 184.28-14.15L184.28-14.15 180.83-26.35 180.33-26.35 176.08-13.95ZM220.18-21L216.18-20.6 215.98-20.35Q217.98-18.15 217.98-15.3L217.98-15.3Q217.98-12.85 216.63-10.83 215.28-8.8 212.93-7.63 210.58-6.45 207.73-6.45L207.73-6.45Q206.18-6.45 204.68-6.85L204.68-6.85Q202.98-5.7 202.98-4.8L202.98-4.8Q202.98-3.75 204.48-3.33 205.98-2.9 209.23-2.55L209.23-2.55Q212.53-2.15 214.61-1.7 216.68-1.25 218.18-0.13 219.68 1 219.68 3.05L219.68 3.05Q219.68 5.3 217.86 7.4 216.03 9.5 213.08 10.8 210.13 12.1 206.93 12.1L206.93 12.1Q203.18 12.1 200.98 10.28 198.78 8.45 198.78 5.3L198.78 5.3Q199.43 4.5 200.81 3.35 202.18 2.2 203.73 1.15L203.73 1.15 203.73 0.85Q201.23 0.4 199.88-0.88 198.53-2.15 198.43-4.15L198.43-4.15Q200.33-6.05 202.58-7.45L202.58-7.45 202.58-7.7Q200.78-8.75 199.81-10.43 198.83-12.1 198.83-14.25L198.83-14.25Q198.83-16.8 200.13-18.9 201.43-21 203.68-22.23 205.93-23.45 208.63-23.45L208.63-23.45Q209.73-23.45 211.53-23.15L211.53-23.15Q212.78-22.9 213.63-22.9L213.63-22.9Q215.78-23.15 220.58-24.5L220.58-24.5 220.78-24.25 220.18-21ZM208.73-9.15Q210.83-9.15 211.98-10.5 213.13-11.85 213.13-14.3L213.13-14.3Q213.13-17 211.76-18.68 210.38-20.35 208.08-20.35L208.08-20.35Q206.03-20.35 204.86-18.98 203.68-17.6 203.68-15.1L203.68-15.1Q203.68-12.4 205.06-10.78 206.43-9.15 208.73-9.15L208.73-9.15ZM206.33 1.35Q205.13 2.25 204.46 3.38 203.78 4.5 203.78 5.6L203.78 5.6Q203.78 7.2 205.11 8.15 206.43 9.1 208.73 9.1L208.73 9.1Q210.48 9.1 212.03 8.5 213.58 7.9 214.48 6.9 215.38 5.9 215.38 4.7L215.38 4.7Q215.38 3.8 214.71 3.28 214.03 2.75 212.16 2.33 210.28 1.9 206.33 1.35L206.33 1.35ZM233.68 0.6Q228.68 0.6 225.73-2.48 222.78-5.55 222.78-10.65L222.78-10.65Q222.78-14.1 224.3-17.03 225.83-19.95 228.45-21.68 231.08-23.4 234.18-23.4L234.18-23.4Q238.08-23.4 240.08-21.43 242.08-19.45 242.08-15.6L242.08-15.6Q242.08-14.05 241.78-12.95L241.78-12.95 241.13-12.4 227.73-12.4Q227.73-8.1 229.55-5.8 231.38-3.5 234.73-3.5L234.73-3.5Q237.53-3.5 240.73-5L240.73-5 241.03-4.85 241.73-2.95Q239.93-1.6 237.63-0.5 235.33 0.6 233.68 0.6L233.68 0.6ZM227.83-14.65L235.88-15.05Q236.53-15.1 236.75-15.35 236.98-15.6 236.98-16.3L236.98-16.3Q236.98-18.2 236.03-19.23 235.08-20.25 233.28-20.25L233.28-20.25Q231.13-20.25 229.65-18.78 228.18-17.3 227.83-14.65L227.83-14.65ZM260.13-2Q261.48-2.4 262.08-3.1 262.68-3.8 262.68-5.05L262.68-5.05 262.88-14.4Q262.88-16.75 261.93-17.98 260.98-19.2 259.13-19.2L259.13-19.2Q256.83-19.2 253.78-16.95L253.78-16.95Q253.63-13.8 253.58-12.85L253.58-12.85Q253.28-6.45 253.28-5.1L253.28-5.1Q253.28-3.7 253.65-3.13 254.03-2.55 254.98-2.55L254.98-2.55Q255.43-2.55 255.9-2.6 256.38-2.65 256.53-2.65L256.53-2.65 256.63-2.45 256.18 0.15Q255.68 0.1 254.25 0.05 252.83 0 251.28 0L251.28 0Q249.83 0 248.1 0.13 246.38 0.25 245.88 0.3L245.88 0.3 246.23-2.25Q247.68-2.45 248.25-3.08 248.83-3.7 248.83-5.1L248.83-5.1 248.83-16.6Q248.83-18.3 248.3-18.95 247.78-19.6 246.43-19.6L246.43-19.6 245.83-19.6 245.63-19.85 245.83-21.9Q248.28-22.25 250.7-22.78 253.13-23.3 253.83-23.45L253.83-23.45 254.18-23Q254.08-22.7 253.88-21.7 253.68-20.7 253.63-19.65L253.63-19.65 253.78-19.45Q255.18-20.6 257.48-22 259.78-23.4 260.73-23.4L260.73-23.4Q264.08-23.4 265.98-21.68 267.88-19.95 267.88-16.95L267.88-16.95Q267.88-15.75 267.53-12.05L267.53-12.05Q267.08-6.2 267.08-5.15L267.08-5.15Q267.08-3.75 267.48-3.13 267.88-2.5 268.78-2.5L268.78-2.5Q269.28-2.5 269.75-2.55 270.23-2.6 270.43-2.6L270.43-2.6 270.53-2.4 270.08 0.15Q269.58 0.1 268.18 0.05 266.78 0 265.23 0L265.23 0Q263.93 0 262.18 0.2 260.43 0.4 259.88 0.5L259.88 0.5 260.13-2ZM283.87 0.6Q278.97 0.6 276.07-2.45 273.17-5.5 273.17-10.65L273.17-10.65Q273.17-14.25 274.72-17.18 276.27-20.1 278.97-21.75 281.67-23.4 285.02-23.4L285.02-23.4Q286.57-23.4 287.9-23.2 289.22-23 290.05-22.78 290.87-22.55 291.07-22.45L291.07-22.45 291.27-22.05Q291.22-21.8 291-20.8 290.77-19.8 290.52-18.18 290.27-16.55 290.17-14.75L290.17-14.75 287.62-14.6 287.62-16.2Q287.62-17.95 286.62-19 285.62-20.05 283.97-20.05L283.97-20.05Q281.22-20.05 279.77-18.1 278.32-16.15 278.32-12.45L278.32-12.45Q278.32-8.2 279.97-5.83 281.62-3.45 284.57-3.45L284.57-3.45Q285.77-3.45 287-3.8 288.22-4.15 289.05-4.53 289.87-4.9 290.07-5.05L290.07-5.05 290.37-4.9 291.07-2.9Q290.72-2.65 289.5-1.8 288.27-0.95 286.67-0.18 285.07 0.6 283.87 0.6L283.87 0.6ZM295.12 12.05Q294.62 12.05 293.45 10.68 292.27 9.3 292.27 8.7L292.27 8.7 292.57 8.2Q295.57 8.1 298.02 6 300.47 3.9 302.17 0.2L302.17 0.2Q297.62-13.45 295.72-18.15L295.72-18.15Q295.27-19.4 294.5-19.9 293.72-20.4 292.52-20.45L292.52-20.45 292.42-20.65 292.72-22.85 296.77-22.8Q298.72-22.8 300.8-22.95 302.87-23.1 303.47-23.15L303.47-23.15 303.57-22.9 303.22-20.75Q301.62-20.7 301.1-20.43 300.57-20.15 300.57-19.5L300.57-19.5Q300.57-18.75 301.47-15.65 302.37-12.55 303.32-9.5 304.27-6.45 304.57-5.55L304.57-5.55 304.87-5.55Q310.12-18.3 310.12-19.4L310.12-19.4Q310.12-20.05 309.7-20.33 309.27-20.6 308.37-20.6L308.37-20.6 306.37-20.6 306.27-20.8 306.62-23Q307.07-22.95 308.7-22.88 310.32-22.8 311.82-22.8L311.82-22.8 316.22-22.85 315.87-20.45Q314.77-20.25 314.22-19.7 313.67-19.15 313.17-17.8L313.17-17.8 306.82-2.5Q304.42 3.3 302.65 6.4 300.87 9.5 299.12 10.8 297.37 12.1 295.12 12.05L295.12 12.05Z" opacity="1" transform="matrix(1,0,0,1,0,0)" fill="#4a596d" class="undefined-text-0" data-fill-palette-color="primary" id="text-0"></path></svg></g></svg></g></svg></g></svg></g><g transform="matrix(1,0,0,1,410.1340949654334,0)"><svg viewBox="0 0 77.68990753523174 85.5515988166057" height="85.5515988166057" width="77.68990753523174"><g><svg xmlns="http://www.w3.org/2000/svg" xmlns:xlink="http://www.w3.org/1999/xlink" version="1.1" x="0" y="0" viewBox="10.467002868652344 6.752997875213623 78.53299713134766 86.4800033569336" enable-background="new 0 0 100 100" xml:space="preserve" height="85.5515988166057" width="77.68990753523174" class="icon-icon-0" data-fill-palette-color="accent" id="icon-0"><path d="M61.086 59.727c-8.793 8.47-17.764 15.794-25.466 20.772-9.896 6.397-13.499 6.298-14.231 6.177-0.079-0.525-0.125-2.521 2.252-7.208-1.712-1.523-3.29-3.194-4.713-4.993-4.568 8.178-5.299 13.708-2.227 16.823 1.27 1.289 2.961 1.935 5.09 1.935 3.858 0 9.155-2.121 15.996-6.386 8.381-5.225 18.212-13.156 27.886-22.483l2.691 5.851c0.428-5.652 2.867-12.995 5.377-18.361-5.402 2.432-12.779 4.766-18.438 5.112L61.086 59.727z" fill="#4a596d" data-fill-palette-color="accent"></path><path d="M71.344 17.36c-1.787 0.867-4.048 2.124-6.878 3.952-6.874 4.444-14.911 10.9-22.859 18.348l10.507 5.017-8.379 0.514c-5.756 0.352-13.121 2.873-17.679 4.924l-5.344 2.405 2.483-5.308c2.117-4.526 4.744-11.852 5.179-17.604l0.633-8.373 4.929 10.717c8.648-8.128 17.398-15.129 24.978-19.987-2.946-0.706-6.018-1.09-9.181-1.09-21.686 0-39.266 17.58-39.266 39.266 0 13.487 6.802 25.383 17.16 32.452 1.777-0.866 4.017-2.113 6.812-3.92 6.875-4.444 14.912-10.9 22.86-18.348l-10.508-5.018 8.379-0.513c5.756-0.353 13.121-2.874 17.679-4.925l5.344-2.406-2.483 5.308c-2.117 4.525-4.743 11.852-5.179 17.604l-0.633 8.373L64.97 68.034c-8.72 8.193-17.541 15.241-25.165 20.104 3.171 0.826 6.498 1.269 9.929 1.269C71.42 89.407 89 71.827 89 50.142 89 36.441 81.979 24.386 71.344 17.36z" fill="#4a596d" data-fill-palette-color="accent"></path><path d="M37.82 40.26c8.794-8.47 17.765-15.794 25.467-20.773 9.896-6.397 13.498-6.297 14.23-6.177 0.079 0.525 0.125 2.522-2.252 7.208 1.713 1.524 3.29 3.195 4.714 4.994 4.567-8.178 5.299-13.708 2.227-16.824-1.27-1.289-2.961-1.935-5.09-1.935-3.858 0-9.155 2.121-15.996 6.386-8.382 5.225-18.212 13.156-27.887 22.483l-2.691-5.851c-0.427 5.651-2.867 12.995-5.377 18.361 5.403-2.432 12.78-4.766 18.438-5.112L37.82 40.26z" fill="#4a596d" data-fill-palette-color="accent"></path></svg></g></svg></g></svg></g><defs></defs></svg><rect width="395.52" height="69.36388572618" fill="none" stroke="none" visibility="hidden"></rect></g></svg></g></svg>