<svg xmlns="http://www.w3.org/2000/svg" version="1.1" xmlns:xlink="http://www.w3.org/1999/xlink" xmlns:svgjs="http://svgjs.dev/svgjs" width="1000" height="1000" viewBox="0 0 1000 1000"><rect width="1000" height="1000" fill="#000000"></rect><g transform="matrix(0.7,0,0,0.7,149.57575762992712,282.1265587044535)"><svg viewBox="0 0 396 247" data-background-color="#ffffff" preserveAspectRatio="xMidYMid meet" height="623" width="1000" xmlns="http://www.w3.org/2000/svg" xmlns:xlink="http://www.w3.org/1999/xlink"><g id="tight-bounds" transform="matrix(1,0,0,1,0.24000003064452358,-0.09999999999999432)"><svg viewBox="0 0 395.52 247.2" height="247.2" width="395.52"><g><svg></svg></g><g><svg viewBox="0 0 395.52 247.2" height="247.2" width="395.52"><g><g><path xmlns="http://www.w3.org/2000/svg" d="M129.651 25.851v-7.568h64.01v7.252l-25.856 8.514-60.285 57.259-17.431 0 61.95-58.52zM189.562 217.881l25.225 2.207v8.829h-91.443v-8.829l22.388-1.892-58.6-62.304h42.097zM60.911 218.511l27.433 2.838v7.568h-87.344v-7.568l27.433-2.838 0-62.619 32.478 0zM28.433 28.689l-27.433-2.838v-7.568h87.344v7.568l-27.433 2.838 0 62.619-32.478 0zM222.04 18.283h89.235c25.436 0 43.893 4.099 55.371 12.297 11.436 8.198 17.153 19.865 17.153 35.001 0 9.909-1.73 18.485-5.19 25.727l-34.298 0c3.202-6.801 4.803-15.061 4.803-24.781 0-14.084-3.616-24.238-10.847-30.46-7.273-6.18-19.003-9.27-35.19-9.27h-20.496v64.511h-33.108v-62.619l-27.433-2.838zM394.52 171.844c0 19.34-7.988 33.676-23.964 43.01-15.976 9.376-36.682 14.063-62.118 14.063h-82.614v-7.568l23.649-2.838v-62.619h33.108v64.196c5.255 1.472 10.048 2.207 14.379 2.207 4.288 0 9.439-0.315 15.451-0.946 5.97-0.631 12.907-2.354 20.811-5.171 7.862-2.859 14.421-8.388 19.676-16.586 5.255-8.198 7.883-18.289 7.883-30.271 0-4.876-0.528-9.352-1.583-13.429h33.389c1.289 4.828 1.933 10.145 1.933 15.952z" fill="#ffffff" fill-rule="nonzero" stroke="none" stroke-width="1" stroke-linecap="butt" stroke-linejoin="miter" stroke-miterlimit="10" stroke-dasharray="" stroke-dashoffset="0" font-family="none" font-weight="none" font-size="none" text-anchor="none" style="mix-blend-mode: normal" data-fill-palette-color="tertiary"></path></g></g><g transform="matrix(1,0,0,1,2.842170943040401e-14,98.60287896019496)"><svg viewBox="0 0 395.5199999999999 49.994242079610075" height="49.994242079610075" width="395.5199999999999"><g><svg viewBox="0 0 395.5199999999999 49.994242079610075" height="49.994242079610075" width="395.5199999999999"><g><svg viewBox="0 0 395.5199999999999 49.994242079610075" height="49.994242079610075" width="395.5199999999999"><g><svg viewBox="0 0 395.5199999999999 49.994242079610075" height="49.994242079610075" width="395.5199999999999"><g id="textblocktransform"><svg viewBox="0 0 395.5199999999999 49.994242079610075" height="49.994242079610075" width="395.5199999999999" id="textblock"><g><svg viewBox="0 0 395.5199999999999 49.994242079610075" height="49.994242079610075" width="395.5199999999999"><g transform="matrix(1,0,0,1,0,0)"><svg width="395.5199999999999" viewBox="1.9500000476837158 -38.29999923706055 307.7200012207031 38.89999771118164" height="49.994242079610075" data-palette-color="#000000"><path d="M22.35-32.2L22.35-33.4 32.5-33.4 32.5-32.25 28.4-30.9 15.45-18.6 31.85-1.75 35.85-1.4 35.85 0 21.35 0 21.35-1.4 24.9-1.7 11.45-16 11.45-1.65 15.8-1.2 15.8 0 1.95 0 1.95-1.2 6.3-1.65 6.3-31.75 1.95-32.2 1.95-33.4 15.8-33.4 15.8-32.2 11.45-31.75 11.45-17.45 25.9-31.1 22.35-32.2ZM46.5-0.7L46.5-0.7Q48.5-0.7 49.97-1.8 51.45-2.9 51.45-5.5L51.45-5.5Q51.45-7.25 49.87-8.4 48.3-9.55 45.95-10.48 43.6-11.4 42.77-11.78 41.95-12.15 40.6-13L40.6-13Q38.15-14.65 38.15-17.75 38.15-20.85 40.6-22.9 43.05-24.95 47.75-24.95L47.75-24.95Q50.75-24.95 52.87-23.63 55-22.3 55-20.45 55-18.6 53.6-17.9L53.6-17.9Q52.85-17.55 52.12-17.55 51.4-17.55 50.7-17.85L50.7-17.85Q50.9-18.75 50.9-19.8 50.9-20.85 50.4-21.9L50.4-21.9Q49.55-23.7 47.15-23.7 44.75-23.7 43.5-22.4 42.25-21.1 42.25-19L42.25-19Q42.25-16.85 44.05-15.8L44.05-15.8Q45.4-14.95 47.4-14.25 49.4-13.55 50.12-13.28 50.85-13 52.05-12.35 53.25-11.7 53.85-11L53.85-11Q55.4-9.3 55.4-6.4 55.4-3.5 52.8-1.48 50.2 0.55 46.45 0.55 42.7 0.55 39.87-0.6 37.05-1.75 37.05-3.95L37.05-3.95Q37.05-6 40.1-6.65L40.1-6.65Q41-0.7 46.5-0.7ZM64.6-5.4L64.6-5.4Q64.6-2.15 67.25-1.55L67.25-1.55Q67.85-1.4 68.4-1.4L68.4-1.4Q70.3-1.4 72.35-3.03 74.4-4.65 74.5-7.4L74.5-7.4 74.5-11.7Q64.6-11.6 64.6-5.4ZM66.6 0.6L66.6 0.6Q63.75 0.6 61.72-0.98 59.7-2.55 59.7-5.4L59.7-5.4Q59.75-9.25 63.57-11.15 67.4-13.05 74.5-13.05L74.5-13.05 74.5-17.35Q74.5-23.7 69.9-23.7L69.9-23.7Q67.55-23.7 66.1-21.75L66.1-21.75Q65.1-20.4 65.1-18.4L65.1-18.4Q65.1-17.55 65.3-16.6L65.3-16.6Q64.6-16.1 63.87-16.1 63.15-16.1 62.45-16.4L62.45-16.4Q60.85-17 60.85-18.7L60.85-18.7Q60.85-21 62.5-22.5L62.5-22.5Q65.2-24.95 69.95-24.95 74.7-24.95 76.85-22.93 79-20.9 79-16.55L79-16.55 79-1.4 83.2-1.2 83.25-0.05 74.9 0.55 74.45-3.9Q72.15 0.6 66.6 0.6ZM118.59-24.75L118.59-24.75Q126.59-24.75 126.59-17.05L126.59-17.05Q126.59-11.5 126.24-1.45L126.24-1.45 129.79-1.2 129.79 0 118.64 0 118.64-1.2 121.34-1.4Q121.69-14.6 121.69-17.43 121.69-20.25 120.64-21.65 119.59-23.05 117.24-23.05 114.89-23.05 112.89-21.08 110.89-19.1 110.19-16.85L110.19-16.85Q110.19-11.45 109.84-1.45L109.84-1.45 113.39-1.2 113.39 0 102.24 0 102.24-1.2 104.94-1.4Q105.29-14.6 105.29-17.43 105.29-20.25 104.24-21.65 103.19-23.05 100.62-23.05 98.04-23.05 95.79-20.33 93.54-17.6 93.54-15.5L93.54-15.5 93.54-1.45 97.29-1.2 97.29 0 85.39 0 85.39-1.2 88.64-1.4 88.64-22.6 84.39-22.8 84.39-23.95 93.34-24.55 93.09-19.4 93.59-19.4Q94.94-22.05 97.22-23.4 99.49-24.75 102.19-24.75L102.19-24.75Q108.94-24.75 109.99-19.35L109.99-19.35 109.99-19.4Q111.34-22.05 113.62-23.4 115.89-24.75 118.59-24.75ZM141.39-32.58Q141.39-31.35 140.54-30.48 139.69-29.6 138.42-29.6 137.14-29.6 136.29-30.45 135.44-31.3 135.44-32.58 135.44-33.85 136.29-34.73 137.14-35.6 138.39-35.6 139.64-35.6 140.52-34.7 141.39-33.8 141.39-32.58ZM144.39 0L132.89 0 132.89-1.2 136.19-1.45 136.19-22.7 131.79-22.85 131.79-24 141.09-24.65 141.09-1.45 144.39-1.2 144.39 0ZM158.44-1.2L158.44 0 146.94 0 146.94-1.2 150.24-1.45 150.24-35.9 145.79-36.1 145.79-37.25 155.14-38.3 155.14-1.45 158.44-1.2ZM170.28-32.58Q170.28-31.35 169.44-30.48 168.59-29.6 167.31-29.6 166.03-29.6 165.19-30.45 164.34-31.3 164.34-32.58 164.34-33.85 165.19-34.73 166.03-35.6 167.28-35.6 168.53-35.6 169.41-34.7 170.28-33.8 170.28-32.58ZM173.28 0L161.78 0 161.78-1.2 165.09-1.45 165.09-22.7 160.69-22.85 160.69-24 169.98-24.65 169.98-1.45 173.28-1.2 173.28 0ZM188.98-33.4L203.13-33.4Q209.18-33.4 211.9-31.45 214.63-29.5 214.63-25.9 214.63-22.3 212.7-20.18 210.78-18.05 207.08-17.65L207.08-17.65Q211.93-16.8 214.13-14.78 216.33-12.75 216.33-9.05L216.33-9.05Q216.33-4.45 212.53-2.23 208.73 0 202.68 0L202.68 0 189.58 0 189.58-1.2 193.33-1.65 193.33-31.75 188.98-32.2 188.98-33.4ZM205.23-16.2L205.23-16.2Q203.33-16.6 201.53-16.6 199.73-16.6 198.58-16.55L198.58-16.55 198.58-1.4Q199.83-1.05 200.85-1.05 201.88-1.05 203.3-1.2 204.73-1.35 206.6-2.02 208.48-2.7 209.73-4.65 210.98-6.6 210.98-9.45L210.98-9.45Q210.98-15 205.23-16.2ZM201.83-32.05L198.58-32.05 198.58-18.05 200.68-18.05Q209.13-18.05 209.13-25.75L209.13-25.75Q209.13-29.1 207.4-30.58 205.68-32.05 201.83-32.05L201.83-32.05ZM231.03 0.6L231.03 0.6Q223.03 0.6 223.03-7.1L223.03-7.1Q223.03-12.75 223.38-22.8L223.38-22.8 219.38-23 219.38-24.15 228.28-24.7Q227.93-11.5 227.93-6.75L227.93-6.75Q227.93-3.9 228.98-2.5 230.03-1.1 232.5-1.1 234.98-1.1 237.18-3.88 239.38-6.65 239.38-8.75L239.38-8.75 239.38-22.8 235.23-23 235.23-24.15 244.28-24.7 244.28-1.55 248.53-1.35 248.58-0.2 239.58 0.4 239.93-5 239.33-5Q236.73 0.6 231.03 0.6ZM266.48-5.2L266.48-5.2Q266.48-5.05 266.43-4.85L266.43-4.85Q265.63-2.4 263.75-0.93 261.88 0.55 259.38 0.55 256.88 0.55 255.2-0.88 253.53-2.3 253.53-6.45L253.53-6.45Q253.53-7.6 253.78-23.1L253.78-23.1 250.32-23.1 250.32-24.4 253.82-24.4 253.88-31.75 258.77-31.75 258.63-24.4 265.77-24.4 265.77-23.1 258.63-23.1Q258.38-6.95 258.38-4.2L258.38-4.2Q258.38-0.85 260.57-0.85L260.57-0.85Q261.93-0.85 263.4-2.4 264.88-3.95 265.48-5.9L265.48-5.9Q266.48-5.9 266.48-5.2ZM277.72-32.58Q277.72-31.35 276.87-30.48 276.02-29.6 274.75-29.6 273.47-29.6 272.62-30.45 271.77-31.3 271.77-32.58 271.77-33.85 272.62-34.73 273.47-35.6 274.72-35.6 275.97-35.6 276.85-34.7 277.72-33.8 277.72-32.58ZM280.72 0L269.22 0 269.22-1.2 272.52-1.45 272.52-22.7 268.12-22.85 268.12-24 277.42-24.65 277.42-1.45 280.72-1.2 280.72 0ZM298.67-23.25L298.67-24.4 308.47-24.4 308.47-23.25 304.77-22.3 295.22-14.1 306.32-1.55 309.67-1.2 309.67 0 297.82 0 297.82-1.2 300.62-1.45 291.32-12.4 291.32-1.45 294.42-1.2 294.42 0 283.17 0 283.17-1.2 286.42-1.45 286.42-35.9 282.02-36.1 281.97-37.25 291.32-38.3 291.32-13 301.92-22.3 298.67-23.25Z" opacity="1" transform="matrix(1,0,0,1,0,0)" fill="#ffffff" class="undefined-text-0" data-fill-palette-color="primary" id="text-0"></path></svg></g></svg></g></svg></g></svg></g></svg></g></svg></g></svg></g></svg></g><defs></defs></svg><rect width="395.52" height="247.2" fill="none" stroke="none" visibility="hidden"></rect></g></svg></g></svg>