<svg xmlns="http://www.w3.org/2000/svg" version="1.1" xmlns:xlink="http://www.w3.org/1999/xlink" xmlns:svgjs="http://svgjs.dev/svgjs" width="1000" height="1000" viewBox="0 0 1000 1000"><rect width="1000" height="1000" fill="#ffffff"></rect><g transform="matrix(0.7,0,0,0.7,150.00005140625,106.25)"><svg viewBox="0 0 320 360" data-background-color="#ffffff" preserveAspectRatio="xMidYMid meet" height="1125" width="1000" xmlns="http://www.w3.org/2000/svg" xmlns:xlink="http://www.w3.org/1999/xlink"><g id="tight-bounds" transform="matrix(1,0,0,1,0.000023499999997511622,0)"><svg viewBox="0 0 320 360" height="360" width="320"><g><svg></svg></g><g><svg viewBox="0 0 320 360" height="360" width="320"><g><path transform="translate(-74.99272,-51.79039) scale(4.65793,4.65793)" d="M20.6 59.9l0.8 1-0.4-1.3c-0.1-0.6-0.8 0.1-0.4 0.3M21.5 59.3c0.3 0.5 0.6 1 0.6 1.5 0 0.7 0.6 1 1.1 1.2-0.7-0.8-1.1-3-1.7-2.7M59.9 16.9c1.7 0 3.3-0.2 5.1 0.2 4.4 1.1 8.1 3.3 10.6 6.4l7 11.2c0.3 2.8 0.9 5.9 0.8 9.3 0.7 0 0.6-1 1.4-1.2-0.8 2-1.2 4.5-1.4 7.4-0.5-1.6 0-4 0.1-5.3-0.7 1.1-1.1 0.3-1.1-0.2 0.1-0.8-0.3-0.7-0.6-1-1.1-1-1.8-2.1-2.6-3.8 0.5-1.3 0.6-3.2-1-4.2-0.5-0.3-1.1-0.8-1.4-1.6-0.4-1.1-1.1-2.4-0.9-4.1 0.1-0.5-1.5 1.1-2.4 0.4-3.9-2.7-7.8-5.8-12.5-8.4-2.5 0-4.3-0.9-5.2-2-0.8-1-0.2-2.3 1-2.4 0.7 0 1.5-0.2 2.1 0.2 0.1-0.4 0.5-0.9 1-0.9M50 14.6l0.2 0.1c1 0.2 1.5 1.6 2.6 1.1 0 0.7 0.1 1.4-0.1 1.9-0.3 0.8-1.2 0.8-1.9 0.8-6.7-0.4-10.6 2.4-14.7 4.8-1.1 0.7-2.3 1.2-3.2 2.1-4.3 4-9 7.7-10.1 15.1l-0.9 8.2c-0.1 0.9-1.1 1.8-0.9 2.9l0.7 4.9c-0.7-0.7-1.1 0.2-0.9 0.6 0.1 0.3 0.5 1.3 1.1 0.4 0.8 1.5 1.6 4.4 2.7 5.7 3.4 4 7.8 7.6 11.4 11.2 0.9-0.2 1.6-0.2 1.8-0.8 0.3 0.6-0.3 1.2-0.8 1.3 1.6 1 3.4 1.9 5.8 2.1 3.1 0.2 6 0.7 8.7 1.4 1.4-0.4 2.8-0.6 4.3-0.7 0.5 0 0.8-0.8 1.4-1l0.1-1c0.6 0.9 0.5-0.3 0.1-0.9 0.7 0.6 0.9 1.1 1.2 1.5 0-0.3 0.8-1.4 0.8-0.1l0.2-1.3c0.3-0.2 0.4 1.1 0.7 0.2 0.3-0.9 0.9-0.2 1.5-0.5-0.2 0.4-0.1 1.2 0.6 0.7l0.8-0.7c0.5 1.2 1.3 0.7 1.7 0.5 4.4-2.8 8.8-6.1 13-9.4l-0.1 1.3 0.5-1.6c0.5 0.5 0.9 0.1 1.1-0.2 0.6-1 1.4-2 2.7-2.9-1.6 4.3-3.5 7.7-5.9 10.5l-1 1.2c0 0.7-0.2 1.6-1 1.7-0.4 0.1-1.2-0.2-1.8 0.4-0.3 0.4 0.7 1.2-0.1 0.6-0.7-0.5-1.4 0-2.2 0.2-0.6 0.2 0.4 0.8 0.6 1.2 0.2 0.4 0.4 0.8 0.3 1.3l-1.1-1.2c-1.3 0.7-2.1 2-3.2 3-0.5 0.4-0.3 1.1-0.3 1.7-0.7 0-1.5-0.2-1.9 0.2-0.3 0.4-0.2 1-0.2 1.6-1-0.1-1.1-1.6-2-1.3-0.9 0.2-1.9 0.3-2.7 0.8 0.6 1.2-1 0.5-0.8 0.7-1.5-0.9-2.8-1.6-4.4-1-3.4-1.1-7.6-0.6-10.7-0.2 0-0.5 0.1-1-0.1-1.1-0.2 0.5-0.8 0.3-0.7 0.3-1.9-1.3-3.8-2.1-5.8-3.2-1.8 0.2-3.5-0.7-4-1.2-1.4-1.3-3-0.6-4.3-0.9-2.8-0.7-3.8-3.6-4.1-5.6-0.2-1-1-1.4-1.3-1.3-1.3-4.2-3.3-8-4.9-11.9-0.4-1-0.3-2-0.3-3.1 0.5 0.2 1 0.1 0.9-0.6-0.5-3.3-1.7-5.8-3-8.2 0.7-3.4 0.8-7.4 2.4-10.4 1.4-2.7 4-4.1 5.8-6.4 0.6-0.8 0.6-1.9 1.2-2.6 2-2 4-4.1 6.2-5.9 1-0.8 2.2 0 3.7-0.3 0.5-1.8 2.5-3.4 4.4-2.9 0.8 0.2 2.4-1.9 2.9-2.1 0.8-0.3 0.4 0.8 0.4 1.5 1.9-1.5 4.5-2.3 6.9-3.2" fill="#001f3f" fill-rule="nonzero" stroke="none" stroke-width="1" stroke-linecap="butt" stroke-linejoin="miter" stroke-miterlimit="10" stroke-dasharray="" stroke-dashoffset="0" font-family="none" font-weight="none" font-size="none" text-anchor="none" style="mix-blend-mode: normal" data-fill-palette-color="tertiary"></path></g><g transform="matrix(1,0,0,1,64,142.83314428235295)"><svg viewBox="0 0 192 74.33371143529412" height="74.33371143529412" width="192"><g><svg viewBox="0 0 192 74.33371143529412" height="74.33371143529412" width="192"><g><svg viewBox="0 0 192 74.33371143529412" height="74.33371143529412" width="192"><g transform="matrix(1,0,0,1,0,44.928669418487395)"><svg viewBox="0 0 192 29.405042016806725" height="29.405042016806725" width="192"><g id="textblocktransform"><svg viewBox="0 0 192 29.405042016806725" height="29.405042016806725" width="192" id="textblock"><g><svg viewBox="0 0 192 29.405042016806725" height="29.405042016806725" width="192"><g transform="matrix(1,0,0,1,0,0)"><svg width="192" viewBox="1 -35.5 237.98 36.45" height="29.405042016806725" data-palette-color="#111111"><path d="M5.95-17.25L5.95-20.1 6-25.5 6-27.8Q6-30 5.83-31.33 5.65-32.65 4.48-33.3 3.3-33.95 2.15-34 1-34.05 1-34.77 1-35.5 2.4-35.5L2.4-35.5 8.05-35.3 12.45-35.4Q13.8-35.4 13.8-34.7L13.8-34.7Q13.8-34.3 11.5-33.35L11.5-33.35Q9.9-32.7 9.9-27.6L9.9-27.6 9.75-9.1Q9.75-4.9 10.93-3.2 12.1-1.5 13.4-1.5L13.4-1.5 14.4-1.45Q14.75-1.45 15.1-1.28 15.45-1.1 15.45-0.7L15.45-0.7Q15.45 0 14.2 0L14.2 0 9.45-0.2 3.95 0.05Q1.7 0.05 1.7-0.7L1.7-0.7Q1.7-1.4 3.25-1.6L3.25-1.6Q3.85-1.65 4.5-2.23 5.15-2.8 5.33-3.53 5.5-4.25 5.73-9.58 5.95-14.9 5.95-17.25L5.95-17.25ZM28.8 0L28.8 0 25.15-0.2Q23.85-0.2 21.7-0.1L21.7-0.1 19.55 0Q18.8 0 18.8-0.45 18.8-0.9 19.05-1 19.3-1.1 19.67-1.15 20.05-1.2 20.4-1.45L20.4-1.45Q21.35-2.05 21.45-5.08 21.55-8.1 21.55-9.05L21.55-9.05 21.55-16.25Q21.55-17.85 20.97-18.4 20.4-18.95 19.4-18.95L19.4-18.95 18.9-18.95Q17.95-18.95 17.95-19.5L17.95-19.5Q17.95-20 19.02-20.15 20.1-20.3 20.72-20.48 21.35-20.65 22.37-21.08 23.4-21.5 24.02-21.8 24.65-22.1 24.85-22.1L24.85-22.1 24.95-22.1Q25.4-22.1 25.4-21.5L25.4-21.5 25.3-19.35Q25.3-18.05 25.5-18.05 25.7-18.05 25.9-18.3L25.9-18.3Q26.65-19.35 27.9-20.1L27.9-20.1Q30.15-21.5 32.2-21.5 34.25-21.5 35.85-20.88 37.45-20.25 38.35-19.33 39.25-18.4 39.85-17.2L39.85-17.2Q40.85-15.2 40.85-13.1L40.85-13.1 40.85-12.6 40.9-9.95 40.9-4.85Q40.9-2.95 41.42-2.23 41.95-1.5 43.95-1.2L43.95-1.2Q44.95-1.05 44.95-0.45L44.95-0.45Q44.95 0.05 43.95 0.05L43.95 0.05 39.85-0.2 36 0Q35 0 35-0.65L35-0.65Q35-1.1 35.6-1.25L35.6-1.25 36.25-1.4Q37.35-1.75 37.35-4.75L37.35-4.75 37.35-11.5Q37.35-15.35 35.45-17.32 33.55-19.3 31.15-19.3 28.75-19.3 27.15-18.15 25.55-17 25.2-16 24.85-15 24.85-8.35L24.85-8.35 24.85-6.45Q24.85-3.95 25.37-2.75 25.9-1.55 27.7-1.4L27.7-1.4Q28.2-1.4 28.97-1.23 29.75-1.05 29.75-0.65L29.75-0.65Q29.75 0 28.8 0ZM48.6-18.55L48.6-18.55 47.65-18.5Q46.8-18.5 46.8-19.2L46.8-19.2Q46.8-19.7 47.25-20.05L47.25-20.05Q49.15-21.3 51.05-23.8L51.05-23.8Q51.85-24.95 52.32-25.48 52.8-26 53.3-26 53.8-26 53.8-24.85L53.8-24.85Q53.8-24.85 53.6-22L53.6-22Q53.6-21.3 53.87-21.15 54.15-21 55.65-21L55.65-21 57.4-21Q59.65-21 60.15-21.25L60.15-21.25Q61.05-21.7 61.25-21.7L61.25-21.7Q61.75-21.7 61.75-21.15L61.75-21.15Q61.75-20.75 61.1-19.58 60.45-18.4 60.15-18.4L60.15-18.4Q57.9-18.4 57-18.5 56.1-18.6 55.8-18.63 55.5-18.65 55.27-18.68 55.05-18.7 54.95-18.7L54.95-18.7 54.85-18.75Q53.9-18.75 53.62-18.45 53.35-18.15 53.35-17.1L53.35-17.1 53.15-7.8Q53.15-4.55 53.97-3.28 54.8-2 57.45-2L57.45-2Q58.5-2 59.77-2.48 61.05-2.95 61.15-2.95L61.15-2.95Q61.65-2.95 61.65-2.3 61.65-1.65 59.92-0.58 58.2 0.5 56.2 0.5L56.2 0.5Q49.45 0.5 49.45-5.35L49.45-5.35 49.45-6.1 49.65-17.75Q49.65-18.25 49.45-18.4 49.25-18.55 48.6-18.55ZM75.04 0.95Q70.64 0.95 67.57-1.75 64.49-4.45 64.49-9.58 64.49-14.7 67.32-18.15 70.14-21.6 74.64-21.6L74.64-21.6Q76.74-21.6 78.47-20.85 80.19-20.1 81.14-19.03 82.09-17.95 82.74-16.75L82.74-16.75Q83.84-14.7 83.84-13.65L83.84-13.65Q83.84-12.75 81.79-12.75L81.79-12.75 68.94-12.75Q68.54-12.75 68.47-12.68 68.39-12.6 68.39-12.2L68.39-12.2Q68.39-7.5 70.92-4.8 73.44-2.1 76.84-2.1L76.84-2.1Q78.94-2.1 81.12-3.23 83.29-4.35 83.39-4.35L83.39-4.35Q83.89-4.35 83.89-3.9L83.89-3.9Q83.89-3.3 82.79-2.27 81.69-1.25 80.69-0.6L80.69-0.6Q78.29 0.95 75.04 0.95L75.04 0.95ZM69.34-13.95L69.34-13.95 78.14-14.25Q78.84-14.25 79.02-14.38 79.19-14.5 79.19-14.85L79.19-14.85Q79.19-16.35 77.79-18.35 76.39-20.35 73.89-20.35 71.39-20.35 70.04-18.38 68.69-16.4 68.69-14.65L68.69-14.65Q68.69-13.95 69.34-13.95ZM88.44-18.15L88.44-18.15 87.89-18.2Q86.94-18.2 86.94-19L86.94-19Q86.94-19.55 87.62-19.83 88.29-20.1 90.12-20.68 91.94-21.25 92.99-21.73 94.04-22.2 94.24-22.2L94.24-22.2Q94.89-22.2 94.89-21.2L94.89-21.2 94.84-19.85Q94.84-18.05 94.97-17.88 95.09-17.7 95.22-17.7 95.34-17.7 95.99-18.7 96.64-19.7 97.84-20.73 99.04-21.75 100.22-21.75 101.39-21.75 102.64-20.93 103.89-20.1 103.89-19.28 103.89-18.45 103.49-17.75L103.49-17.75Q102.79-16.55 102.19-16.55L102.19-16.55Q101.79-16.55 100.77-17.15 99.74-17.75 98.39-17.75 97.04-17.75 95.87-16.65 94.69-15.55 94.69-14.65L94.69-14.65 94.69-9.45 94.74-5.1 94.79-4.2Q94.79-3.15 95.49-2.4 96.19-1.65 96.82-1.55 97.44-1.45 97.89-1.4 98.34-1.35 98.59-1.33 98.84-1.3 99.14-1.2L99.14-1.2Q99.69-1.1 99.69-0.48 99.69 0.15 99.09 0.15L99.09 0.15 94.84-0.1 89.64 0.15Q88.74 0.15 88.64-0.05 88.54-0.25 88.54-0.45L88.54-0.45Q88.54-1.1 89.19-1.3L89.19-1.3Q90.49-1.6 90.77-2.58 91.04-3.55 91.04-6.75L91.04-6.75 90.99-14.8 90.94-16.3Q90.94-16.85 90.79-17.2L90.79-17.2Q90.39-18.15 88.44-18.15ZM110.54-13.4L110.54-20.1 110.44-25.5 110.44-27.8Q110.44-30.35 110.29-31.5 110.14-32.65 109.01-33.3 107.89-33.95 106.74-34 105.59-34.05 105.59-34.73 105.59-35.4 106.99-35.4L106.99-35.4 112.64-35.3 116.94-35.4Q117.79-35.4 117.79-34.75L117.79-34.75Q117.79-34.45 117.06-34.15 116.34-33.85 116.04-33.7L116.04-33.7Q114.49-32.8 114.49-27.6L114.49-27.6 114.34-19.8Q114.34-18.75 114.74-18.75 115.14-18.75 118.79-21.73 122.44-24.7 126.04-28.18 129.64-31.65 129.64-32.75L129.64-32.75Q129.64-33.35 129.14-33.58 128.64-33.8 128.39-33.88 128.14-33.95 127.69-34.02 127.24-34.1 127.14-34.15L127.14-34.15Q126.59-34.25 126.59-34.83 126.59-35.4 127.39-35.4L127.39-35.4 128.64-35.35 131.64-35.25 137.84-35.4Q138.84-35.4 138.84-34.75L138.84-34.75Q138.84-34.4 138.54-34.23 138.24-34.05 137.39-33.8 136.54-33.55 136.11-33.38 135.69-33.2 133.49-31.8L133.49-31.8Q133.04-31.5 128.56-27.73 124.09-23.95 119.14-19.8L119.14-19.8 118.59-19.1Q118.59-18.85 120.04-17.4 121.49-15.95 126.84-10.65 132.19-5.35 134.24-3.63 136.29-1.9 137.94-1.65 139.59-1.4 139.79-1L139.79-1Q139.84-0.9 139.84-0.58 139.84-0.25 139.41-0.15 138.99-0.05 136.94-0.05L136.94-0.05 132.09-0.05Q131.29-0.05 130.89-0.53 130.49-1 130.09-1.4L130.09-1.4Q128.24-3.55 127.24-4.55L127.24-4.55Q116.64-15.3 116.09-15.75L116.09-15.75Q115.54-16.2 115.14-16.2L115.14-16.2Q114.44-16.2 114.44-14.85L114.44-14.85 114.44-14.7 114.49-13.55 114.49-11Q114.49-4.45 115.34-2.98 116.19-1.5 118.59-1.5L118.59-1.5 118.99-1.45Q119.34-1.45 119.69-1.28 120.04-1.1 120.04-0.7L120.04-0.7Q120.04 0 118.79 0L118.79 0 114.04-0.2 108.54 0.05Q106.74 0.05 106.74-0.5L106.74-0.5 106.74-0.7Q106.74-1.05 107.19-1.2L107.19-1.2Q109.04-1.65 109.61-2.23 110.19-2.8 110.36-5.33 110.54-7.85 110.54-13.4L110.54-13.4ZM157.19-20.05L157.19-20.05 157.39-17.05Q157.39-16.2 157.19-15.9 156.99-15.6 156.61-15.6 156.24-15.6 155.81-16.32 155.39-17.05 154.86-17.9 154.34-18.75 153.16-19.48 151.99-20.2 150.49-20.2 148.99-20.2 148.04-19.48 147.09-18.75 147.09-17.9 147.09-17.05 147.24-16.53 147.39-16 147.76-15.6 148.14-15.2 148.41-14.93 148.69-14.65 149.34-14.35 149.99-14.05 150.31-13.93 150.64-13.8 151.39-13.5L151.39-13.5Q155.94-11.9 157.24-10.38 158.54-8.85 158.54-6 158.54-3.15 155.89-0.75L155.89-0.75Q154.09 0.8 150.94 0.8L150.94 0.8Q148.79 0.8 146.14-0.25L146.14-0.25Q145.39-0.55 145.26-0.58 145.14-0.6 144.86-0.7 144.59-0.8 144.46-0.83 144.34-0.85 144.14-0.95 143.94-1.05 143.86-1.13 143.79-1.2 143.69-1.35L143.69-1.35Q143.54-1.6 143.54-2.15L143.54-2.15 143.54-6.5Q143.54-7.05 143.76-7.43 143.99-7.8 144.39-7.8 144.79-7.8 144.96-7.58 145.14-7.35 145.29-6.65 145.44-5.95 145.59-5.65L145.59-5.65Q147.44-1.05 150.79-1.05L150.79-1.05Q152.34-1.05 153.74-1.88 155.14-2.7 155.14-4.48 155.14-6.25 153.99-7.35 152.84-8.45 151.19-9.08 149.54-9.7 147.89-10.38 146.24-11.05 145.09-12.38 143.94-13.7 143.94-15.7L143.94-15.7Q143.94-18.5 146.19-20.2 148.44-21.9 151.14-21.9 153.84-21.9 155.24-21.48 156.64-21.05 156.91-20.7 157.19-20.35 157.19-20.05ZM172.98 0.2L167.63 0.1 163.38 0.2Q162.28 0.2 162.28-0.6L162.28-0.6Q162.28-1.05 162.93-1.18 163.58-1.3 164.53-1.95 165.48-2.6 165.88-4.08 166.28-5.55 166.73-13.7 167.18-21.85 167.18-25.55 167.18-29.25 165.98-31.38 164.78-33.5 162.08-33.8L162.08-33.8Q161.43-33.85 161.43-34.55L161.43-34.55Q161.43-34.85 161.78-35.13 162.13-35.4 162.68-35.4L162.68-35.4 164.58-35.35 167.03-35.45Q167.48-35.45 168.08-35.18 168.68-34.9 168.78-34.68 168.88-34.45 169.33-33.93 169.78-33.4 170.53-32.55 171.28-31.7 171.88-30.9L171.88-30.9Q178.68-22.05 190.08-9.55L190.08-9.55Q190.38-9.2 190.81-8.75 191.23-8.3 191.41-8.08 191.58-7.85 191.78-7.65L191.78-7.65Q192.13-7.3 192.33-7.3L192.33-7.3Q192.83-7.3 192.83-10.4L192.83-10.4 192.83-16.25 192.73-26.5 192.73-26.85Q192.73-31.45 191.13-32.7L191.13-32.7Q190.53-33.15 190.13-33.27 189.73-33.4 188.98-33.55L188.98-33.55Q186.93-33.95 186.93-34.68 186.93-35.4 187.88-35.4L187.88-35.4 192.63-35.35Q192.63-35.35 197.13-35.45L197.13-35.45Q197.98-35.45 198.31-35.27 198.63-35.1 198.63-34.75 198.63-34.4 198.33-34.2L198.33-34.2Q197.93-33.95 196.88-33.6L196.88-33.6Q195.23-32.7 195.23-27.95L195.23-27.95 195.23-26.05 194.68-1.3 194.68-0.3Q194.68 0.85 193.98 0.85L193.98 0.85Q193.53 0.85 193.18 0.5L193.18 0.5Q176.58-18.75 173.36-22.38 170.13-26 169.78-26L169.78-26Q169.28-26 169.28-21.93 169.28-17.85 169.08-12.38 168.88-6.9 168.88-6.4L168.88-6.4Q168.88-4.15 169.66-2.98 170.43-1.8 171.33-1.65 172.23-1.5 173.01-1.33 173.78-1.15 173.78-0.63 173.78-0.1 173.61 0.05 173.43 0.2 172.98 0.2L172.98 0.2ZM212.13 0.95Q207.73 0.95 204.66-1.75 201.58-4.45 201.58-9.58 201.58-14.7 204.41-18.15 207.23-21.6 211.73-21.6L211.73-21.6Q213.83-21.6 215.56-20.85 217.28-20.1 218.23-19.03 219.18-17.95 219.83-16.75L219.83-16.75Q220.93-14.7 220.93-13.65L220.93-13.65Q220.93-12.75 218.88-12.75L218.88-12.75 206.03-12.75Q205.63-12.75 205.56-12.68 205.48-12.6 205.48-12.2L205.48-12.2Q205.48-7.5 208.01-4.8 210.53-2.1 213.93-2.1L213.93-2.1Q216.03-2.1 218.21-3.23 220.38-4.35 220.48-4.35L220.48-4.35Q220.98-4.35 220.98-3.9L220.98-3.9Q220.98-3.3 219.88-2.27 218.78-1.25 217.78-0.6L217.78-0.6Q215.38 0.95 212.13 0.95L212.13 0.95ZM206.43-13.95L206.43-13.95 215.23-14.25Q215.93-14.25 216.11-14.38 216.28-14.5 216.28-14.85L216.28-14.85Q216.28-16.35 214.88-18.35 213.48-20.35 210.98-20.35 208.48-20.35 207.13-18.38 205.78-16.4 205.78-14.65L205.78-14.65Q205.78-13.95 206.43-13.95ZM225.83-18.55L225.83-18.55 224.88-18.5Q224.03-18.5 224.03-19.2L224.03-19.2Q224.03-19.7 224.48-20.05L224.48-20.05Q226.38-21.3 228.28-23.8L228.28-23.8Q229.08-24.95 229.55-25.48 230.03-26 230.53-26 231.03-26 231.03-24.85L231.03-24.85Q231.03-24.85 230.83-22L230.83-22Q230.83-21.3 231.1-21.15 231.38-21 232.88-21L232.88-21 234.63-21Q236.88-21 237.38-21.25L237.38-21.25Q238.28-21.7 238.48-21.7L238.48-21.7Q238.98-21.7 238.98-21.15L238.98-21.15Q238.98-20.75 238.33-19.58 237.68-18.4 237.38-18.4L237.38-18.4Q235.13-18.4 234.23-18.5 233.33-18.6 233.03-18.63 232.73-18.65 232.5-18.68 232.28-18.7 232.18-18.7L232.18-18.7 232.08-18.75Q231.13-18.75 230.85-18.45 230.58-18.15 230.58-17.1L230.58-17.1 230.38-7.8Q230.38-4.55 231.2-3.28 232.03-2 234.68-2L234.68-2Q235.73-2 237-2.48 238.28-2.95 238.38-2.95L238.38-2.95Q238.88-2.95 238.88-2.3 238.88-1.65 237.15-0.58 235.43 0.5 233.43 0.5L233.43 0.5Q226.68 0.5 226.68-5.35L226.68-5.35 226.68-6.1 226.88-17.75Q226.88-18.25 226.68-18.4 226.48-18.55 225.83-18.55Z" opacity="1" transform="matrix(1,0,0,1,0,0)" fill="#111111" class="undefined-text-0" data-fill-palette-color="primary" id="text-0"></path></svg></g></svg></g></svg></g></svg></g><g transform="matrix(1,0,0,1,60.960542103929924,0)"><svg viewBox="0 0 70.07891579214015 40.637768067226894" height="40.637768067226894" width="70.07891579214015"><g><svg xmlns="http://www.w3.org/2000/svg" xmlns:xlink="http://www.w3.org/1999/xlink" version="1.2" baseProfile="tiny" x="0" y="0" viewBox="0.37600000000000033 19.508999999999997 99.999 57.987999999999985" xml:space="preserve" width="70.07891579214015" height="40.637768067226894" class="icon-icon-0" data-fill-palette-color="accent" id="icon-0"><path fill="#283132" d="M96.897 37.513c1.921 0 3.478-1.558 3.478-3.479 0-1.92-1.557-3.478-3.478-3.478s-3.478 1.558-3.478 3.478c0 0.422 0.079 0.825 0.217 1.2l-10.153 8.649-12.864-7.567c0.073-0.297 0.116-0.607 0.116-0.927 0-2.142-1.736-3.878-3.878-3.878-0.869 0-1.668 0.289-2.314 0.772L52.92 23.054c0.054-0.22 0.086-0.448 0.086-0.684 0-1.581-1.281-2.861-2.861-2.861s-2.861 1.281-2.861 2.861c0 0.729 0.275 1.393 0.724 1.898l-5.835 12.488c-0.26-0.045-0.526-0.074-0.8-0.074-0.86 0-1.662 0.239-2.351 0.647l-15.438-6.915c0.036-0.225 0.06-0.454 0.06-0.689 0-2.38-1.929-4.309-4.309-4.309-2.379 0-4.309 1.929-4.309 4.309s1.929 4.309 4.309 4.309c1.352 0 2.556-0.623 3.346-1.596l14.682 6.576c-0.384 0.674-0.607 1.452-0.607 2.284 0 0.852 0.293 1.605 0.694 2.29l-8.233 8.237c-1.136-0.811-2.506-1.294-4.003-1.294-2.642 0-4.915 1.501-6.082 3.684l-0.096-0.032c-0.001 0.012-0.004 0.023-0.005 0.035L7.553 49.002c0.016-0.134 0.025-0.271 0.025-0.409 0-1.989-1.612-3.601-3.601-3.601s-3.601 1.612-3.601 3.601 1.612 3.601 3.601 3.601c1.054 0 1.999-0.455 2.657-1.177l11.723 5.329c-0.005 0.013-0.009 0.025-0.015 0.037l0.056 0.019c-0.054 0.348-0.108 0.694-0.108 1.055 0 1.954 0.813 3.716 2.115 4.975l-0.017 0.013c0.004 0.005 0.008 0.01 0.012 0.014l-5.973 8.802c-0.155-0.027-0.314-0.044-0.478-0.044-1.479 0-2.678 1.198-2.678 2.678 0 1.479 1.199 2.678 2.678 2.678 1.479 0 2.678-1.199 2.678-2.678 0-0.501-0.14-0.969-0.38-1.37l5.364-7.904 0.71-0.877c0.881 0.407 1.859 0.641 2.894 0.641 1.902 0 3.629-0.771 4.883-2.016l6.993 4.991c-0.199 0.514-0.334 1.06-0.334 1.641 0 2.548 2.065 4.617 4.617 4.617 2.159 0 3.965-1.483 4.471-3.482l15.916-4.923c0.977 1.815 2.893 3.05 5.099 3.05 1.273 0 2.447-0.417 3.403-1.114l7.12 6.611c-0.038 0.193-0.059 0.393-0.059 0.597 0 1.734 1.406 3.14 3.14 3.14s3.139-1.405 3.139-3.14c0-1.733-1.405-3.139-3.139-3.139-0.707 0-1.358 0.236-1.883 0.631l-6.811-6.323c0.552-0.887 0.893-1.93 0.893-3.05 0-2.815-1.661-5.16-4.661-5.677V39.104c1-0.172 1.082-0.478 1.513-0.878l13.332 7.848 11.179 15.655c-0.092 0.23-0.146 0.481-0.146 0.745 0 1.125 0.91 2.037 2.035 2.037s2.037-0.912 2.037-2.037-0.913-2.037-2.038-2.037c-0.03 0-0.06 0.003-0.09 0.005L85.094 45.422l9.931-8.459C95.565 37.31 96.207 37.513 96.897 37.513zM61.07 62.474c0 0.21 0.013 0.416 0.035 0.62l-15.275 4.724c-0.522-1.975-2.316-3.435-4.458-3.435-1.123 0-2.114 0.451-2.913 1.113l-7.038-5.022c0.447-0.92 0.717-1.93 0.717-3.017 0-1.492-0.487-2.871-1.29-3.999l8.233-8.237c0.686 0.401 1.438 0.694 2.291 0.694 1.642 0 3.079-0.857 3.897-2.147l17.222 14.914C61.609 59.699 61.07 61.022 61.07 62.474zM66 56.797c-1 0.1-1.135 0.273-1.596 0.502l-18.36-15.846c0.002-0.052-0.023-0.102-0.023-0.154 0-1.485-0.718-2.802-1.806-3.646l5.799-12.428c0.046 0.002 0.088 0.007 0.134 0.007 0.53 0 1.023-0.147 1.449-0.399l11.621 9.229c-0.151 0.415-0.113 0.861-0.113 1.328 0 1.757 0.895 3.238 2.895 3.715V56.797z" data-fill-palette-color="accent"></path></svg></g></svg></g><g></g></svg></g></svg></g></svg></g></svg></g><defs></defs></svg><rect width="320" height="360" fill="none" stroke="none" visibility="hidden"></rect></g></svg></g></svg>