<svg xmlns="http://www.w3.org/2000/svg" version="1.1" xmlns:xlink="http://www.w3.org/1999/xlink" xmlns:svgjs="http://svgjs.dev/svgjs" width="1000" height="1000" viewBox="0 0 1000 1000"><rect width="1000" height="1000" fill="#ffffff"></rect><g transform="matrix(0.7,0,0,0.7,149.57575757575756,282.1265587044535)"><svg viewBox="0 0 396 247" data-background-color="#ffffff" preserveAspectRatio="xMidYMid meet" height="623" width="1000" xmlns="http://www.w3.org/2000/svg" xmlns:xlink="http://www.w3.org/1999/xlink"><g id="tight-bounds" transform="matrix(1,0,0,1,0.2400000000000091,-0.09999999999999432)"><svg viewBox="0 0 395.52 247.2" height="247.2" width="395.52"><g><svg></svg></g><g><svg viewBox="0 0 395.52 247.2" height="247.2" width="395.52"><g transform="matrix(1,0,0,1,39.55199999999999,101.10546630727762)"><svg viewBox="0 0 316.416 44.98906738544475" height="44.98906738544475" width="316.416"><g><svg viewBox="0 0 316.416 44.98906738544475" height="44.98906738544475" width="316.416"><g><svg viewBox="0 0 316.416 44.98906738544475" height="44.98906738544475" width="316.416"><g><svg viewBox="0 0 316.416 44.98906738544475" height="44.98906738544475" width="316.416"><g id="textblocktransform"><svg viewBox="0 0 316.416 44.98906738544475" height="44.98906738544475" width="316.416" id="textblock"><g><svg viewBox="0 0 316.416 44.98906738544475" height="44.98906738544475" width="316.416"><g transform="matrix(1,0,0,1,0,0)"><svg width="316.416" viewBox="1.3700000047683716 -35.54999923706055 253.5900115966797 36.05999755859375" height="44.98906738544475" data-palette-color="#636365"><path d="M18.85 0L1.37 0 1.37-4.27 5.15-5 5.15-30.52 1.37-31.25 1.37-35.55 5.15-35.55 17.16-35.55Q23.44-35.55 26.95-33.11 30.47-30.66 30.47-25.81L30.47-25.81Q30.47-23.34 29.16-21.4 27.86-19.46 25.37-18.48L25.37-18.48Q27.49-18.02 28.92-16.85 30.35-15.67 31.05-14 31.76-12.33 31.76-10.35L31.76-10.35Q31.76-5.25 28.39-2.62 25.02 0 18.85 0L18.85 0ZM12.28-15.72L12.28-5.47 18.85-5.47Q21.68-5.47 23.17-6.7 24.66-7.93 24.66-10.35L24.66-10.35Q24.66-12.11 24.1-13.31 23.54-14.5 22.38-15.11 21.22-15.72 19.38-15.72L19.38-15.72 12.28-15.72ZM12.28-30.05L12.28-20.65 17.41-20.65Q20.26-20.65 21.8-21.83 23.34-23 23.34-25.24L23.34-25.24Q23.34-27.71 21.79-28.88 20.24-30.05 17.16-30.05L17.16-30.05 12.28-30.05ZM46.95 0.51L46.95 0.51Q43.04 0.51 40.23-1.2 37.42-2.91 35.94-5.94 34.45-8.98 34.45-12.94L34.45-12.94 34.45-13.45Q34.45-17.38 35.94-20.42 37.42-23.46 40.22-25.18 43.02-26.9 46.9-26.9L46.9-26.9Q50.83-26.9 53.61-25.18 56.39-23.46 57.88-20.43 59.37-17.41 59.37-13.45L59.37-13.45 59.37-12.94Q59.37-8.98 57.88-5.94 56.39-2.91 53.61-1.2 50.83 0.51 46.95 0.51ZM46.95-4.96L46.95-4.96Q48.8-4.96 49.97-5.96 51.14-6.96 51.71-8.75 52.27-10.55 52.27-12.94L52.27-12.94 52.27-13.45Q52.27-15.8 51.71-17.59 51.14-19.38 49.96-20.4 48.78-21.41 46.9-21.41L46.9-21.41Q45.07-21.41 43.87-20.4 42.67-19.38 42.12-17.59 41.57-15.8 41.57-13.45L41.57-13.45 41.57-12.94Q41.57-10.55 42.12-8.74 42.67-6.93 43.87-5.94 45.07-4.96 46.95-4.96ZM71.38 0.51L71.38 0.51Q67.45 0.51 65.13-1.6 62.81-3.71 62.81-7.35L62.81-7.35Q62.81-9.84 64.17-11.72 65.52-13.6 68.17-14.67 70.82-15.75 74.7-15.75L74.7-15.75 78.19-15.75 78.19-17.7Q78.19-19.6 77.08-20.79 75.97-21.97 73.75-21.97L73.75-21.97Q72.6-21.97 71.69-21.69 70.77-21.41 70.04-20.9L70.04-20.9 69.48-17.41 64.35-17.41 64.25-24.27Q66.33-25.44 68.75-26.17 71.16-26.9 74.14-26.9L74.14-26.9Q79.32-26.9 82.32-24.5 85.32-22.09 85.32-17.63L85.32-17.63 85.32-6.74Q85.32-6.2 85.33-5.68 85.35-5.15 85.42-4.66L85.42-4.66 88.18-4.27 88.18 0 79.34 0Q79.07-0.68 78.8-1.46 78.54-2.25 78.41-3.03L78.41-3.03Q77.14-1.42 75.42-0.45 73.7 0.51 71.38 0.51ZM73.29-4.76L73.29-4.76Q74.78-4.76 76.12-5.43 77.46-6.1 78.19-7.2L78.19-7.2 78.19-11.38 74.68-11.38Q72.33-11.38 71.13-10.3 69.92-9.23 69.92-7.71L69.92-7.71Q69.92-6.3 70.81-5.53 71.7-4.76 73.29-4.76ZM100.21 0.51L100.21 0.51Q96.53 0.51 94.54-1.51 92.55-3.54 92.55-7.93L92.55-7.93 92.55-21.41 88.91-21.41 88.91-26.42 92.55-26.42 92.55-32.89 99.65-32.89 99.65-26.42 104.51-26.42 104.51-21.41 99.65-21.41 99.65-7.96Q99.65-6.42 100.3-5.76 100.94-5.1 102.07-5.1L102.07-5.1Q102.65-5.1 103.34-5.19 104.02-5.27 104.51-5.37L104.51-5.37 105.12-0.22Q104.02 0.1 102.74 0.31 101.46 0.51 100.21 0.51ZM142.81 0L128.04 0 128.04-4.27 131.85-5 131.85-30.05 125.38-30.05 124.99-25.81 119.59-25.81 119.59-35.55 151.31-35.55 151.31-25.81 145.89-25.81 145.5-30.05 138.98-30.05 138.98-5 142.81-4.27 142.81 0ZM164.61 0.51L164.61 0.51Q160.7 0.51 157.9-1.2 155.09-2.91 153.6-5.94 152.11-8.98 152.11-12.94L152.11-12.94 152.11-13.45Q152.11-17.38 153.6-20.42 155.09-23.46 157.88-25.18 160.68-26.9 164.56-26.9L164.56-26.9Q168.49-26.9 171.27-25.18 174.06-23.46 175.55-20.43 177.04-17.41 177.04-13.45L177.04-13.45 177.04-12.94Q177.04-8.98 175.55-5.94 174.06-2.91 171.27-1.2 168.49 0.51 164.61 0.51ZM164.61-4.96L164.61-4.96Q166.46-4.96 167.64-5.96 168.81-6.96 169.37-8.75 169.93-10.55 169.93-12.94L169.93-12.94 169.93-13.45Q169.93-15.8 169.37-17.59 168.81-19.38 167.62-20.4 166.44-21.41 164.56-21.41L164.56-21.41Q162.73-21.41 161.53-20.4 160.34-19.38 159.79-17.59 159.24-15.8 159.24-13.45L159.24-13.45 159.24-12.94Q159.24-10.55 159.79-8.74 160.34-6.93 161.53-5.94 162.73-4.96 164.61-4.96ZM191.41 0.51L191.41 0.51Q187.24 0.51 184.86-2.14 182.48-4.79 182.48-10.38L182.48-10.38 182.48-21.39 179.57-22.12 179.57-26.42 182.48-26.42 189.61-26.42 189.61-10.33Q189.61-7.5 190.6-6.26 191.58-5.03 193.59-5.03L193.59-5.03Q195.17-5.03 196.39-5.65 197.61-6.27 198.4-7.42L198.4-7.42 198.4-21.39 195.25-22.12 195.25-26.42 198.4-26.42 205.52-26.42 205.52-5 208.7-4.27 208.7 0 199.27 0 198.79-3.34Q197.54-1.49 195.66-0.49 193.78 0.51 191.41 0.51ZM225.83 0L211.87 0 211.87-4.27 215.29-5 215.29-21.39 211.5-22.12 211.5-26.42 221.93-26.42 222.2-23.14 222.25-22.56Q223.22-24.71 224.66-25.81 226.1-26.9 228.11-26.9L228.11-26.9Q228.74-26.9 229.5-26.79 230.25-26.68 230.84-26.51L230.84-26.51 230.08-19.95 226.54-20.14Q225.03-20.21 224.09-19.63 223.15-19.04 222.42-17.94L222.42-17.94 222.42-5 225.83-4.27 225.83 0ZM244.29 0.51L244.29 0.51Q241.33 0.51 238.78-0.05 236.23-0.61 233.89-1.66L233.89-1.66 233.82-9.13 238.77-9.13 239.72-5.32Q240.55-4.91 241.54-4.66 242.53-4.42 243.8-4.42L243.8-4.42Q246.19-4.42 247.17-5.2 248.15-5.98 248.15-7.15L248.15-7.15Q248.15-8.25 247.11-9.09 246.07-9.94 242.97-10.57L242.97-10.57Q238.28-11.55 236.06-13.6 233.84-15.65 233.84-18.85L233.84-18.85Q233.84-21.04 234.95-22.85 236.06-24.66 238.34-25.76 240.63-26.86 244.19-26.86L244.19-26.86Q247.17-26.86 249.65-26.28 252.13-25.71 253.81-24.78L253.81-24.78 253.88-17.55 248.95-17.55 248.2-21.02Q247.54-21.51 246.64-21.75 245.75-22 244.63-22L244.63-22Q242.75-22 241.75-21.24 240.75-20.48 240.75-19.29L240.75-19.29Q240.75-18.6 241.1-18.02 241.46-17.43 242.51-16.92 243.56-16.41 245.56-15.94L245.56-15.94Q250.47-14.82 252.71-12.95 254.96-11.08 254.96-7.71L254.96-7.71Q254.96-4.03 252.28-1.76 249.61 0.51 244.29 0.51Z" opacity="1" transform="matrix(1,0,0,1,0,0)" fill="#000000" class="undefined-text-0" data-fill-palette-color="primary" id="text-0"></path></svg></g></svg></g></svg></g></svg></g></svg></g></svg></g></svg></g><g mask="url(#2294792f-e79a-4835-a95a-ba198122cdb2)"><g transform="matrix(3.935234526975296, 0, 0, 3.935234526975296, 1, 36.39915156726305)"><svg xmlns="http://www.w3.org/2000/svg" xmlns:xlink="http://www.w3.org/1999/xlink" version="1.1" x="0" y="0" viewBox="0 27.842002868652344 99.9991226196289 44.3179931640625" enable-background="new 0 0 100 100" xml:space="preserve" height="44.3179931640625" width="99.9991226196289" class="icon-none" data-fill-palette-color="accent" id="none"><g fill="#89939e" data-fill-palette-color="accent"><path d="M10.808 57.449c-0.041 0.146-0.081 0.29-0.119 0.433 1.696 0.182 4.154 0.439 6.667 0.694-0.043-0.152-0.084-0.306-0.124-0.458C14.821 57.873 12.474 57.627 10.808 57.449z" fill="#000000" data-fill-palette-color="accent"></path><path d="M10.479 58.776c1.754 0.188 4.438 0.471 7.16 0.746-0.049-0.15-0.093-0.303-0.139-0.453-2.613-0.266-5.185-0.535-6.927-0.722C10.541 58.491 10.509 58.635 10.479 58.776z" fill="#000000" data-fill-palette-color="accent"></path><path d="M17.11 57.628c-0.109-0.457-0.208-0.916-0.288-1.379L16.18 44.681l-4.809-1.285v12.371c-0.159 0.413-0.299 0.818-0.425 1.219C12.566 57.159 14.804 57.394 17.11 57.628z" fill="#000000" data-fill-palette-color="accent"></path><path d="M25.163 59.346l-0.165-0.46c-1.774-0.146-4.409-0.402-7.072-0.67 0.051 0.154 0.104 0.309 0.157 0.461C20.775 58.948 23.423 59.203 25.163 59.346z" fill="#000000" data-fill-palette-color="accent"></path><path d="M25.504 60.292l-0.163-0.455c-1.69-0.135-4.351-0.391-7.081-0.664 0.056 0.152 0.112 0.305 0.17 0.457C21.177 59.905 23.843 60.16 25.504 60.292z" fill="#000000" data-fill-palette-color="accent"></path><path d="M17.365 56.249c0.119 0.493 0.256 0.984 0.405 1.474 2.623 0.265 5.238 0.519 7.051 0.672l-0.438-1.214L17.365 56.249z" fill="#000000" data-fill-palette-color="accent"></path><path d="M25.681 60.782c-1.598-0.123-4.271-0.377-7.056-0.656 0.183 0.453 0.373 0.9 0.572 1.342 8.191 1.82 20.119 3.965 29.976 3.723 11.051 0.092 22.773-1.223 35.733-4.86 6.843-1.921 11.555-6.176 12.203-11.48 0.591-4.828-1.76-9.512-7.186-14.32l-0.229-0.203 2.727-5.497c-0.378-0.579-0.685-0.989-0.685-0.989l-3.455 6.894c6.427 5.332 8.187 9.808 7.829 13.44-0.559 5.678-7.187 9.674-12.58 11.042-12.128 3.077-21.157 4.065-30.844 4.325-16.144 0.435-26.857-2.345-26.857-2.345L25.681 60.782z" fill="#000000" data-fill-palette-color="accent"></path><path d="M21.423 53.677c0.863-0.215 1.711-0.394 2.553-0.475 0.842-0.079 1.684-0.055 2.508 0.1 0.81 0.15 1.635 0.422 2.422 0.791 0.396 0.185 0.783 0.392 1.165 0.616 0.384 0.221 0.762 0.458 1.132 0.711 1.471 1.021 2.857 2.229 4.113 3.562l0.222-0.163c-0.491-0.802-1.052-1.548-1.659-2.266-0.604-0.72-1.263-1.397-1.975-2.028-0.355-0.315-0.725-0.62-1.108-0.909-0.388-0.284-0.789-0.554-1.208-0.802-0.84-0.495-1.738-0.921-2.727-1.185-0.975-0.257-1.989-0.36-2.987-0.337-1 0.018-1.975 0.161-2.909 0.352-0.936 0.184-1.836 0.41-2.718 0.611-0.419 0.094-0.833 0.183-1.245 0.262l0.125 2.274C18.628 54.476 20.051 54.027 21.423 53.677z" fill="#000000" data-fill-palette-color="accent"></path><path d="M10.986 55.021v-2.375c-0.118-0.024-0.239-0.053-0.356-0.085-1.454-0.415-2.836-1.457-4.054-2.682-1.226-1.233-2.325-2.656-3.362-4.138-1.04-1.484-2.011-3.041-2.957-4.631L0 41.211c0.438 1.827 1.116 3.579 1.931 5.281 0.829 1.695 1.824 3.333 3.095 4.818 0.636 0.74 1.347 1.44 2.163 2.053 0.815 0.609 1.745 1.137 2.797 1.44 0.266 0.077 0.523 0.139 0.811 0.188L10.986 55.021z" fill="#000000" data-fill-palette-color="accent"></path><path d="M10.212 60.556c2.805 0.303 6.589 0.645 8.084 0.777-0.172-0.432-0.336-0.871-0.488-1.316-2.817-0.284-5.618-0.578-7.418-0.771C10.31 59.692 10.254 60.128 10.212 60.556z" fill="#000000" data-fill-palette-color="accent"></path><path d="M10.153 61.369c-0.238 5.159 2.13 8.759 3.44 10.341 0.934-0.482 1.523-1.18 3.228-1.18 2.601 0 2.601 1.629 5.201 1.629 1.1 0 1.734-0.293 2.297-0.629-1.497-1.901-3.924-5.305-5.67-9.348C17.632 62.093 13.294 61.707 10.153 61.369z" fill="#000000" data-fill-palette-color="accent"></path><path d="M92.86 29.544l-2.168 4.579c5.403 4.865 7.834 9.852 7.227 14.825-0.691 5.648-5.635 10.132-12.805 12.169-12.896 3.665-24.821 4.978-35.935 4.888-0.517 0.013-1.04 0.019-1.565 0.019-9.376 0-20.218-1.921-27.982-3.623 1.76 3.638 3.955 6.774 5.418 8.687 0.533-0.305 1.152-0.557 2.174-0.557 2.6 0 2.6 1.629 5.201 1.629 2.6 0 2.6-1.629 5.199-1.629 2.602 0 2.602 1.629 5.201 1.629 2.602 0 2.602-1.629 5.201-1.629 2.601 0 2.601 1.629 5.201 1.629s2.601-1.629 5.201-1.629 2.601 1.629 5.201 1.629c2.602 0 2.602-1.629 5.202-1.629s2.601 1.629 5.202 1.629c2.601 0 2.601-1.629 5.201-1.629 2.602 0 2.602 1.629 5.203 1.629s2.602-1.629 5.203-1.629c1.159 0 1.781 0.098 2.324 0.299C107.354 55.957 96.569 35.518 92.86 29.544z" fill="#000000" data-fill-palette-color="accent"></path></g></svg></g></g></svg></g><defs><mask id="2294792f-e79a-4835-a95a-ba198122cdb2"><rect width="640" height="400" fill="white"></rect><rect width="348.05760000000004" height="66.23074552961725" fill="black" y="90.48462723519137" x="23.731199999999973" id="transform-me"></rect></mask></defs></svg><rect width="395.52" height="247.2" fill="none" stroke="none" visibility="hidden"></rect></g></svg></g></svg>